<svg xmlns="http://www.w3.org/2000/svg" width="640" height="490" viewBox="0 0 640 490">
  <g fill="none" fill-rule="evenodd" stroke-linejoin="round" transform="translate(0 1)">
    <path fill="#000D21" d="M299.924623,332.805402 C299.108631,333.772349 298.21643,335.034959 298.735022,336.076287 C299.257331,337.115755 300.370724,335.406861 300.891175,335.18372 C301.409766,334.960578 304.307562,333.99549 303.489711,332.879782 C302.673718,331.764074 300.740616,331.838454 299.924623,332.805402 M347.715009,323.240062 C347.508688,323.790478 346.478939,324.616102 347.233592,325.715075 C347.988246,326.815907 348.536578,326.060944 348.605352,325.23532 C348.675984,324.409696 349.153684,323.241921 348.742899,323.035515 C348.332115,322.82725 347.919472,322.691505 347.715009,323.240062 M374.126024,328.6029 C373.37137,328.878108 369.666876,330.185346 372.272847,330.66696 C374.878818,331.148575 375.153914,331.079773 375.704105,329.430384 C376.250578,327.779135 374.880677,328.327692 374.126024,328.6029 M383.001567,320.580957 C382.555466,321.549764 380.843555,321.326622 382.852867,322.221048 C384.862178,323.117334 385.233929,323.117334 385.310138,321.700384 C385.384488,320.283435 383.447668,319.610291 383.001567,320.580957 M388.955151,322.072287 C388.880801,322.297288 385.830588,321.0291 386.94584,320.878479 C388.06295,320.729718 388.509051,320.580957 389.626161,321.401003 C390.741412,322.221048 389.029501,321.847286 388.955151,322.072287 M395.326955,316.913995 C394.58903,317.983216 393.194966,318.228672 391.471902,318.557806 C389.74698,318.88694 390.486763,317.817719 391.717258,316.995814 C392.947752,316.173909 393.029537,315.681138 394.341816,316.09209 C395.654095,316.503043 395.079741,315.926594 396.721019,314.941051 C398.362298,313.953649 399.263793,313.542697 398.936652,315.186507 C398.607653,316.832177 396.06488,315.844775 395.326955,316.913995 M253.730906,358.36628 C254.619389,358.09851 255.418653,357.388176 256.924243,358.009253 C258.43355,358.63219 261.006063,357.564829 261.537666,357.120406 C262.069269,356.675982 262.245851,356.054904 262.069269,354.721633 C261.890829,353.386502 262.422432,352.497654 263.132476,351.432153 C263.842519,350.364792 263.931739,348.942263 261.537666,349.208174 C259.143593,349.475944 255.771816,349.475944 256.481859,350.543305 C257.191903,351.608806 256.747661,351.78732 255.682596,352.142487 C254.619389,352.497654 255.416794,352.763564 254.351729,354.098695 C253.288523,355.431967 252.844281,356.854495 251.602634,357.298919 C250.360987,357.743343 249.119341,360.054719 250.539428,360.143975 C251.957656,360.233232 252.844281,358.63219 253.730906,358.36628 M273.604688,348.098044 C274.021048,347.798662 274.679047,345.766214 275.573107,344.509182 C276.469025,343.25401 277.006205,342.236856 275.693925,342.236856 C274.381646,342.236856 272.708769,342.476733 272.470849,343.793269 C272.232928,345.107946 272.649289,346.841013 271.156711,347.140394 C269.66785,347.439776 267.818391,346.961881 267.517273,348.815816 C267.219873,350.669752 267.100913,352.642696 268.712451,352.224305 C270.322131,351.805915 270.50243,351.088142 271.219908,352.105297 C271.933669,353.120591 272.232928,354.796013 271.156711,354.61564 C270.08421,354.437127 269.13067,354.437127 268.950371,355.751803 C268.771931,357.068339 268.175271,359.221656 269.13067,358.503884 C270.08421,357.786112 270.56191,358.44438 270.56191,360.536333 C270.56191,362.630145 269.606511,364.184699 271.33701,363.10804 C273.067508,362.031382 273.545208,360.835714 273.307287,359.521038 C273.067508,358.204502 273.844467,354.974527 273.723648,352.343314 C273.604688,349.712102 273.186468,348.397426 273.604688,348.098044 M86.8613985,423.863939 C86.8613985,423.863939 89.2443192,421.269917 89.0342802,419.938505 C88.8242412,418.607093 87.4915156,419.72838 87.2814766,418.326307 C87.0714375,416.924233 86.0900162,417.134358 85.2498601,418.46577 C84.4078452,419.799042 81.5360726,421.41124 82.0955571,422.671991 C82.6569003,423.934601 83.2870174,425.898247 84.6885168,425.756924 C86.0900162,425.617461 86.8613985,423.863939 86.8613985,423.863939 M327.170218,309.639577 C327.170218,310.110034 327.015941,312.68918 328.263164,313.628234 C329.510387,314.565429 330.447198,314.018732 332.164686,313.706334 C333.880314,313.393936 334.34872,313.393936 333.568044,312.220582 C332.787368,311.047229 332.164686,310.422432 332.164686,309.170979 C332.164686,307.921386 331.540145,307.060431 330.525266,306.904232 C329.510387,306.748033 327.950894,307.21663 327.794758,307.921386 C327.638623,308.624282 327.170218,309.170979 327.170218,309.639577 M625.202596,168.138005 C624.085486,168.651231 623.204437,168.370444 624.31783,169.117969 C625.43494,169.863634 626.364316,169.770658 626.410785,169.210945 C626.459113,168.651231 626.319706,167.626639 625.202596,168.138005 M619.810355,172.844435 C620.321512,172.751459 622.691421,170.375 623.481391,170.328513 C624.27322,170.282025 625.109658,170.562811 624.830846,171.354964 C624.552033,172.147117 623.15611,175.269241 620.925607,175.315729 C618.693245,175.362217 618.182088,175.08143 618.135619,174.428741 C618.08915,173.777911 619.297339,172.937411 619.810355,172.844435 M617.392118,170.282025 C617.392118,170.282025 614.789865,171.213641 616.739696,171.633891 C618.693245,172.052282 620.133778,171.587404 620.598466,169.908262 C621.063154,168.23284 620.74159,166.739651 620.321512,167.673127 C619.901434,168.604743 618.788041,169.582848 618.228557,169.722311 C617.670931,169.863634 617.392118,170.282025 617.392118,170.282025 M630.243533,178.326282 C630.243533,178.326282 628.100391,177.718221 627.84946,178.21843 C627.598528,178.720499 625.920075,180.260176 625.096647,180.152325 C624.276937,180.044473 622.739749,179.079385 621.882864,179.544264 C621.02412,180.009142 618.310342,181.870516 619.845671,183.196349 C621.381001,184.522182 625.312263,185.057722 627.026032,185.057722 C628.741661,185.057722 635.280752,185.810826 635.172945,183.339532 C635.066996,180.868238 635.996372,180.583732 635.38856,179.687446 C634.778889,178.79116 633.531666,177.896734 633.457316,177.180821 C633.386683,176.464909 632.886679,177.07297 632.351358,177.718221 C631.816038,178.361613 630.243533,178.326282 630.243533,178.326282 M20.5336737,459.107306 C22.2177035,459.332308 23.4073051,458.116186 24.8943071,460.498223 C26.3794504,462.88212 26.7753647,464.072209 27.6675659,463.973654 C28.5579083,463.873241 28.3608806,463.081088 27.8645936,461.788726 C27.3701655,460.498223 26.2809365,457.320314 27.2697928,457.221759 C28.2623667,457.121346 28.2623667,457.022791 28.3608806,458.413708 C28.4593944,459.802765 28.8571675,464.568699 29.9463965,463.278196 C31.0356254,461.987694 31.7289401,462.88212 32.4222548,463.477164 C33.1155695,464.072209 33.5114838,463.278196 34.7010854,462.484184 C35.890687,461.690171 35.890687,462.086248 35.492914,463.575718 C35.0969997,465.065189 34.9984858,468.936697 33.4129699,468.936697 C31.827454,468.936697 31.6304262,471.22204 33.1155695,471.121626 C34.6007128,471.023072 36.3851152,469.831123 35.9892009,470.922658 C35.5932866,472.016052 34.6007128,473.702631 32.9185417,473.208001 C31.2326532,472.71151 30.1434242,468.341653 30.1434242,467.845162 C30.1434242,467.348672 29.1527091,466.852182 27.6675659,466.355692 C26.1824226,465.859202 23.1099047,466.257138 23.1099047,468.243098 C23.1099047,470.229059 22.2177035,471.71853 24.0021059,472.413988 C25.7846496,473.107587 27.0727651,473.107587 27.2697928,475.489624 C27.4686794,477.873521 26.9742512,478.468565 26.8757373,480.355972 C26.7753647,482.243379 26.7753647,484.030372 28.3608806,482.639455 C29.9463965,481.250398 32.0263405,478.568979 33.1155695,479.463405 C34.2047985,480.355972 35.1973723,477.475585 37.1769437,478.468565 C39.1583739,479.463405 42.9223478,480.951017 45.1026645,482.639455 C47.2829812,484.327894 48.5692379,484.426448 49.7588395,483.037391 C50.9465824,481.646475 53.4242995,479.362992 55.6027574,481.149985 C57.7830741,482.936977 57.7830741,483.236359 59.4671039,481.746889 C61.1511337,480.257418 65.7366762,477.224551 67.3965422,477.224551 C69.0564082,477.224551 78.4672721,467.70012 78.7442263,463.631504 C79.0211804,459.562887 77.5453309,451.888673 74.5917732,452.165741 C71.6419329,452.442809 69.7943329,452.812852 69.5173788,450.871519 C69.2422834,448.930187 68.7813128,444.398551 67.4894798,445.508681 C66.1976468,446.618811 66.2905844,446.802903 65.0898303,446.618811 C63.8909349,446.43286 62.7831184,448.65126 62.7831184,446.894019 C62.7831184,445.138638 63.244089,443.290281 62.2310689,444.214459 C61.21619,445.138638 59.3704488,445.969841 60.2013112,444.675619 C61.0321735,443.381397 63.0619313,440.422911 62.7831184,439.035713 C62.508023,437.648516 60.8462983,436.631362 61.6771607,435.430116 C62.508023,434.22701 62.876056,432.00861 62.876056,431.175548 C62.876056,430.344345 64.167889,430.528437 64.167889,432.101586 C64.167889,433.672875 65.6437385,442.273127 66.751555,439.589848 C67.8575128,436.908429 69.4262999,431.268523 67.8575128,430.435461 C66.2905844,429.604259 61.6771607,426.368704 60.9392359,427.106931 C60.2013112,427.847018 56.8797204,428.403013 56.048858,427.755902 C55.2198544,427.106931 54.7588838,424.611464 53.0971591,425.81271 C51.4354343,427.015815 48.7606894,428.125945 49.7755683,425.905685 C50.7904472,423.687285 50.7904472,423.594309 49.7755683,422.48418 C48.7606894,421.37405 48.2997188,420.449871 48.4855941,418.878582 C48.6696106,417.307293 49.0376436,416.197163 48.1157023,414.809966 C47.1937611,413.422768 44.2402033,410.557257 44.5171574,409.354152 C44.7941116,408.152906 46.3628987,410.187214 47.1937611,411.204368 C48.0246234,412.221522 51.1603389,413.885787 50.8833848,411.572552 C50.6064307,409.261176 51.2514178,408.244022 51.7123884,407.596911 C52.1752178,406.9498 51.2514178,401.772914 52.1752178,402.049981 C53.0971591,402.327049 53.5581297,401.772914 53.5581297,403.807222 C53.5581297,405.839671 53.3741132,409.17006 54.6659462,408.336998 C55.9577792,407.505795 55.5878874,406.211573 55.5878874,404.822516 C55.5878874,403.437179 54.9429003,402.605976 56.7867828,402.790068 C58.632524,402.97416 60.5693442,402.420024 60.7552194,405.101443 C60.9392359,407.782863 61.584223,407.412819 63.1530102,406.579757 C64.7217973,405.748554 66.1065679,405.932646 65.2757055,407.042776 C64.4448432,408.152906 59.0934947,409.817171 58.7236029,412.591566 C58.3555699,415.364101 55.3109333,417.491385 57.708724,417.214317 C60.1083735,416.93725 65.3667844,412.868633 68.2274045,412.959749 C71.0880247,413.052725 76.162419,413.052725 76.530452,415.641168 C76.898485,418.231471 79.8520428,421.282934 80.2200758,418.508539 C80.5899675,415.734144 80.0360593,415.550052 81.0509381,413.052725 C82.065817,410.557257 83.8186206,406.488641 80.8650629,407.226868 C77.9152227,407.966954 75.7925273,408.615925 74.1308025,408.152906 C72.4709365,407.689887 69.4262999,406.302689 69.3333623,405.008468 C69.2422834,403.714246 67.3965422,404.454333 66.9355715,404.638425 C66.4746009,404.822516 62.2310689,404.361357 62.2310689,403.344203 C62.2310689,402.327049 63.3370267,400.662784 64.3519055,401.125803 C65.3667844,401.586962 67.119588,401.586962 67.4894798,399.554513 C67.8575128,397.518346 71.3073575,396.040032 71.4616339,394.264196 C71.6159104,392.49022 71.6921192,391.718522 70.229281,390.175125 C68.7664428,388.631729 66.2273868,386.238534 66.2273868,384.464558 C66.2273868,382.690582 66.6121486,382.227563 67.3816721,383.153601 C68.1511957,384.079639 70.1530721,383.38604 69.9987957,381.610204 C69.8445192,379.836228 70.034112,378.843247 68.8816854,377.625266 C67.7292589,376.405425 65.6158572,373.517599 65.8723651,373.002514 C66.1288729,372.489288 69.5861526,368.253316 70.1623659,369.342991 C70.7385792,370.434525 70.7385792,369.858076 70.034112,371.782673 C69.3296448,373.709129 69.0749957,376.596954 69.9709144,377.560183 C70.8668331,378.521551 71.5081027,377.30357 72.2125699,376.275259 C72.9170371,375.248807 74.9653824,373.772353 73.7478995,376.275259 C72.5322754,378.780024 72.0192597,379.356473 72.0192597,381.796155 C72.0192597,384.235838 71.6995542,385.775515 73.2999402,383.720752 C74.9003261,381.667849 75.1586927,380.126312 75.8631599,380.832927 C76.5657683,381.539543 75.0304387,382.759384 75.989555,382.822607 C76.9505301,382.88769 77.7832512,382.309381 77.3352919,383.207527 C76.8854738,384.105672 75.2850878,383.399056 75.2218903,384.427368 C75.1586927,385.453819 77.5917997,383.785835 77.7832512,385.133983 C77.9747027,386.482131 77.0155864,388.215198 76.117809,387.573665 C75.2218903,386.930273 72.6586705,384.942453 72.6586705,386.738743 C72.6586705,388.535034 72.2757675,391.166246 73.8780122,391.616248 C75.4783981,392.066251 76.3743168,391.553025 78.7442263,392.771007 C81.1141357,393.990848 82.7777192,393.414398 83.6104404,392.192698 C84.4431615,390.974716 85.4691929,389.304873 86.1718013,390.65302 C86.8762685,392.001168 90.3186782,396.149743 83.747988,396.291066 C77.1772979,396.43053 72.842687,396.222264 75.4282118,398.182192 C78.0155953,400.143979 80.2535333,397.27103 80.3223072,399.865052 C80.3929398,402.457215 82.6977929,406.170664 85.1457699,403.156392 C87.5918883,400.143979 85.9152935,399.164016 86.8242235,397.551817 C87.7331534,395.941478 91.2647832,391.720381 90.0937691,389.306732 C88.9208963,386.893083 87.8799949,385.587704 88.2703329,383.694719 C88.6606709,381.803593 88.5956146,380.758547 89.4432058,382.3912 C90.2889382,384.021994 91.1346705,382.716615 91.1346705,384.739766 C91.1346705,386.762917 90.3539945,389.501981 91.852149,388.523877 C93.3484448,387.543913 97.5808243,377.431876 100.575275,376.84427 C103.569725,376.256663 102.982359,375.148393 105.978668,376.451912 C108.973118,377.757291 112.580957,377.162247 114.346772,375.985174 C116.108869,374.808102 118.854247,374.612853 120.748316,374.743019 C122.644243,374.875045 126.694465,370.626055 127.151718,369.448983 C127.608971,368.271911 125.975128,367.944636 124.995565,368.991543 C124.016003,370.036589 120.356119,373.565947 120.356119,371.738045 C120.356119,369.906423 120.618203,368.336994 120.618203,366.769423 C120.618203,365.199994 121.402597,365.462185 122.252046,365.527268 C123.101496,365.592351 124.733481,362.847709 125.713044,364.024781 C126.694465,365.199994 128.458421,366.049792 128.523477,367.096698 C128.588534,368.141745 128.588534,368.664268 129.698209,368.534102 C130.809743,368.403936 131.20194,369.514066 130.090406,370.103532 C128.980731,370.691138 130.939856,371.213662 133.293036,371.213662 C135.644358,371.213662 141.590508,368.664268 139.369298,368.141745 C137.148089,367.619221 132.965896,364.417138 134.599739,364.742553 C136.233583,365.069828 138.912045,366.311983 140.413917,365.199994 C141.917648,364.089864 142.309845,363.892755 142.24293,365.462185 C142.177873,367.031615 141.830287,367.85166 144.107259,368.041331 C146.38423,368.231001 147.899114,368.041331 146.003186,370.507046 C144.107259,372.974621 142.209472,375.821537 146.003186,374.302314 C149.7969,372.784951 152.073872,368.041331 153.969799,368.041331 C155.867586,368.041331 154.514414,364.417138 153.471654,365.380366 C152.430752,366.343595 149.627753,368.028314 149.467901,366.905168 C149.308048,365.780162 148.265288,364.015483 150.508802,363.372091 C152.752316,362.730559 153.713292,361.687372 155.153825,363.372091 C156.596217,365.058671 160.200338,364.978711 159.319289,363.853706 C158.43824,362.730559 155.875021,361.445635 156.596217,360.402448 C157.317413,359.35926 158.276529,359.760915 159.319289,358.877646 C160.362049,357.994377 160.200338,358.316073 160.362049,359.600997 C160.520043,360.884062 160.520043,363.292132 161.482877,363.292132 C162.443852,363.292132 162.763558,363.533869 162.202214,364.657016 C161.640871,365.780162 161.323024,368.108273 163.404827,366.905168 C165.48663,365.700203 167.248727,364.657016 168.611193,365.700203 C169.9718,366.74339 175.977429,365.620244 173.975553,364.175401 C171.973676,362.730559 169.9718,362.810518 170.852848,362.009068 C171.733897,361.203898 172.135388,359.840874 173.414209,361.687372 C174.696749,363.533869 177.100116,366.985127 177.661459,365.780162 C178.220943,364.577056 179.101992,358.637769 181.745138,357.994377 C184.388284,357.352845 189.113233,358.234254 189.033307,355.746225 C188.95338,353.258195 189.674576,347.96044 188.072332,347.718703 C186.470087,347.478826 180.944016,345.150714 180.784163,343.06434 C180.62431,340.976106 181.26558,342.500907 183.427309,342.902562 C185.589038,343.304217 186.150382,343.384176 187.03143,342.500907 C187.912479,341.617638 188.95338,341.617638 189.674576,342.420948 C190.395772,343.224258 190.635552,344.749059 192.557502,343.785831 C194.479452,342.822603 196.403261,342.019293 195.522212,344.187486 C194.639304,346.35382 193.118845,349.647019 193.038919,350.610247 C192.958992,351.571616 195.3605,351.090002 196.882819,351.010043 C198.405137,350.930084 201.527841,352.776581 198.96648,353.819768 C196.403261,354.862956 193.43855,353.899727 193.598403,356.067921 C193.760114,358.236114 194.239673,358.475991 192.799139,360.322489 C191.356747,362.168986 191.836306,364.898752 194.960869,362.730559 C198.083573,360.562366 201.607768,357.432804 202.728595,357.914418 C203.849423,358.396032 209.057648,357.352845 209.2175,355.184652 C209.377353,353.016458 208.576231,351.653435 206.973986,352.85654 C205.3736,354.061505 204.091061,354.141464 202.650528,352.294967 C201.208136,350.44847 200.968357,349.163546 201.687694,347.558785 C202.40889,345.954024 201.288062,345.55051 204.97211,344.6691 C208.656157,343.785831 210.018623,342.019293 206.973986,342.019293 C203.931208,342.019293 201.447915,339.691182 201.447915,338.16638 C201.447915,336.641579 202.650528,335.196736 202.808522,336.721538 C202.970233,338.246339 203.45165,339.371345 205.211889,340.012877 C206.973986,340.65441 208.016746,339.932918 206.814133,339.129608 C205.613379,338.328158 203.611503,337.36307 205.052036,336.801497 C206.494428,336.239924 206.654281,337.043234 207.695182,336.401701 C208.736084,335.75831 210.659892,334.715122 210.258402,335.918228 C209.856911,337.123193 208.656157,341.295942 210.739819,341.215983 C212.821622,341.136024 216.745448,338.887872 219.068889,339.209567 C221.392329,339.531263 223.31428,339.852959 223.554059,337.924643 C223.793838,335.998187 224.435107,335.838269 225.154444,336.080006 C225.877499,336.319883 226.117278,337.283111 225.476009,338.96969 C224.834739,340.65441 223.152568,343.304217 224.754813,345.150714 C226.357057,346.997212 227.879376,349.726978 230.602448,349.806937 C233.325521,349.886896 235.247471,348.200317 237.329273,347.398867 C239.411076,346.595557 242.054222,348.681931 242.29586,344.829019 C242.535639,340.976106 241.734517,330.378736 240.935253,329.417367 C240.132272,328.454139 239.33115,324.119612 239.011445,322.271255 C238.691739,320.424758 240.132272,316.252009 241.254959,315.930313 C242.375787,315.608617 242.535639,316.653664 242.215934,318.098506 C241.89437,319.543348 240.453836,324.761144 241.974296,326.445864 C243.498473,328.132443 245.258712,327.089256 247.020809,326.527682 C248.782906,325.96425 249.262465,326.205987 249.262465,325.001022 C249.262465,323.797916 249.905593,322.67291 250.626789,323.957834 C251.346126,325.242758 252.468813,325.884291 250.305225,327.007437 C248.143496,328.132443 244.617442,328.773975 244.457589,331.022128 C244.297737,333.27028 241.734517,338.086421 246.459466,338.488076 C251.186273,338.887872 251.827543,342.420948 254.149125,343.304217 C256.472566,344.187486 257.755105,344.829019 259.916834,342.662685 C262.078563,340.494492 262.320201,341.217843 262.320201,338.568035 C262.320201,335.918228 263.119465,335.596532 264.641783,335.196736 C266.164101,334.795081 268.086051,332.387011 268.887174,331.182046 C269.686437,329.977081 271.290541,326.445864 272.731074,326.365905 C274.173466,326.285946 275.534073,323.394402 275.534073,324.841103 C275.534073,326.285946 275.853778,331.66366 278.976482,333.350239 C282.101045,335.036818 282.180972,334.153549 284.182848,332.546929 C286.186583,330.942169 286.344577,330.138859 286.907779,328.694016 C287.469123,327.249174 286.907779,327.57087 288.508165,327.089256 C290.112269,326.607642 290.352048,325.080981 289.470999,324.199571 C288.588092,323.314442 286.186583,320.506576 287.227485,320.18488 C288.268386,319.865044 288.749803,318.258424 287.868754,316.893541 C286.987706,315.528658 285.545314,313.120587 287.067632,311.837522 C288.588092,310.552598 294.677365,303.08665 293.634605,300.196965 C292.593703,297.307281 292.471026,293.958296 292.552811,291.128116 C292.636455,288.297936 290.145726,280.223926 291.142018,280.307604 C292.140168,280.391282 293.632746,279.809255 294.049107,282.804932 C294.463608,285.800608 293.632746,295.708099 294.298179,297.954391 C294.961754,300.200684 296.125333,301.450278 297.537985,299.618656 C298.950637,297.787035 301.439507,294.542183 301.688579,292.210353 C301.939511,289.880382 302.355872,287.548552 302.437657,289.962201 C302.519442,292.377709 302.684871,296.457483 301.688579,297.954391 C300.692288,299.4513 298.61792,300.951928 298.61792,302.78169 C298.61792,304.613311 297.104896,312.731949 298.242452,314.803447 C299.380009,316.876805 300.723887,318.948304 301.963675,320.500998 C303.205321,322.055551 303.515733,323.610105 304.341019,325.992142 C305.166305,328.37418 306.20163,329.928733 307.958152,331.379154 C309.716531,332.829575 312.298339,332.725442 311.887554,329.824601 C311.473053,326.923759 310.852229,324.748128 309.508351,325.162799 C308.166332,325.577471 307.235097,324.541722 306.822454,325.785736 C306.407952,327.027892 305.166305,325.058666 304.855894,323.712378 C304.547341,322.36609 302.274086,320.915669 305.270395,321.330341 C308.268563,321.745013 307.958152,320.500998 307.958152,318.635905 C307.958152,316.770813 307.337328,316.253868 308.681206,315.218119 C310.026943,314.18237 308.268563,308.17428 309.30203,309.312303 C310.335496,310.452185 310.852229,312.938355 310.852229,315.011713 C310.852229,317.083211 309.612441,318.635905 311.058551,318.533632 C312.506519,318.429499 312.196107,318.740038 313.333664,319.775787 C314.469362,320.811537 320.672019,321.745013 321.186893,320.190459 C321.705485,318.635905 320.567929,315.528658 321.601395,315.113986 C322.63672,314.701174 321.705485,314.078237 319.844874,313.457159 C317.984263,312.836081 314.058577,309.312303 315.504687,307.44907 C316.950796,305.583977 319.224051,304.339962 318.294674,302.993674 C317.365298,301.647386 321.543774,303.030865 323.740819,304.496161 C325.937865,305.961458 326.963896,304.204218 328.722276,304.496161 C330.478797,304.789965 330.77248,302.885822 330.919321,300.687877 C331.066163,298.488072 331.357987,302.738921 332.822684,300.979821 C334.287381,299.22072 336.339444,298.928777 336.045761,296.730831 C335.752078,294.532886 333.995557,293.947139 335.752078,293.361392 C337.510458,292.773786 338.220501,291.539068 337.084804,290.11654 C335.949106,288.694012 339.638729,288.125001 338.220501,286.843796 C336.802273,285.562591 334.529019,284.424568 333.252056,283.855557 C331.973234,283.288405 332.400747,281.438189 333.536445,279.018961 C334.670284,276.599734 335.949106,270.907761 334.246488,270.197427 C332.542012,269.485233 332.400747,266.78336 331.973234,264.648638 C331.549439,262.513916 329.134919,260.23787 329.134919,260.23787 C329.134919,260.23787 330.270617,258.103149 332.400747,259.810182 C334.529019,261.519076 336.659149,263.082927 337.653582,261.091387 C338.646156,259.099848 334.529019,255.827103 333.818975,254.830404 C333.110791,253.835564 322.605121,246.721064 325.017782,246.721064 C327.432302,246.721064 328.142345,246.577881 329.703697,248.284915 C331.263191,249.993808 337.369193,253.976887 337.653582,251.842165 C337.936112,249.707443 336.233495,246.152052 333.536445,245.724364 C330.839395,245.296676 329.560573,243.448319 329.276184,241.598103 C328.993654,239.749746 327.999221,236.049313 327.999221,234.769968 C327.999221,233.488763 329.134919,224.524046 326.296604,223.101518 C323.45643,221.67899 322.322591,220.113279 319.908072,219.971956 C317.493552,219.830633 314.796502,217.409546 317.069756,217.409546 C319.339293,217.409546 319.339293,217.694051 322.605121,218.975256 C325.87095,220.256462 330.411882,221.537667 330.98066,223.670529 C331.549439,225.805251 331.549439,230.072836 332.967667,229.362501 C334.387754,228.650307 336.233495,226.517445 336.233495,228.224479 C336.233495,229.931513 335.523451,234.911291 336.802273,233.34558 C338.077377,231.781729 340.776286,230.926352 339.638729,233.631945 C338.50489,236.333819 336.37476,238.327218 336.802273,240.887769 C337.226069,243.448319 336.517884,245.01403 339.214934,246.152052 C341.911984,247.290075 342.478903,248.997109 343.045823,250.419637 C343.614601,251.842165 343.473336,251.985348 345.460342,251.557659 C347.447349,251.131831 350.001275,248.855786 351.564486,252.554359 C353.125838,256.254792 351.138831,259.097988 353.835881,261.944904 C356.532931,264.789961 355.822888,267.921382 358.947451,268.918082 C362.070155,269.912921 363.347118,270.907761 362.354544,273.326989 C361.360111,275.746217 360.650068,277.45325 362.495809,277.45325 C364.34155,277.45325 364.34155,273.042483 368.033033,272.90116 C371.722657,272.757978 374.84722,273.611495 377.685535,273.185666 C380.52385,272.757978 381.168837,268.96085 382.291523,267.724274 C383.41421,266.489556 384.536897,266.377985 384.536897,267.276131 C384.536897,268.174276 385.771108,270.195568 389.923561,268.062705 C394.074156,265.927983 393.851105,266.827988 395.984953,266.827988 C398.115084,266.827988 402.82888,263.233547 404.849344,264.245123 C406.869808,265.254839 409.338231,267.276131 411.022261,269.072421 C412.706291,270.868712 412.817816,270.195568 412.817816,273.563147 C412.817816,276.932587 413.15425,279.402021 415.06133,277.269159 C416.970269,275.134437 418.42939,275.69601 419.888511,275.69601 C421.345773,275.69601 426.022394,273.01645 422.494482,271.199705 C418.968428,269.3811 416.548332,268.371384 414.736049,268.371384 C412.920047,268.371384 411.308509,266.855881 414.633817,266.450507 C417.960984,266.048852 422.395968,261.905854 420.682198,261.096966 C418.968428,260.289937 412.719302,262.108542 413.927491,259.886422 C415.137539,257.664303 415.64312,256.048386 417.658008,256.048386 C419.672895,256.048386 419.269546,255.442184 418.159871,255.03867 C417.053913,254.633296 415.64312,252.308903 417.658008,252.208489 C419.672895,252.108076 428.139513,248.370453 430.961099,247.764251 C433.782686,247.15805 435.697201,248.067352 436.10055,246.148333 C436.503899,244.229315 436.90539,243.016912 438.318042,244.63283 C439.728835,246.250607 442.544845,247.678713 439.134034,248.909712 C435.721365,250.14071 432.169289,252.466962 433.53733,254.108913 C434.901655,255.750863 433.673019,256.710373 433.673019,258.761416 C433.673019,260.81432 433.808708,265.466824 435.446269,266.013521 C437.085689,266.560218 443.912887,263.687269 444.868286,265.466824 C445.821826,267.244519 446.914772,271.350326 448.689881,269.297422 C450.46499,267.244519 447.734482,264.780663 449.372043,262.182922 C451.009604,259.583322 453.740111,256.570909 451.009604,255.204166 C448.279097,253.835564 443.775339,252.604566 444.184265,251.100219 C444.59319,249.594013 445.275353,249.320664 446.096921,250.14071 C446.914772,250.962615 448.963118,251.918405 450.191753,250.825011 C451.420388,249.731617 451.145293,250.414058 452.102551,252.331217 C453.057949,254.246517 453.877659,257.119466 456.608167,255.339911 C459.338674,253.562215 457.426018,252.193613 459.065437,251.235964 C460.702998,250.278314 460.292214,250.14071 459.065437,248.909712 C457.836802,247.678713 459.591464,247.634085 458.632348,246.092548 C457.671373,244.552871 456.966906,243.202863 458.8238,244.679317 C460.680693,246.157631 460.617496,246.92747 462.6677,246.477467 C464.717904,246.027465 467.59897,245.516099 469.007905,246.607633 C470.418698,247.697309 471.699378,248.980373 471.571124,246.477467 C471.441012,243.974562 471.954027,242.754721 473.682667,242.691497 C475.413166,242.626414 475.926182,244.102868 477.335116,242.498108 C478.74405,240.893347 477.528426,240.508428 479.065615,239.608423 C480.600944,238.710278 487.199516,237.105517 481.563778,241.728269 C475.926182,246.349161 474.388993,247.503919 475.09346,248.019004 C475.797928,248.53223 480.859311,245.451016 482.586092,246.349161 C484.31659,247.249166 487.933723,247.892558 489.32407,247.892558 C490.716275,247.892558 494.671701,248.535949 492.106622,250.14071 C489.539685,251.74547 487.292453,249.499178 486.008055,250.460546 C484.725516,251.423774 485.04708,252.922543 486.86494,254.633296 C488.6828,256.345908 493.175405,256.239916 495.314829,255.490531 C497.454253,254.741147 499.701485,254.633296 501.625294,256.881448 C503.550961,259.127741 505.582578,261.162049 505.262872,258.486208 C504.941308,255.812227 503.550961,255.490531 505.368821,253.350231 C507.186681,251.20993 507.82981,248.855786 505.796334,250.032858 C503.764718,251.20993 503.229397,249.60517 503.229397,250.996086 C503.229397,252.387003 503.229397,254.633296 501.731243,252.494855 C500.234947,250.354554 498.523036,250.248562 500.770268,248.214253 C503.015641,246.181805 503.764718,244.041504 504.405988,242.328892 C505.047257,240.61628 506.223848,239.333215 505.047257,240.296443 C503.872526,241.259671 499.805575,242.328892 499.805575,241.043968 C499.805575,239.760903 501.517486,234.83877 501.625294,236.97907 C501.731243,239.119371 502.160615,240.510287 505.047257,238.905527 C507.935759,237.300766 510.288939,236.871218 512.534312,234.411082 C514.781544,231.949085 516.91911,231.199701 518.952585,231.199701 C520.98606,231.199701 522.268599,231.735241 520.021367,232.590617 C517.775994,233.447853 511.46553,236.551382 512.428363,237.085063 C513.391197,237.620603 519.274149,240.724131 520.878252,240.831983 C522.480497,240.937975 525.368998,240.61628 525.79837,243.719808 C526.225883,246.823337 526.012127,247.786565 525.582755,246.501641 C525.157101,245.218577 523.44519,243.398112 523.658946,245.538413 C523.870844,247.678713 524.086459,249.499178 526.118076,248.641942 C528.149692,247.786565 527.508423,245.110725 530.07536,244.683036 C532.642297,244.255348 538.4193,242.864432 540.666532,241.15182 C542.911905,239.441067 543.553174,239.333215 544.729765,239.441067 C545.906355,239.547059 546.014163,238.691683 544.943521,238.156143 C543.87288,237.620603 543.339418,237.085063 544.621957,236.871218 C545.906355,236.657374 549.434267,236.657374 547.296702,235.266458 C545.157278,233.875542 542.162827,232.270781 543.017854,231.629249 C543.87288,230.987716 544.621957,230.666021 546.014163,231.949085 C547.40451,233.234009 549.649883,233.447853 550.932422,233.769549 C552.214961,234.089386 550.932422,234.732777 549.863639,236.337538 C548.794856,237.942299 547.618266,239.333215 549.008613,240.188591 C550.39896,241.043968 552.644333,239.974747 554.03468,238.156143 C555.425027,236.337538 557.672258,232.806321 559.062605,231.629249 C560.452952,230.452176 565.051506,228.633572 564.302429,227.456499 C563.553351,226.279427 563.767108,224.674667 565.265262,225.743887 C566.763417,226.813108 569.438162,230.457755 571.70584,230.230894 C573.971659,230.004034 575.782084,227.739146 577.93452,228.191007 C580.088814,228.644729 581.672471,228.531299 582.579542,226.491412 C583.486613,224.451525 581.220794,222.751929 582.23939,222.525069 C583.259846,222.298208 584.507069,224.224664 586.317493,222.751929 C588.131636,221.277335 588.469929,220.712042 587.564716,218.672156 C586.657645,216.632269 586.544261,214.02523 586.544261,211.985344 C586.544261,209.945457 587.6781,207.90557 589.377,206.886556 C591.0759,205.865683 591.640961,203.373935 590.395596,203.031784 C589.150232,202.693353 589.150232,202.353061 588.016393,203.258645 C586.884413,204.166088 584.958745,203.939227 584.165058,202.806783 C583.373229,201.672479 584.051674,200.993757 585.185513,201.105328 C586.317493,201.218758 592.7748,200.653466 592.7748,202.353061 C592.7748,204.052657 591.867728,209.493595 594.813851,206.432835 C597.758115,203.373935 600.817622,200.540035 602.743289,201.105328 C604.668957,201.672479 606.709867,203.485505 607.276787,202.693353 C607.841848,201.89934 607.841848,200.880326 606.594625,200.086314 C605.34926,199.292302 602.516522,198.159858 603.196825,196.233401 C603.87527,194.306945 604.442189,193.626363 603.423593,193.172641 C602.403138,192.720779 598.891954,190.792463 599.685642,190.113741 C600.47747,189.433159 600.590854,188.641006 601.724693,189.206298 C602.858532,189.77345 605.122493,191.699906 607.501696,188.073854 C609.880899,184.447802 614.183911,177.307268 614.072386,174.70023 C613.959002,172.095051 613.165315,168.353709 614.637447,166.767543 C616.109579,165.181378 613.393941,165.294808 615.31775,163.595213 C617.243418,161.893757 618.037105,161.893757 618.150489,163.141491 C618.263873,164.387366 619.622621,166.880974 621.094753,166.086961 C622.568744,165.294808 626.644988,164.162364 628.005595,165.635099 C629.364343,167.107834 630.15803,168.126848 630.271414,169.601443 C630.384798,171.074178 631.518637,171.75476 633.55583,169.601443 C635.594881,167.448126 637.974085,164.727657 639.446217,164.614226 C640.920207,164.500796 639.219449,163.595213 637.068872,163.481782 C634.916437,163.368352 629.953568,159.428042 628.691475,156.904682 C627.429382,154.379462 624.908913,148.492241 624.908913,146.247807 C624.908913,144.005233 624.626383,139.938476 623.226742,137.275653 C621.825243,134.610969 620.423743,130.123962 618.600307,127.600602 C616.77873,125.077241 614.815887,123.113594 616.07798,120.729698 C617.340073,118.345801 623.786227,112.598043 621.2639,110.915183 C618.739714,109.232323 613.696918,103.484565 613.274981,101.240132 C612.853044,98.9975583 613.414388,94.5105512 611.033326,93.948978 C608.650405,93.3892643 608.230327,91.4256176 608.369733,88.4820071 C608.510999,85.536537 604.3065,84.5565732 603.183814,84.5565732 C602.062986,84.5565732 601.081565,80.4898162 601.92358,77.124096 C602.763736,73.7583758 605.00725,72.3581618 604.445907,70.5358382 C603.884564,68.711655 600.661487,65.7680445 600.661487,68.2914049 C600.661487,70.8147653 598.698644,70.9560883 596.315723,70.9560883 C593.934661,70.9560883 586.085149,70.3945151 585.105587,72.3581618 C584.122307,74.319949 582.161323,76.7038459 580.337887,74.7401992 C578.518168,72.778412 579.079511,69.1319052 577.256075,67.0287949 C575.434497,64.9256847 574.594341,63.3841476 571.650077,62.6831109 C568.707672,61.9820741 565.203924,59.036604 566.884236,57.9153171 C568.566407,56.7940303 572.770905,53.42831 570.107313,52.4464867 C567.445579,51.4665228 567.164908,52.8685963 565.062658,55.1111701 C562.960409,57.3556035 561.839582,58.8971405 558.616505,58.3355673 C555.391569,57.7758536 556.793068,53.8485602 553.148055,53.8485602 C549.5049,53.8485602 546.982573,53.8485602 545.160995,54.2706699 C543.339418,54.69092 540.116341,52.8685963 538.714842,51.7473095 C537.313342,50.624163 533.24825,47.6805525 529.883908,47.6805525 C526.519566,47.6805525 525.118067,47.6805525 526.240753,49.082626 C527.361581,50.4846995 529.043752,51.886773 527.08091,52.3070231 C525.118067,52.7272733 524.277911,51.7473095 523.296489,50.345236 C522.316927,48.9431624 521.19424,48.8018394 519.932147,51.6059864 C518.673772,54.4101334 515.307571,63.2446841 516.850336,64.7862211 C518.391242,66.3277582 518.391242,67.4490451 518.391242,69.8329419 C518.391242,72.2168388 519.374522,74.4594126 521.054834,75.4412359 C522.737005,76.4230593 524.138504,79.6474564 521.755584,80.3484932 C519.374522,81.0495299 515.028758,83.1544997 512.787103,82.4516034 C510.543588,81.7505667 509.701573,78.1059194 506.478497,77.5462057 C503.25542,76.9846325 499.471,73.8996989 498.772109,72.0773752 C498.0695,70.2550516 491.623347,62.4023243 489.240426,62.8225744 C486.857505,63.2446841 485.454147,63.5254707 485.175334,65.3459348 C484.896521,67.1682585 483.913241,68.0106183 482.091664,66.6085448 C480.270086,65.2064713 479.989415,65.0670077 477.608353,66.0469716 C475.225432,67.0287949 470.320184,69.2732282 468.357341,70.8147653 C466.396357,72.3581618 466.113827,70.8147653 465.273671,72.2168388 C464.433515,73.6189123 461.349844,72.9178755 460.227158,71.6571251 C459.108189,70.3945151 458.268033,71.0955519 456.02266,71.6571251 C453.781004,72.2168388 453.080254,73.4794487 451.258677,73.1986621 C449.437099,72.9178755 446.212164,74.1804855 446.212164,76.0028091 C446.212164,77.8251328 446.212164,82.8737131 443.970508,82.5929265 C441.728853,82.3121399 436.403527,78.1059194 433.598669,79.928243 C430.79567,81.7505667 431.918357,84.6960367 430.375592,85.2576099 C428.834687,85.8173236 427.152515,85.8173236 426.310501,84.1344635 C425.470344,82.4516034 424.909001,82.0313533 422.948017,83.2939632 C420.985175,84.5565732 419.163597,85.3970735 416.219333,85.2576099 C413.276928,85.1162869 411.033414,85.9567872 409.07243,87.9204339 C407.109587,89.8840806 404.167182,88.340684 403.327026,86.9386105 C402.485011,85.536537 400.382762,82.3121399 398.0017,82.0313533 C395.61692,81.7505667 395.196842,82.0313533 394.776764,79.928243 C394.356686,77.8251328 391.553687,77.2654191 389.590845,76.1441322 C387.629861,75.0209858 384.265519,73.3381257 387.349189,72.9178755 C390.431001,72.4976254 397.579763,69.4126918 398.419919,66.1882946 C399.261934,62.9638975 399.261934,58.757677 401.364183,58.3355673 C403.466432,57.9153171 404.167182,56.7940303 403.745245,54.69092 C403.327026,52.5878097 403.605839,47.1189793 406.550103,45.1571921 C409.492508,43.1935454 411.734163,43.1935454 413.838271,40.2480753 C415.94052,37.3044648 416.920083,35.2013545 418.604113,36.603428 C420.284425,38.0055015 422.667346,35.3426776 424.490782,34.0800676 C426.310501,32.8174577 426.732437,32.257744 428.693421,32.3972075 C430.656264,32.5366711 431.078201,31.2759206 429.955514,30.1546337 C428.834687,29.0333468 427.291922,28.4717736 428.554015,25.38684 C429.816108,22.3019064 433.178591,13.7500019 429.254765,13.7500019 C425.330938,13.7500019 422.247268,14.028929 421.405253,12.4873919 C420.565097,10.9458549 420.145018,9.96403151 418.462847,9.96403151 C416.780676,9.96403151 417.620833,4.77598765 414.678427,6.31752469 C411.734163,7.86092125 407.810337,8.14170786 405.990618,10.2448181 C404.167182,12.3479284 403.187619,15.0107523 401.083511,14.4510386 C398.981262,13.8894654 394.916171,10.9458549 394.356686,11.9258187 C393.795343,12.9076421 395.758185,16.6936124 393.375265,16.6936124 C390.992344,16.6936124 383.003426,15.7136486 380.200427,16.6936124 C377.399287,17.6754358 372.49218,20.8998329 372.49218,18.5159361 C372.49218,16.1338987 374.875101,12.6268554 372.914117,11.0853184 C370.951274,9.54378136 369.549775,7.29934805 369.549775,5.4770244 C369.549775,3.65470075 366.466105,1.41026744 364.363855,2.53341385 C362.261606,3.65470075 360.999513,6.17806115 359.458608,8.2811714 C357.915843,10.3842817 355.393516,14.5905022 352.590517,14.170252 C349.787518,13.7500019 348.807956,11.6468916 345.162942,13.4692153 C341.519787,15.2915389 337.59596,16.6936124 335.911931,15.5723255 C334.231618,14.4510386 332.549447,12.3479284 328.484356,12.3479284 C324.421123,12.3479284 321.337452,12.3479284 319.514016,9.54378136 C317.694297,6.73777484 312.787191,-0.272592665 310.684942,0.00819393843 C308.582692,0.288980541 306.199772,0.288980541 304.378194,1.69105404 C302.556617,3.09312754 299.052868,1.41026744 299.052868,4.49520105 C299.052868,7.58013465 298.911603,8.70142155 296.530541,9.26299475 C294.14762,9.82456796 293.024934,14.170252 290.361342,14.3097156 C287.699608,14.4510386 285.177281,14.5905022 284.056453,16.1338987 C282.933766,17.6754358 282.233017,20.0593326 280.132626,19.0775093 C278.030377,18.0956859 275.645598,16.5541489 275.645598,18.3764725 C275.645598,20.1987962 274.385364,23.4250528 277.190221,25.1060534 C279.991361,26.7889135 281.532267,26.3686634 284.056453,26.2273403 C286.57878,26.0878768 289.242373,27.7707369 288.402216,29.1728104 C287.560201,30.5748839 283.075032,32.8174577 285.177281,35.4821411 C287.27953,38.1468246 286.158702,42.211722 286.998858,44.7350824 C287.840873,47.2584428 288.820436,51.7473095 285.87803,52.8685963 C282.933766,53.9898832 276.067535,56.5132436 274.385364,55.95353 C272.703193,55.3919567 268.500553,49.2220895 268.359288,46.4179425 C268.218023,43.6137955 266.117632,35.061891 263.732853,35.061891 C261.351791,35.061891 258.128714,34.5003178 255.743935,34.7811044 C253.362873,35.061891 250.418609,34.0800676 248.738296,32.8174577 C247.056125,31.5567072 243.552377,26.5081269 239.067207,27.7707369 C234.582037,29.0333468 233.600616,29.453597 230.797617,27.7707369 C227.994618,26.0878768 223.79012,25.1060534 223.509449,28.7525602 C223.230636,32.3972075 222.388621,37.5852514 220.146965,40.5288619 C217.90531,43.474332 218.604201,47.1189793 219.866294,48.5210528 C221.126528,49.9231263 224.351463,54.1293468 222.808699,56.5132436 C221.267793,58.8971405 220.425778,60.299214 217.764044,60.8607872 C215.100452,61.4205009 212.578125,65.6267214 210.475876,66.7480083 C208.373627,67.8711547 200.946052,75.0209858 201.925614,78.1059194 C202.907036,81.190853 206.691456,83.4352863 207.392205,85.6778601 C208.092955,87.9204339 205.570628,91.0053675 207.672877,92.8276911 C209.775126,94.6500148 210.336469,94.7913378 212.01864,98.2965216 C213.698953,101.801705 213.139468,105.026102 210.475876,106.989749 C207.812284,108.951536 198.143053,114.701153 197.862381,118.345801 C197.58171,121.992308 197.442303,126.337992 200.384708,129.984498 C203.328972,133.629146 205.15055,137.556439 201.646801,139.23744 C198.143053,140.9203 195.899539,142.041587 195.059383,143.86577 C194.217368,145.688094 194.778711,150.314564 191.836306,150.734814 C188.892042,151.155064 180.483045,150.454028 178.800874,152.278211 C177.120562,154.098675 177.259968,155.361285 178.100125,157.745182 C178.942139,160.129079 178.800874,166.577873 175.717204,167.420233 C172.635392,168.260733 168.709707,169.242556 166.888129,172.046703 C165.066552,174.85085 165.48663,179.057071 162.263553,181.440968 C159.040476,183.824865 155.395463,190.835232 155.114791,192.798879 C154.834119,194.760666 155.256056,206.959077 155.256056,209.902688 C155.256056,212.848158 154.834119,214.670482 156.938227,217.896738 C159.040476,221.119276 161.142725,224.206069 158.899211,225.747606 C156.657556,227.289143 153.854557,230.234613 154.274635,232.757974 C154.694713,235.281334 156.376884,235.701584 153.713292,238.507591 C151.051558,241.309878 146.285716,248.740496 140.960391,250.564679 C135.635065,252.387003 131.430566,250.425216 130.309739,252.948576 C129.187052,255.471936 131.149895,257.435583 128.066224,259.257907 C124.982554,261.08023 120.077306,261.920731 118.5364,263.324664 C116.993636,264.726737 114.75198,264.585414 112.088388,264.726737 C109.426654,264.866201 108.584639,266.969311 106.763062,265.70856 C104.941484,264.445951 104.800219,263.043877 103.679391,265.146987 C102.558564,267.250098 101.857814,277.064612 99.8949712,276.644362 C97.9339873,276.222252 95.690473,275.662539 96.5324879,278.886936 C97.372644,282.111333 99.3336279,285.897303 101.015799,287.01859 C102.69797,288.139877 104.380141,290.523774 104.380141,292.206634 C104.380141,293.889494 104.800219,294.590531 102.69797,294.590531 C100.595721,294.590531 97.0919724,294.170281 96.5324879,295.992604 C95.9711446,297.814928 94.8503168,303.984795 92.1867245,303.845332 C89.5249909,303.704009 86.8613985,301.740362 84.4784778,302.722185 C82.0955571,303.704009 81.9561506,305.948442 79.8539015,305.526332 C77.7516524,305.106082 75.3687317,300.479611 72.7051393,301.740362 C70.0434057,303.002972 69.2013909,303.002972 68.2199695,302.301935 C67.2385482,301.600898 64.8574862,303.423222 66.3983921,304.966619 C67.9411566,306.508156 69.0619844,308.191016 68.0805631,310.574913 C67.0991418,312.958809 66.2589856,316.183207 67.2385482,318.00553 C68.2199695,319.827854 72.4244677,328.941332 68.922578,329.361582 C65.4169707,329.783691 63.3165804,325.438007 61.4931442,326.698758 C59.6715667,327.961368 59.5303015,329.222118 57.288646,329.502905 C55.0469904,329.783691 48.4595715,328.100831 45.9353856,330.203942 C43.4149172,332.307052 42.4334959,331.747338 40.0487164,331.466551 C37.6676544,331.185765 33.1824846,330.904978 32.3423285,334.549626 C31.5003136,338.196132 29.8200013,347.72986 27.0151437,349.972434 C24.2121449,352.216867 24.9128946,353.338154 22.251161,352.216867 C19.5875687,351.09558 17.3459131,348.57222 15.9444137,349.271397 C14.5429144,349.972434 14.6823208,352.216867 14.6823208,353.899727 C14.6823208,355.582588 14.2622427,360.770631 14.9629924,362.871882 C15.6637421,364.976852 15.8031486,364.275815 16.0838202,363.152669 C16.3644918,362.031382 18.4667409,361.190882 18.3254757,363.293992 C18.1860693,365.397102 17.3459131,368.760963 19.0262254,368.760963 C20.7083964,368.760963 21.5504113,364.415279 22.3905675,366.098139 C23.2325824,367.780999 22.3905675,368.059926 25.0541598,368.059926 C27.7158934,368.059926 28.9779864,367.780999 28.9779864,369.462 C28.9779864,371.14486 29.5393297,371.286183 28.9779864,372.82772 C28.4166431,374.371116 26.4556592,375.492403 27.8571586,377.314727 C29.258658,379.137051 28.9779864,379.838087 31.5003136,379.97941 C34.0226407,380.118874 23.6526604,380.260197 22.5318327,380.260197 C21.4091461,380.260197 14.8068572,378.224029 14.8068572,381.70318 C14.8068572,385.18233 14.7287896,391.428438 13.7008995,392.614807 C12.6730093,393.801177 14.3347341,397.200369 12.8310033,396.172058 C11.33099,395.143746 11.488984,394.037336 10.3030999,395.223706 C9.11721576,396.410075 6.50938598,398.939014 7.14136183,402.182007 C7.77333769,405.423139 8.4852399,405.423139 8.4852399,408.822331 C8.4852399,412.221522 9.2603397,414.705833 7.4127397,416.001914 C5.5651397,417.297995 4.54840207,418.317009 5.19524795,420.818055 C5.84209382,423.317242 9.44621495,431.093729 9.53729382,429.704672 C9.63023145,428.317475 10.0912021,425.632337 10.9220644,427.11251 C11.7529268,428.594542 13.7864021,429.797648 13.6005268,432.852829 C13.4165103,435.908011 12.4927103,438.963192 13.9704186,439.056168 C15.4499856,439.149143 22.2846186,437.760087 21.823648,439.149143 C21.3608186,440.5382 19.5132186,440.908244 17.7585562,440.815268 C16.0020351,440.724152 13.6023856,439.798114 12.6785856,441.464238 C11.7529268,443.130363 11.661848,445.261366 13.2324938,446.001452 C14.801281,446.741539 18.6470399,447.838652 18.6470399,449.512215 C18.6470399,451.187637 18.4184133,452.405618 18.9500166,452.634338 C19.4834785,452.861199 19.7102463,452.634338 19.8626641,451.645077 C20.0150818,450.653956 21.4574737,449.285354 21.4574737,451.111397 C21.4574737,452.937439 21.8366592,454.384141 20.7734528,454.307901 C19.7102463,454.23352 18.6470399,453.54736 18.6470399,454.994062 C18.6470399,456.440764 18.8515027,458.884165 20.5336737,459.107306" opacity=".647"/>
    <rect width="640" height="489"/>
    <path stroke="#236485" d="M299.924623,332.805402 C299.108631,333.772349 298.21643,335.034959 298.735022,336.076287 C299.257331,337.115755 300.370724,335.406861 300.891175,335.18372 C301.409766,334.960578 304.307562,333.99549 303.489711,332.879782 C302.673718,331.764074 300.740616,331.838454 299.924623,332.805402 Z M347.715009,323.240062 C347.508688,323.790478 346.478939,324.616102 347.233592,325.715075 C347.988246,326.815907 348.536578,326.060944 348.605352,325.23532 C348.675984,324.409696 349.153684,323.241921 348.742899,323.035515 C348.332115,322.82725 347.919472,322.691505 347.715009,323.240062 Z M374.126024,328.6029 C373.37137,328.878108 369.666876,330.185346 372.272847,330.66696 C374.878818,331.148575 375.153914,331.079773 375.704105,329.430384 C376.250578,327.779135 374.880677,328.327692 374.126024,328.6029 Z M383.001567,320.580957 C382.555466,321.549764 380.843555,321.326622 382.852867,322.221048 C384.862178,323.117334 385.233929,323.117334 385.310138,321.700384 C385.384488,320.283435 383.447668,319.610291 383.001567,320.580957 Z M388.955151,322.072287 C388.880801,322.297288 385.830588,321.0291 386.94584,320.878479 C388.06295,320.729718 388.509051,320.580957 389.626161,321.401003 C390.741412,322.221048 389.029501,321.847286 388.955151,322.072287 Z M395.326955,316.913995 C394.58903,317.983216 393.194966,318.228672 391.471902,318.557806 C389.74698,318.88694 390.486763,317.817719 391.717258,316.995814 C392.947752,316.173909 393.029537,315.681138 394.341816,316.09209 C395.654095,316.503043 395.079741,315.926594 396.721019,314.941051 C398.362298,313.953649 399.263793,313.542697 398.936652,315.186507 C398.607653,316.832177 396.06488,315.844775 395.326955,316.913995 Z M253.730906,358.36628 C254.619389,358.09851 255.418653,357.388176 256.924243,358.009253 C258.43355,358.63219 261.006063,357.564829 261.537666,357.120406 C262.069269,356.675982 262.245851,356.054904 262.069269,354.721633 C261.890829,353.386502 262.422432,352.497654 263.132476,351.432153 C263.842519,350.364792 263.931739,348.942263 261.537666,349.208174 C259.143593,349.475944 255.771816,349.475944 256.481859,350.543305 C257.191903,351.608806 256.747661,351.78732 255.682596,352.142487 C254.619389,352.497654 255.416794,352.763564 254.351729,354.098695 C253.288523,355.431967 252.844281,356.854495 251.602634,357.298919 C250.360987,357.743343 249.119341,360.054719 250.539428,360.143975 C251.957656,360.233232 252.844281,358.63219 253.730906,358.36628 Z M273.604688,348.098044 C274.021048,347.798662 274.679047,345.766214 275.573107,344.509182 C276.469025,343.25401 277.006205,342.236856 275.693925,342.236856 C274.381646,342.236856 272.708769,342.476733 272.470849,343.793269 C272.232928,345.107946 272.649289,346.841013 271.156711,347.140394 C269.66785,347.439776 267.818391,346.961881 267.517273,348.815816 C267.219873,350.669752 267.100913,352.642696 268.712451,352.224305 C270.322131,351.805915 270.50243,351.088142 271.219908,352.105297 C271.933669,353.120591 272.232928,354.796013 271.156711,354.61564 C270.08421,354.437127 269.13067,354.437127 268.950371,355.751803 C268.771931,357.068339 268.175271,359.221656 269.13067,358.503884 C270.08421,357.786112 270.56191,358.44438 270.56191,360.536333 C270.56191,362.630145 269.606511,364.184699 271.33701,363.10804 C273.067508,362.031382 273.545208,360.835714 273.307287,359.521038 C273.067508,358.204502 273.844467,354.974527 273.723648,352.343314 C273.604688,349.712102 273.186468,348.397426 273.604688,348.098044 Z M86.8613985,423.863939 C86.8613985,423.863939 89.2443192,421.269917 89.0342802,419.938505 C88.8242412,418.607093 87.4915156,419.72838 87.2814766,418.326307 C87.0714375,416.924233 86.0900162,417.134358 85.2498601,418.46577 C84.4078452,419.799042 81.5360726,421.41124 82.0955571,422.671991 C82.6569003,423.934601 83.2870174,425.898247 84.6885168,425.756924 C86.0900162,425.617461 86.8613985,423.863939 86.8613985,423.863939 Z M327.170218,309.639577 C327.170218,310.110034 327.015941,312.68918 328.263164,313.628234 C329.510387,314.565429 330.447198,314.018732 332.164686,313.706334 C333.880314,313.393936 334.34872,313.393936 333.568044,312.220582 C332.787368,311.047229 332.164686,310.422432 332.164686,309.170979 C332.164686,307.921386 331.540145,307.060431 330.525266,306.904232 C329.510387,306.748033 327.950894,307.21663 327.794758,307.921386 C327.638623,308.624282 327.170218,309.170979 327.170218,309.639577 Z M625.202596,168.138005 C624.085486,168.651231 623.204437,168.370444 624.31783,169.117969 C625.43494,169.863634 626.364316,169.770658 626.410785,169.210945 C626.459113,168.651231 626.319706,167.626639 625.202596,168.138005 Z M619.810355,172.844435 C620.321512,172.751459 622.691421,170.375 623.481391,170.328513 C624.27322,170.282025 625.109658,170.562811 624.830846,171.354964 C624.552033,172.147117 623.15611,175.269241 620.925607,175.315729 C618.693245,175.362217 618.182088,175.08143 618.135619,174.428741 C618.08915,173.777911 619.297339,172.937411 619.810355,172.844435 Z M617.392118,170.282025 C617.392118,170.282025 614.789865,171.213641 616.739696,171.633891 C618.693245,172.052282 620.133778,171.587404 620.598466,169.908262 C621.063154,168.23284 620.74159,166.739651 620.321512,167.673127 C619.901434,168.604743 618.788041,169.582848 618.228557,169.722311 C617.670931,169.863634 617.392118,170.282025 617.392118,170.282025 Z M630.243533,178.326282 C630.243533,178.326282 628.100391,177.718221 627.84946,178.21843 C627.598528,178.720499 625.920075,180.260176 625.096647,180.152325 C624.276937,180.044473 622.739749,179.079385 621.882864,179.544264 C621.02412,180.009142 618.310342,181.870516 619.845671,183.196349 C621.381001,184.522182 625.312263,185.057722 627.026032,185.057722 C628.741661,185.057722 635.280752,185.810826 635.172945,183.339532 C635.066996,180.868238 635.996372,180.583732 635.38856,179.687446 C634.778889,178.79116 633.531666,177.896734 633.457316,177.180821 C633.386683,176.464909 632.886679,177.07297 632.351358,177.718221 C631.816038,178.361613 630.243533,178.326282 630.243533,178.326282 Z M20.5336737,459.107306 C22.2177035,459.332308 23.4073051,458.116186 24.8943071,460.498223 C26.3794504,462.88212 26.7753647,464.072209 27.6675659,463.973654 C28.5579083,463.873241 28.3608806,463.081088 27.8645936,461.788726 C27.3701655,460.498223 26.2809365,457.320314 27.2697928,457.221759 C28.2623667,457.121346 28.2623667,457.022791 28.3608806,458.413708 C28.4593944,459.802765 28.8571675,464.568699 29.9463965,463.278196 C31.0356254,461.987694 31.7289401,462.88212 32.4222548,463.477164 C33.1155695,464.072209 33.5114838,463.278196 34.7010854,462.484184 C35.890687,461.690171 35.890687,462.086248 35.492914,463.575718 C35.0969997,465.065189 34.9984858,468.936697 33.4129699,468.936697 C31.827454,468.936697 31.6304262,471.22204 33.1155695,471.121626 C34.6007128,471.023072 36.3851152,469.831123 35.9892009,470.922658 C35.5932866,472.016052 34.6007128,473.702631 32.9185417,473.208001 C31.2326532,472.71151 30.1434242,468.341653 30.1434242,467.845162 C30.1434242,467.348672 29.1527091,466.852182 27.6675659,466.355692 C26.1824226,465.859202 23.1099047,466.257138 23.1099047,468.243098 C23.1099047,470.229059 22.2177035,471.71853 24.0021059,472.413988 C25.7846496,473.107587 27.0727651,473.107587 27.2697928,475.489624 C27.4686794,477.873521 26.9742512,478.468565 26.8757373,480.355972 C26.7753647,482.243379 26.7753647,484.030372 28.3608806,482.639455 C29.9463965,481.250398 32.0263405,478.568979 33.1155695,479.463405 C34.2047985,480.355972 35.1973723,477.475585 37.1769437,478.468565 C39.1583739,479.463405 42.9223478,480.951017 45.1026645,482.639455 C47.2829812,484.327894 48.5692379,484.426448 49.7588395,483.037391 C50.9465824,481.646475 53.4242995,479.362992 55.6027574,481.149985 C57.7830741,482.936977 57.7830741,483.236359 59.4671039,481.746889 C61.1511337,480.257418 65.7366762,477.224551 67.3965422,477.224551 C69.0564082,477.224551 78.4672721,467.70012 78.7442263,463.631504 C79.0211804,459.562887 77.5453309,451.888673 74.5917732,452.165741 C71.6419329,452.442809 69.7943329,452.812852 69.5173788,450.871519 C69.2422834,448.930187 68.7813128,444.398551 67.4894798,445.508681 C66.1976468,446.618811 66.2905844,446.802903 65.0898303,446.618811 C63.8909349,446.43286 62.7831184,448.65126 62.7831184,446.894019 C62.7831184,445.138638 63.244089,443.290281 62.2310689,444.214459 C61.21619,445.138638 59.3704488,445.969841 60.2013112,444.675619 C61.0321735,443.381397 63.0619313,440.422911 62.7831184,439.035713 C62.508023,437.648516 60.8462983,436.631362 61.6771607,435.430116 C62.508023,434.22701 62.876056,432.00861 62.876056,431.175548 C62.876056,430.344345 64.167889,430.528437 64.167889,432.101586 C64.167889,433.672875 65.6437385,442.273127 66.751555,439.589848 C67.8575128,436.908429 69.4262999,431.268523 67.8575128,430.435461 C66.2905844,429.604259 61.6771607,426.368704 60.9392359,427.106931 C60.2013112,427.847018 56.8797204,428.403013 56.048858,427.755902 C55.2198544,427.106931 54.7588838,424.611464 53.0971591,425.81271 C51.4354343,427.015815 48.7606894,428.125945 49.7755683,425.905685 C50.7904472,423.687285 50.7904472,423.594309 49.7755683,422.48418 C48.7606894,421.37405 48.2997188,420.449871 48.4855941,418.878582 C48.6696106,417.307293 49.0376436,416.197163 48.1157023,414.809966 C47.1937611,413.422768 44.2402033,410.557257 44.5171574,409.354152 C44.7941116,408.152906 46.3628987,410.187214 47.1937611,411.204368 C48.0246234,412.221522 51.1603389,413.885787 50.8833848,411.572552 C50.6064307,409.261176 51.2514178,408.244022 51.7123884,407.596911 C52.1752178,406.9498 51.2514178,401.772914 52.1752178,402.049981 C53.0971591,402.327049 53.5581297,401.772914 53.5581297,403.807222 C53.5581297,405.839671 53.3741132,409.17006 54.6659462,408.336998 C55.9577792,407.505795 55.5878874,406.211573 55.5878874,404.822516 C55.5878874,403.437179 54.9429003,402.605976 56.7867828,402.790068 C58.632524,402.97416 60.5693442,402.420024 60.7552194,405.101443 C60.9392359,407.782863 61.584223,407.412819 63.1530102,406.579757 C64.7217973,405.748554 66.1065679,405.932646 65.2757055,407.042776 C64.4448432,408.152906 59.0934947,409.817171 58.7236029,412.591566 C58.3555699,415.364101 55.3109333,417.491385 57.708724,417.214317 C60.1083735,416.93725 65.3667844,412.868633 68.2274045,412.959749 C71.0880247,413.052725 76.162419,413.052725 76.530452,415.641168 C76.898485,418.231471 79.8520428,421.282934 80.2200758,418.508539 C80.5899675,415.734144 80.0360593,415.550052 81.0509381,413.052725 C82.065817,410.557257 83.8186206,406.488641 80.8650629,407.226868 C77.9152227,407.966954 75.7925273,408.615925 74.1308025,408.152906 C72.4709365,407.689887 69.4262999,406.302689 69.3333623,405.008468 C69.2422834,403.714246 67.3965422,404.454333 66.9355715,404.638425 C66.4746009,404.822516 62.2310689,404.361357 62.2310689,403.344203 C62.2310689,402.327049 63.3370267,400.662784 64.3519055,401.125803 C65.3667844,401.586962 67.119588,401.586962 67.4894798,399.554513 C67.8575128,397.518346 71.3073575,396.040032 71.4616339,394.264196 C71.6159104,392.49022 71.6921192,391.718522 70.229281,390.175125 C68.7664428,388.631729 66.2273868,386.238534 66.2273868,384.464558 C66.2273868,382.690582 66.6121486,382.227563 67.3816721,383.153601 C68.1511957,384.079639 70.1530721,383.38604 69.9987957,381.610204 C69.8445192,379.836228 70.034112,378.843247 68.8816854,377.625266 C67.7292589,376.405425 65.6158572,373.517599 65.8723651,373.002514 C66.1288729,372.489288 69.5861526,368.253316 70.1623659,369.342991 C70.7385792,370.434525 70.7385792,369.858076 70.034112,371.782673 C69.3296448,373.709129 69.0749957,376.596954 69.9709144,377.560183 C70.8668331,378.521551 71.5081027,377.30357 72.2125699,376.275259 C72.9170371,375.248807 74.9653824,373.772353 73.7478995,376.275259 C72.5322754,378.780024 72.0192597,379.356473 72.0192597,381.796155 C72.0192597,384.235838 71.6995542,385.775515 73.2999402,383.720752 C74.9003261,381.667849 75.1586927,380.126312 75.8631599,380.832927 C76.5657683,381.539543 75.0304387,382.759384 75.989555,382.822607 C76.9505301,382.88769 77.7832512,382.309381 77.3352919,383.207527 C76.8854738,384.105672 75.2850878,383.399056 75.2218903,384.427368 C75.1586927,385.453819 77.5917997,383.785835 77.7832512,385.133983 C77.9747027,386.482131 77.0155864,388.215198 76.117809,387.573665 C75.2218903,386.930273 72.6586705,384.942453 72.6586705,386.738743 C72.6586705,388.535034 72.2757675,391.166246 73.8780122,391.616248 C75.4783981,392.066251 76.3743168,391.553025 78.7442263,392.771007 C81.1141357,393.990848 82.7777192,393.414398 83.6104404,392.192698 C84.4431615,390.974716 85.4691929,389.304873 86.1718013,390.65302 C86.8762685,392.001168 90.3186782,396.149743 83.747988,396.291066 C77.1772979,396.43053 72.842687,396.222264 75.4282118,398.182192 C78.0155953,400.143979 80.2535333,397.27103 80.3223072,399.865052 C80.3929398,402.457215 82.6977929,406.170664 85.1457699,403.156392 C87.5918883,400.143979 85.9152935,399.164016 86.8242235,397.551817 C87.7331534,395.941478 91.2647832,391.720381 90.0937691,389.306732 C88.9208963,386.893083 87.8799949,385.587704 88.2703329,383.694719 C88.6606709,381.803593 88.5956146,380.758547 89.4432058,382.3912 C90.2889382,384.021994 91.1346705,382.716615 91.1346705,384.739766 C91.1346705,386.762917 90.3539945,389.501981 91.852149,388.523877 C93.3484448,387.543913 97.5808243,377.431876 100.575275,376.84427 C103.569725,376.256663 102.982359,375.148393 105.978668,376.451912 C108.973118,377.757291 112.580957,377.162247 114.346772,375.985174 C116.108869,374.808102 118.854247,374.612853 120.748316,374.743019 C122.644243,374.875045 126.694465,370.626055 127.151718,369.448983 C127.608971,368.271911 125.975128,367.944636 124.995565,368.991543 C124.016003,370.036589 120.356119,373.565947 120.356119,371.738045 C120.356119,369.906423 120.618203,368.336994 120.618203,366.769423 C120.618203,365.199994 121.402597,365.462185 122.252046,365.527268 C123.101496,365.592351 124.733481,362.847709 125.713044,364.024781 C126.694465,365.199994 128.458421,366.049792 128.523477,367.096698 C128.588534,368.141745 128.588534,368.664268 129.698209,368.534102 C130.809743,368.403936 131.20194,369.514066 130.090406,370.103532 C128.980731,370.691138 130.939856,371.213662 133.293036,371.213662 C135.644358,371.213662 141.590508,368.664268 139.369298,368.141745 C137.148089,367.619221 132.965896,364.417138 134.599739,364.742553 C136.233583,365.069828 138.912045,366.311983 140.413917,365.199994 C141.917648,364.089864 142.309845,363.892755 142.24293,365.462185 C142.177873,367.031615 141.830287,367.85166 144.107259,368.041331 C146.38423,368.231001 147.899114,368.041331 146.003186,370.507046 C144.107259,372.974621 142.209472,375.821537 146.003186,374.302314 C149.7969,372.784951 152.073872,368.041331 153.969799,368.041331 C155.867586,368.041331 154.514414,364.417138 153.471654,365.380366 C152.430752,366.343595 149.627753,368.028314 149.467901,366.905168 C149.308048,365.780162 148.265288,364.015483 150.508802,363.372091 C152.752316,362.730559 153.713292,361.687372 155.153825,363.372091 C156.596217,365.058671 160.200338,364.978711 159.319289,363.853706 C158.43824,362.730559 155.875021,361.445635 156.596217,360.402448 C157.317413,359.35926 158.276529,359.760915 159.319289,358.877646 C160.362049,357.994377 160.200338,358.316073 160.362049,359.600997 C160.520043,360.884062 160.520043,363.292132 161.482877,363.292132 C162.443852,363.292132 162.763558,363.533869 162.202214,364.657016 C161.640871,365.780162 161.323024,368.108273 163.404827,366.905168 C165.48663,365.700203 167.248727,364.657016 168.611193,365.700203 C169.9718,366.74339 175.977429,365.620244 173.975553,364.175401 C171.973676,362.730559 169.9718,362.810518 170.852848,362.009068 C171.733897,361.203898 172.135388,359.840874 173.414209,361.687372 C174.696749,363.533869 177.100116,366.985127 177.661459,365.780162 C178.220943,364.577056 179.101992,358.637769 181.745138,357.994377 C184.388284,357.352845 189.113233,358.234254 189.033307,355.746225 C188.95338,353.258195 189.674576,347.96044 188.072332,347.718703 C186.470087,347.478826 180.944016,345.150714 180.784163,343.06434 C180.62431,340.976106 181.26558,342.500907 183.427309,342.902562 C185.589038,343.304217 186.150382,343.384176 187.03143,342.500907 C187.912479,341.617638 188.95338,341.617638 189.674576,342.420948 C190.395772,343.224258 190.635552,344.749059 192.557502,343.785831 C194.479452,342.822603 196.403261,342.019293 195.522212,344.187486 C194.639304,346.35382 193.118845,349.647019 193.038919,350.610247 C192.958992,351.571616 195.3605,351.090002 196.882819,351.010043 C198.405137,350.930084 201.527841,352.776581 198.96648,353.819768 C196.403261,354.862956 193.43855,353.899727 193.598403,356.067921 C193.760114,358.236114 194.239673,358.475991 192.799139,360.322489 C191.356747,362.168986 191.836306,364.898752 194.960869,362.730559 C198.083573,360.562366 201.607768,357.432804 202.728595,357.914418 C203.849423,358.396032 209.057648,357.352845 209.2175,355.184652 C209.377353,353.016458 208.576231,351.653435 206.973986,352.85654 C205.3736,354.061505 204.091061,354.141464 202.650528,352.294967 C201.208136,350.44847 200.968357,349.163546 201.687694,347.558785 C202.40889,345.954024 201.288062,345.55051 204.97211,344.6691 C208.656157,343.785831 210.018623,342.019293 206.973986,342.019293 C203.931208,342.019293 201.447915,339.691182 201.447915,338.16638 C201.447915,336.641579 202.650528,335.196736 202.808522,336.721538 C202.970233,338.246339 203.45165,339.371345 205.211889,340.012877 C206.973986,340.65441 208.016746,339.932918 206.814133,339.129608 C205.613379,338.328158 203.611503,337.36307 205.052036,336.801497 C206.494428,336.239924 206.654281,337.043234 207.695182,336.401701 C208.736084,335.75831 210.659892,334.715122 210.258402,335.918228 C209.856911,337.123193 208.656157,341.295942 210.739819,341.215983 C212.821622,341.136024 216.745448,338.887872 219.068889,339.209567 C221.392329,339.531263 223.31428,339.852959 223.554059,337.924643 C223.793838,335.998187 224.435107,335.838269 225.154444,336.080006 C225.877499,336.319883 226.117278,337.283111 225.476009,338.96969 C224.834739,340.65441 223.152568,343.304217 224.754813,345.150714 C226.357057,346.997212 227.879376,349.726978 230.602448,349.806937 C233.325521,349.886896 235.247471,348.200317 237.329273,347.398867 C239.411076,346.595557 242.054222,348.681931 242.29586,344.829019 C242.535639,340.976106 241.734517,330.378736 240.935253,329.417367 C240.132272,328.454139 239.33115,324.119612 239.011445,322.271255 C238.691739,320.424758 240.132272,316.252009 241.254959,315.930313 C242.375787,315.608617 242.535639,316.653664 242.215934,318.098506 C241.89437,319.543348 240.453836,324.761144 241.974296,326.445864 C243.498473,328.132443 245.258712,327.089256 247.020809,326.527682 C248.782906,325.96425 249.262465,326.205987 249.262465,325.001022 C249.262465,323.797916 249.905593,322.67291 250.626789,323.957834 C251.346126,325.242758 252.468813,325.884291 250.305225,327.007437 C248.143496,328.132443 244.617442,328.773975 244.457589,331.022128 C244.297737,333.27028 241.734517,338.086421 246.459466,338.488076 C251.186273,338.887872 251.827543,342.420948 254.149125,343.304217 C256.472566,344.187486 257.755105,344.829019 259.916834,342.662685 C262.078563,340.494492 262.320201,341.217843 262.320201,338.568035 C262.320201,335.918228 263.119465,335.596532 264.641783,335.196736 C266.164101,334.795081 268.086051,332.387011 268.887174,331.182046 C269.686437,329.977081 271.290541,326.445864 272.731074,326.365905 C274.173466,326.285946 275.534073,323.394402 275.534073,324.841103 C275.534073,326.285946 275.853778,331.66366 278.976482,333.350239 C282.101045,335.036818 282.180972,334.153549 284.182848,332.546929 C286.186583,330.942169 286.344577,330.138859 286.907779,328.694016 C287.469123,327.249174 286.907779,327.57087 288.508165,327.089256 C290.112269,326.607642 290.352048,325.080981 289.470999,324.199571 C288.588092,323.314442 286.186583,320.506576 287.227485,320.18488 C288.268386,319.865044 288.749803,318.258424 287.868754,316.893541 C286.987706,315.528658 285.545314,313.120587 287.067632,311.837522 C288.588092,310.552598 294.677365,303.08665 293.634605,300.196965 C292.593703,297.307281 292.471026,293.958296 292.552811,291.128116 C292.636455,288.297936 290.145726,280.223926 291.142018,280.307604 C292.140168,280.391282 293.632746,279.809255 294.049107,282.804932 C294.463608,285.800608 293.632746,295.708099 294.298179,297.954391 C294.961754,300.200684 296.125333,301.450278 297.537985,299.618656 C298.950637,297.787035 301.439507,294.542183 301.688579,292.210353 C301.939511,289.880382 302.355872,287.548552 302.437657,289.962201 C302.519442,292.377709 302.684871,296.457483 301.688579,297.954391 C300.692288,299.4513 298.61792,300.951928 298.61792,302.78169 C298.61792,304.613311 297.104896,312.731949 298.242452,314.803447 C299.380009,316.876805 300.723887,318.948304 301.963675,320.500998 C303.205321,322.055551 303.515733,323.610105 304.341019,325.992142 C305.166305,328.37418 306.20163,329.928733 307.958152,331.379154 C309.716531,332.829575 312.298339,332.725442 311.887554,329.824601 C311.473053,326.923759 310.852229,324.748128 309.508351,325.162799 C308.166332,325.577471 307.235097,324.541722 306.822454,325.785736 C306.407952,327.027892 305.166305,325.058666 304.855894,323.712378 C304.547341,322.36609 302.274086,320.915669 305.270395,321.330341 C308.268563,321.745013 307.958152,320.500998 307.958152,318.635905 C307.958152,316.770813 307.337328,316.253868 308.681206,315.218119 C310.026943,314.18237 308.268563,308.17428 309.30203,309.312303 C310.335496,310.452185 310.852229,312.938355 310.852229,315.011713 C310.852229,317.083211 309.612441,318.635905 311.058551,318.533632 C312.506519,318.429499 312.196107,318.740038 313.333664,319.775787 C314.469362,320.811537 320.672019,321.745013 321.186893,320.190459 C321.705485,318.635905 320.567929,315.528658 321.601395,315.113986 C322.63672,314.701174 321.705485,314.078237 319.844874,313.457159 C317.984263,312.836081 314.058577,309.312303 315.504687,307.44907 C316.950796,305.583977 319.224051,304.339962 318.294674,302.993674 C317.365298,301.647386 321.543774,303.030865 323.740819,304.496161 C325.937865,305.961458 326.963896,304.204218 328.722276,304.496161 C330.478797,304.789965 330.77248,302.885822 330.919321,300.687877 C331.066163,298.488072 331.357987,302.738921 332.822684,300.979821 C334.287381,299.22072 336.339444,298.928777 336.045761,296.730831 C335.752078,294.532886 333.995557,293.947139 335.752078,293.361392 C337.510458,292.773786 338.220501,291.539068 337.084804,290.11654 C335.949106,288.694012 339.638729,288.125001 338.220501,286.843796 C336.802273,285.562591 334.529019,284.424568 333.252056,283.855557 C331.973234,283.288405 332.400747,281.438189 333.536445,279.018961 C334.670284,276.599734 335.949106,270.907761 334.246488,270.197427 C332.542012,269.485233 332.400747,266.78336 331.973234,264.648638 C331.549439,262.513916 329.134919,260.23787 329.134919,260.23787 C329.134919,260.23787 330.270617,258.103149 332.400747,259.810182 C334.529019,261.519076 336.659149,263.082927 337.653582,261.091387 C338.646156,259.099848 334.529019,255.827103 333.818975,254.830404 C333.110791,253.835564 322.605121,246.721064 325.017782,246.721064 C327.432302,246.721064 328.142345,246.577881 329.703697,248.284915 C331.263191,249.993808 337.369193,253.976887 337.653582,251.842165 C337.936112,249.707443 336.233495,246.152052 333.536445,245.724364 C330.839395,245.296676 329.560573,243.448319 329.276184,241.598103 C328.993654,239.749746 327.999221,236.049313 327.999221,234.769968 C327.999221,233.488763 329.134919,224.524046 326.296604,223.101518 C323.45643,221.67899 322.322591,220.113279 319.908072,219.971956 C317.493552,219.830633 314.796502,217.409546 317.069756,217.409546 C319.339293,217.409546 319.339293,217.694051 322.605121,218.975256 C325.87095,220.256462 330.411882,221.537667 330.98066,223.670529 C331.549439,225.805251 331.549439,230.072836 332.967667,229.362501 C334.387754,228.650307 336.233495,226.517445 336.233495,228.224479 C336.233495,229.931513 335.523451,234.911291 336.802273,233.34558 C338.077377,231.781729 340.776286,230.926352 339.638729,233.631945 C338.50489,236.333819 336.37476,238.327218 336.802273,240.887769 C337.226069,243.448319 336.517884,245.01403 339.214934,246.152052 C341.911984,247.290075 342.478903,248.997109 343.045823,250.419637 C343.614601,251.842165 343.473336,251.985348 345.460342,251.557659 C347.447349,251.131831 350.001275,248.855786 351.564486,252.554359 C353.125838,256.254792 351.138831,259.097988 353.835881,261.944904 C356.532931,264.789961 355.822888,267.921382 358.947451,268.918082 C362.070155,269.912921 363.347118,270.907761 362.354544,273.326989 C361.360111,275.746217 360.650068,277.45325 362.495809,277.45325 C364.34155,277.45325 364.34155,273.042483 368.033033,272.90116 C371.722657,272.757978 374.84722,273.611495 377.685535,273.185666 C380.52385,272.757978 381.168837,268.96085 382.291523,267.724274 C383.41421,266.489556 384.536897,266.377985 384.536897,267.276131 C384.536897,268.174276 385.771108,270.195568 389.923561,268.062705 C394.074156,265.927983 393.851105,266.827988 395.984953,266.827988 C398.115084,266.827988 402.82888,263.233547 404.849344,264.245123 C406.869808,265.254839 409.338231,267.276131 411.022261,269.072421 C412.706291,270.868712 412.817816,270.195568 412.817816,273.563147 C412.817816,276.932587 413.15425,279.402021 415.06133,277.269159 C416.970269,275.134437 418.42939,275.69601 419.888511,275.69601 C421.345773,275.69601 426.022394,273.01645 422.494482,271.199705 C418.968428,269.3811 416.548332,268.371384 414.736049,268.371384 C412.920047,268.371384 411.308509,266.855881 414.633817,266.450507 C417.960984,266.048852 422.395968,261.905854 420.682198,261.096966 C418.968428,260.289937 412.719302,262.108542 413.927491,259.886422 C415.137539,257.664303 415.64312,256.048386 417.658008,256.048386 C419.672895,256.048386 419.269546,255.442184 418.159871,255.03867 C417.053913,254.633296 415.64312,252.308903 417.658008,252.208489 C419.672895,252.108076 428.139513,248.370453 430.961099,247.764251 C433.782686,247.15805 435.697201,248.067352 436.10055,246.148333 C436.503899,244.229315 436.90539,243.016912 438.318042,244.63283 C439.728835,246.250607 442.544845,247.678713 439.134034,248.909712 C435.721365,250.14071 432.169289,252.466962 433.53733,254.108913 C434.901655,255.750863 433.673019,256.710373 433.673019,258.761416 C433.673019,260.81432 433.808708,265.466824 435.446269,266.013521 C437.085689,266.560218 443.912887,263.687269 444.868286,265.466824 C445.821826,267.244519 446.914772,271.350326 448.689881,269.297422 C450.46499,267.244519 447.734482,264.780663 449.372043,262.182922 C451.009604,259.583322 453.740111,256.570909 451.009604,255.204166 C448.279097,253.835564 443.775339,252.604566 444.184265,251.100219 C444.59319,249.594013 445.275353,249.320664 446.096921,250.14071 C446.914772,250.962615 448.963118,251.918405 450.191753,250.825011 C451.420388,249.731617 451.145293,250.414058 452.102551,252.331217 C453.057949,254.246517 453.877659,257.119466 456.608167,255.339911 C459.338674,253.562215 457.426018,252.193613 459.065437,251.235964 C460.702998,250.278314 460.292214,250.14071 459.065437,248.909712 C457.836802,247.678713 459.591464,247.634085 458.632348,246.092548 C457.671373,244.552871 456.966906,243.202863 458.8238,244.679317 C460.680693,246.157631 460.617496,246.92747 462.6677,246.477467 C464.717904,246.027465 467.59897,245.516099 469.007905,246.607633 C470.418698,247.697309 471.699378,248.980373 471.571124,246.477467 C471.441012,243.974562 471.954027,242.754721 473.682667,242.691497 C475.413166,242.626414 475.926182,244.102868 477.335116,242.498108 C478.74405,240.893347 477.528426,240.508428 479.065615,239.608423 C480.600944,238.710278 487.199516,237.105517 481.563778,241.728269 C475.926182,246.349161 474.388993,247.503919 475.09346,248.019004 C475.797928,248.53223 480.859311,245.451016 482.586092,246.349161 C484.31659,247.249166 487.933723,247.892558 489.32407,247.892558 C490.716275,247.892558 494.671701,248.535949 492.106622,250.14071 C489.539685,251.74547 487.292453,249.499178 486.008055,250.460546 C484.725516,251.423774 485.04708,252.922543 486.86494,254.633296 C488.6828,256.345908 493.175405,256.239916 495.314829,255.490531 C497.454253,254.741147 499.701485,254.633296 501.625294,256.881448 C503.550961,259.127741 505.582578,261.162049 505.262872,258.486208 C504.941308,255.812227 503.550961,255.490531 505.368821,253.350231 C507.186681,251.20993 507.82981,248.855786 505.796334,250.032858 C503.764718,251.20993 503.229397,249.60517 503.229397,250.996086 C503.229397,252.387003 503.229397,254.633296 501.731243,252.494855 C500.234947,250.354554 498.523036,250.248562 500.770268,248.214253 C503.015641,246.181805 503.764718,244.041504 504.405988,242.328892 C505.047257,240.61628 506.223848,239.333215 505.047257,240.296443 C503.872526,241.259671 499.805575,242.328892 499.805575,241.043968 C499.805575,239.760903 501.517486,234.83877 501.625294,236.97907 C501.731243,239.119371 502.160615,240.510287 505.047257,238.905527 C507.935759,237.300766 510.288939,236.871218 512.534312,234.411082 C514.781544,231.949085 516.91911,231.199701 518.952585,231.199701 C520.98606,231.199701 522.268599,231.735241 520.021367,232.590617 C517.775994,233.447853 511.46553,236.551382 512.428363,237.085063 C513.391197,237.620603 519.274149,240.724131 520.878252,240.831983 C522.480497,240.937975 525.368998,240.61628 525.79837,243.719808 C526.225883,246.823337 526.012127,247.786565 525.582755,246.501641 C525.157101,245.218577 523.44519,243.398112 523.658946,245.538413 C523.870844,247.678713 524.086459,249.499178 526.118076,248.641942 C528.149692,247.786565 527.508423,245.110725 530.07536,244.683036 C532.642297,244.255348 538.4193,242.864432 540.666532,241.15182 C542.911905,239.441067 543.553174,239.333215 544.729765,239.441067 C545.906355,239.547059 546.014163,238.691683 544.943521,238.156143 C543.87288,237.620603 543.339418,237.085063 544.621957,236.871218 C545.906355,236.657374 549.434267,236.657374 547.296702,235.266458 C545.157278,233.875542 542.162827,232.270781 543.017854,231.629249 C543.87288,230.987716 544.621957,230.666021 546.014163,231.949085 C547.40451,233.234009 549.649883,233.447853 550.932422,233.769549 C552.214961,234.089386 550.932422,234.732777 549.863639,236.337538 C548.794856,237.942299 547.618266,239.333215 549.008613,240.188591 C550.39896,241.043968 552.644333,239.974747 554.03468,238.156143 C555.425027,236.337538 557.672258,232.806321 559.062605,231.629249 C560.452952,230.452176 565.051506,228.633572 564.302429,227.456499 C563.553351,226.279427 563.767108,224.674667 565.265262,225.743887 C566.763417,226.813108 569.438162,230.457755 571.70584,230.230894 C573.971659,230.004034 575.782084,227.739146 577.93452,228.191007 C580.088814,228.644729 581.672471,228.531299 582.579542,226.491412 C583.486613,224.451525 581.220794,222.751929 582.23939,222.525069 C583.259846,222.298208 584.507069,224.224664 586.317493,222.751929 C588.131636,221.277335 588.469929,220.712042 587.564716,218.672156 C586.657645,216.632269 586.544261,214.02523 586.544261,211.985344 C586.544261,209.945457 587.6781,207.90557 589.377,206.886556 C591.0759,205.865683 591.640961,203.373935 590.395596,203.031784 C589.150232,202.693353 589.150232,202.353061 588.016393,203.258645 C586.884413,204.166088 584.958745,203.939227 584.165058,202.806783 C583.373229,201.672479 584.051674,200.993757 585.185513,201.105328 C586.317493,201.218758 592.7748,200.653466 592.7748,202.353061 C592.7748,204.052657 591.867728,209.493595 594.813851,206.432835 C597.758115,203.373935 600.817622,200.540035 602.743289,201.105328 C604.668957,201.672479 606.709867,203.485505 607.276787,202.693353 C607.841848,201.89934 607.841848,200.880326 606.594625,200.086314 C605.34926,199.292302 602.516522,198.159858 603.196825,196.233401 C603.87527,194.306945 604.442189,193.626363 603.423593,193.172641 C602.403138,192.720779 598.891954,190.792463 599.685642,190.113741 C600.47747,189.433159 600.590854,188.641006 601.724693,189.206298 C602.858532,189.77345 605.122493,191.699906 607.501696,188.073854 C609.880899,184.447802 614.183911,177.307268 614.072386,174.70023 C613.959002,172.095051 613.165315,168.353709 614.637447,166.767543 C616.109579,165.181378 613.393941,165.294808 615.31775,163.595213 C617.243418,161.893757 618.037105,161.893757 618.150489,163.141491 C618.263873,164.387366 619.622621,166.880974 621.094753,166.086961 C622.568744,165.294808 626.644988,164.162364 628.005595,165.635099 C629.364343,167.107834 630.15803,168.126848 630.271414,169.601443 C630.384798,171.074178 631.518637,171.75476 633.55583,169.601443 C635.594881,167.448126 637.974085,164.727657 639.446217,164.614226 C640.920207,164.500796 639.219449,163.595213 637.068872,163.481782 C634.916437,163.368352 629.953568,159.428042 628.691475,156.904682 C627.429382,154.379462 624.908913,148.492241 624.908913,146.247807 C624.908913,144.005233 624.626383,139.938476 623.226742,137.275653 C621.825243,134.610969 620.423743,130.123962 618.600307,127.600602 C616.77873,125.077241 614.815887,123.113594 616.07798,120.729698 C617.340073,118.345801 623.786227,112.598043 621.2639,110.915183 C618.739714,109.232323 613.696918,103.484565 613.274981,101.240132 C612.853044,98.9975583 613.414388,94.5105512 611.033326,93.948978 C608.650405,93.3892643 608.230327,91.4256176 608.369733,88.4820071 C608.510999,85.536537 604.3065,84.5565732 603.183814,84.5565732 C602.062986,84.5565732 601.081565,80.4898162 601.92358,77.124096 C602.763736,73.7583758 605.00725,72.3581618 604.445907,70.5358382 C603.884564,68.711655 600.661487,65.7680445 600.661487,68.2914049 C600.661487,70.8147653 598.698644,70.9560883 596.315723,70.9560883 C593.934661,70.9560883 586.085149,70.3945151 585.105587,72.3581618 C584.122307,74.319949 582.161323,76.7038459 580.337887,74.7401992 C578.518168,72.778412 579.079511,69.1319052 577.256075,67.0287949 C575.434497,64.9256847 574.594341,63.3841476 571.650077,62.6831109 C568.707672,61.9820741 565.203924,59.036604 566.884236,57.9153171 C568.566407,56.7940303 572.770905,53.42831 570.107313,52.4464867 C567.445579,51.4665228 567.164908,52.8685963 565.062658,55.1111701 C562.960409,57.3556035 561.839582,58.8971405 558.616505,58.3355673 C555.391569,57.7758536 556.793068,53.8485602 553.148055,53.8485602 C549.5049,53.8485602 546.982573,53.8485602 545.160995,54.2706699 C543.339418,54.69092 540.116341,52.8685963 538.714842,51.7473095 C537.313342,50.624163 533.24825,47.6805525 529.883908,47.6805525 C526.519566,47.6805525 525.118067,47.6805525 526.240753,49.082626 C527.361581,50.4846995 529.043752,51.886773 527.08091,52.3070231 C525.118067,52.7272733 524.277911,51.7473095 523.296489,50.345236 C522.316927,48.9431624 521.19424,48.8018394 519.932147,51.6059864 C518.673772,54.4101334 515.307571,63.2446841 516.850336,64.7862211 C518.391242,66.3277582 518.391242,67.4490451 518.391242,69.8329419 C518.391242,72.2168388 519.374522,74.4594126 521.054834,75.4412359 C522.737005,76.4230593 524.138504,79.6474564 521.755584,80.3484932 C519.374522,81.0495299 515.028758,83.1544997 512.787103,82.4516034 C510.543588,81.7505667 509.701573,78.1059194 506.478497,77.5462057 C503.25542,76.9846325 499.471,73.8996989 498.772109,72.0773752 C498.0695,70.2550516 491.623347,62.4023243 489.240426,62.8225744 C486.857505,63.2446841 485.454147,63.5254707 485.175334,65.3459348 C484.896521,67.1682585 483.913241,68.0106183 482.091664,66.6085448 C480.270086,65.2064713 479.989415,65.0670077 477.608353,66.0469716 C475.225432,67.0287949 470.320184,69.2732282 468.357341,70.8147653 C466.396357,72.3581618 466.113827,70.8147653 465.273671,72.2168388 C464.433515,73.6189123 461.349844,72.9178755 460.227158,71.6571251 C459.108189,70.3945151 458.268033,71.0955519 456.02266,71.6571251 C453.781004,72.2168388 453.080254,73.4794487 451.258677,73.1986621 C449.437099,72.9178755 446.212164,74.1804855 446.212164,76.0028091 C446.212164,77.8251328 446.212164,82.8737131 443.970508,82.5929265 C441.728853,82.3121399 436.403527,78.1059194 433.598669,79.928243 C430.79567,81.7505667 431.918357,84.6960367 430.375592,85.2576099 C428.834687,85.8173236 427.152515,85.8173236 426.310501,84.1344635 C425.470344,82.4516034 424.909001,82.0313533 422.948017,83.2939632 C420.985175,84.5565732 419.163597,85.3970735 416.219333,85.2576099 C413.276928,85.1162869 411.033414,85.9567872 409.07243,87.9204339 C407.109587,89.8840806 404.167182,88.340684 403.327026,86.9386105 C402.485011,85.536537 400.382762,82.3121399 398.0017,82.0313533 C395.61692,81.7505667 395.196842,82.0313533 394.776764,79.928243 C394.356686,77.8251328 391.553687,77.2654191 389.590845,76.1441322 C387.629861,75.0209858 384.265519,73.3381257 387.349189,72.9178755 C390.431001,72.4976254 397.579763,69.4126918 398.419919,66.1882946 C399.261934,62.9638975 399.261934,58.757677 401.364183,58.3355673 C403.466432,57.9153171 404.167182,56.7940303 403.745245,54.69092 C403.327026,52.5878097 403.605839,47.1189793 406.550103,45.1571921 C409.492508,43.1935454 411.734163,43.1935454 413.838271,40.2480753 C415.94052,37.3044648 416.920083,35.2013545 418.604113,36.603428 C420.284425,38.0055015 422.667346,35.3426776 424.490782,34.0800676 C426.310501,32.8174577 426.732437,32.257744 428.693421,32.3972075 C430.656264,32.5366711 431.078201,31.2759206 429.955514,30.1546337 C428.834687,29.0333468 427.291922,28.4717736 428.554015,25.38684 C429.816108,22.3019064 433.178591,13.7500019 429.254765,13.7500019 C425.330938,13.7500019 422.247268,14.028929 421.405253,12.4873919 C420.565097,10.9458549 420.145018,9.96403151 418.462847,9.96403151 C416.780676,9.96403151 417.620833,4.77598765 414.678427,6.31752469 C411.734163,7.86092125 407.810337,8.14170786 405.990618,10.2448181 C404.167182,12.3479284 403.187619,15.0107523 401.083511,14.4510386 C398.981262,13.8894654 394.916171,10.9458549 394.356686,11.9258187 C393.795343,12.9076421 395.758185,16.6936124 393.375265,16.6936124 C390.992344,16.6936124 383.003426,15.7136486 380.200427,16.6936124 C377.399287,17.6754358 372.49218,20.8998329 372.49218,18.5159361 C372.49218,16.1338987 374.875101,12.6268554 372.914117,11.0853184 C370.951274,9.54378136 369.549775,7.29934805 369.549775,5.4770244 C369.549775,3.65470075 366.466105,1.41026744 364.363855,2.53341385 C362.261606,3.65470075 360.999513,6.17806115 359.458608,8.2811714 C357.915843,10.3842817 355.393516,14.5905022 352.590517,14.170252 C349.787518,13.7500019 348.807956,11.6468916 345.162942,13.4692153 C341.519787,15.2915389 337.59596,16.6936124 335.911931,15.5723255 C334.231618,14.4510386 332.549447,12.3479284 328.484356,12.3479284 C324.421123,12.3479284 321.337452,12.3479284 319.514016,9.54378136 C317.694297,6.73777484 312.787191,-0.272592665 310.684942,0.00819393843 C308.582692,0.288980541 306.199772,0.288980541 304.378194,1.69105404 C302.556617,3.09312754 299.052868,1.41026744 299.052868,4.49520105 C299.052868,7.58013465 298.911603,8.70142155 296.530541,9.26299475 C294.14762,9.82456796 293.024934,14.170252 290.361342,14.3097156 C287.699608,14.4510386 285.177281,14.5905022 284.056453,16.1338987 C282.933766,17.6754358 282.233017,20.0593326 280.132626,19.0775093 C278.030377,18.0956859 275.645598,16.5541489 275.645598,18.3764725 C275.645598,20.1987962 274.385364,23.4250528 277.190221,25.1060534 C279.991361,26.7889135 281.532267,26.3686634 284.056453,26.2273403 C286.57878,26.0878768 289.242373,27.7707369 288.402216,29.1728104 C287.560201,30.5748839 283.075032,32.8174577 285.177281,35.4821411 C287.27953,38.1468246 286.158702,42.211722 286.998858,44.7350824 C287.840873,47.2584428 288.820436,51.7473095 285.87803,52.8685963 C282.933766,53.9898832 276.067535,56.5132436 274.385364,55.95353 C272.703193,55.3919567 268.500553,49.2220895 268.359288,46.4179425 C268.218023,43.6137955 266.117632,35.061891 263.732853,35.061891 C261.351791,35.061891 258.128714,34.5003178 255.743935,34.7811044 C253.362873,35.061891 250.418609,34.0800676 248.738296,32.8174577 C247.056125,31.5567072 243.552377,26.5081269 239.067207,27.7707369 C234.582037,29.0333468 233.600616,29.453597 230.797617,27.7707369 C227.994618,26.0878768 223.79012,25.1060534 223.509449,28.7525602 C223.230636,32.3972075 222.388621,37.5852514 220.146965,40.5288619 C217.90531,43.474332 218.604201,47.1189793 219.866294,48.5210528 C221.126528,49.9231263 224.351463,54.1293468 222.808699,56.5132436 C221.267793,58.8971405 220.425778,60.299214 217.764044,60.8607872 C215.100452,61.4205009 212.578125,65.6267214 210.475876,66.7480083 C208.373627,67.8711547 200.946052,75.0209858 201.925614,78.1059194 C202.907036,81.190853 206.691456,83.4352863 207.392205,85.6778601 C208.092955,87.9204339 205.570628,91.0053675 207.672877,92.8276911 C209.775126,94.6500148 210.336469,94.7913378 212.01864,98.2965216 C213.698953,101.801705 213.139468,105.026102 210.475876,106.989749 C207.812284,108.951536 198.143053,114.701153 197.862381,118.345801 C197.58171,121.992308 197.442303,126.337992 200.384708,129.984498 C203.328972,133.629146 205.15055,137.556439 201.646801,139.23744 C198.143053,140.9203 195.899539,142.041587 195.059383,143.86577 C194.217368,145.688094 194.778711,150.314564 191.836306,150.734814 C188.892042,151.155064 180.483045,150.454028 178.800874,152.278211 C177.120562,154.098675 177.259968,155.361285 178.100125,157.745182 C178.942139,160.129079 178.800874,166.577873 175.717204,167.420233 C172.635392,168.260733 168.709707,169.242556 166.888129,172.046703 C165.066552,174.85085 165.48663,179.057071 162.263553,181.440968 C159.040476,183.824865 155.395463,190.835232 155.114791,192.798879 C154.834119,194.760666 155.256056,206.959077 155.256056,209.902688 C155.256056,212.848158 154.834119,214.670482 156.938227,217.896738 C159.040476,221.119276 161.142725,224.206069 158.899211,225.747606 C156.657556,227.289143 153.854557,230.234613 154.274635,232.757974 C154.694713,235.281334 156.376884,235.701584 153.713292,238.507591 C151.051558,241.309878 146.285716,248.740496 140.960391,250.564679 C135.635065,252.387003 131.430566,250.425216 130.309739,252.948576 C129.187052,255.471936 131.149895,257.435583 128.066224,259.257907 C124.982554,261.08023 120.077306,261.920731 118.5364,263.324664 C116.993636,264.726737 114.75198,264.585414 112.088388,264.726737 C109.426654,264.866201 108.584639,266.969311 106.763062,265.70856 C104.941484,264.445951 104.800219,263.043877 103.679391,265.146987 C102.558564,267.250098 101.857814,277.064612 99.8949712,276.644362 C97.9339873,276.222252 95.690473,275.662539 96.5324879,278.886936 C97.372644,282.111333 99.3336279,285.897303 101.015799,287.01859 C102.69797,288.139877 104.380141,290.523774 104.380141,292.206634 C104.380141,293.889494 104.800219,294.590531 102.69797,294.590531 C100.595721,294.590531 97.0919724,294.170281 96.5324879,295.992604 C95.9711446,297.814928 94.8503168,303.984795 92.1867245,303.845332 C89.5249909,303.704009 86.8613985,301.740362 84.4784778,302.722185 C82.0955571,303.704009 81.9561506,305.948442 79.8539015,305.526332 C77.7516524,305.106082 75.3687317,300.479611 72.7051393,301.740362 C70.0434057,303.002972 69.2013909,303.002972 68.2199695,302.301935 C67.2385482,301.600898 64.8574862,303.423222 66.3983921,304.966619 C67.9411566,306.508156 69.0619844,308.191016 68.0805631,310.574913 C67.0991418,312.958809 66.2589856,316.183207 67.2385482,318.00553 C68.2199695,319.827854 72.4244677,328.941332 68.922578,329.361582 C65.4169707,329.783691 63.3165804,325.438007 61.4931442,326.698758 C59.6715667,327.961368 59.5303015,329.222118 57.288646,329.502905 C55.0469904,329.783691 48.4595715,328.100831 45.9353856,330.203942 C43.4149172,332.307052 42.4334959,331.747338 40.0487164,331.466551 C37.6676544,331.185765 33.1824846,330.904978 32.3423285,334.549626 C31.5003136,338.196132 29.8200013,347.72986 27.0151437,349.972434 C24.2121449,352.216867 24.9128946,353.338154 22.251161,352.216867 C19.5875687,351.09558 17.3459131,348.57222 15.9444137,349.271397 C14.5429144,349.972434 14.6823208,352.216867 14.6823208,353.899727 C14.6823208,355.582588 14.2622427,360.770631 14.9629924,362.871882 C15.6637421,364.976852 15.8031486,364.275815 16.0838202,363.152669 C16.3644918,362.031382 18.4667409,361.190882 18.3254757,363.293992 C18.1860693,365.397102 17.3459131,368.760963 19.0262254,368.760963 C20.7083964,368.760963 21.5504113,364.415279 22.3905675,366.098139 C23.2325824,367.780999 22.3905675,368.059926 25.0541598,368.059926 C27.7158934,368.059926 28.9779864,367.780999 28.9779864,369.462 C28.9779864,371.14486 29.5393297,371.286183 28.9779864,372.82772 C28.4166431,374.371116 26.4556592,375.492403 27.8571586,377.314727 C29.258658,379.137051 28.9779864,379.838087 31.5003136,379.97941 C34.0226407,380.118874 23.6526604,380.260197 22.5318327,380.260197 C21.4091461,380.260197 14.8068572,378.224029 14.8068572,381.70318 C14.8068572,385.18233 14.7287896,391.428438 13.7008995,392.614807 C12.6730093,393.801177 14.3347341,397.200369 12.8310033,396.172058 C11.33099,395.143746 11.488984,394.037336 10.3030999,395.223706 C9.11721576,396.410075 6.50938598,398.939014 7.14136183,402.182007 C7.77333769,405.423139 8.4852399,405.423139 8.4852399,408.822331 C8.4852399,412.221522 9.2603397,414.705833 7.4127397,416.001914 C5.5651397,417.297995 4.54840207,418.317009 5.19524795,420.818055 C5.84209382,423.317242 9.44621495,431.093729 9.53729382,429.704672 C9.63023145,428.317475 10.0912021,425.632337 10.9220644,427.11251 C11.7529268,428.594542 13.7864021,429.797648 13.6005268,432.852829 C13.4165103,435.908011 12.4927103,438.963192 13.9704186,439.056168 C15.4499856,439.149143 22.2846186,437.760087 21.823648,439.149143 C21.3608186,440.5382 19.5132186,440.908244 17.7585562,440.815268 C16.0020351,440.724152 13.6023856,439.798114 12.6785856,441.464238 C11.7529268,443.130363 11.661848,445.261366 13.2324938,446.001452 C14.801281,446.741539 18.6470399,447.838652 18.6470399,449.512215 C18.6470399,451.187637 18.4184133,452.405618 18.9500166,452.634338 C19.4834785,452.861199 19.7102463,452.634338 19.8626641,451.645077 C20.0150818,450.653956 21.4574737,449.285354 21.4574737,451.111397 C21.4574737,452.937439 21.8366592,454.384141 20.7734528,454.307901 C19.7102463,454.23352 18.6470399,453.54736 18.6470399,454.994062 C18.6470399,456.440764 18.8515027,458.884165 20.5336737,459.107306 Z"/>
  </g>
</svg>
