<?xml version="1.0" encoding="UTF-8"?>
<svg width="82px" height="82px" viewBox="0 0 82 82" version="1.1" xmlns="http://www.w3.org/2000/svg" xmlns:xlink="http://www.w3.org/1999/xlink">
    <!-- Generator: Sketch 44.1 (41455) - http://www.bohemiancoding.com/sketch -->
    <title>Api</title>
    <desc>Created with Sketch.</desc>
    <defs>
        <circle id="path-1" cx="35" cy="35" r="35"></circle>
        <filter x="-15.7%" y="-10.0%" width="131.4%" height="131.4%" filterUnits="objectBoundingBox" id="filter-2">
            <feOffset dx="0" dy="4" in="SourceAlpha" result="shadowOffsetOuter1"></feOffset>
            <feGaussianBlur stdDeviation="3" in="shadowOffsetOuter1" result="shadowBlurOuter1"></feGaussianBlur>
            <feColorMatrix values="0 0 0 0 1   0 0 0 0 1   0 0 0 0 1  0 0 0 0.263954937 0" type="matrix" in="shadowBlurOuter1"></feColorMatrix>
        </filter>
    </defs>
    <g id="Page-1" stroke="none" stroke-width="1" fill="none" fill-rule="evenodd">
        <g id="flow-copy-2" transform="translate(-476.000000, -179.000000)">
            <g id="api-copy-3" transform="translate(482.000000, 181.000000)">
                <g id="Api">
                    <g id="Oval-6">
                        <use fill="black" fill-opacity="1" filter="url(#filter-2)" xlink:href="#path-1"></use>
                        <use fill="#FFFFFF" fill-rule="evenodd" xlink:href="#path-1"></use>
                    </g>
                    <g id="ui-color-1_settings-gear-63" transform="translate(11.000000, 10.000000)" fill-rule="nonzero">
                        <path d="M47.9347826,19.173913 L41.7905341,19.173913 C41.4571317,18.087892 41.022832,17.03828 40.4933443,16.0385948 L44.8369174,11.6955437 C45.0366457,11.4958154 45.1489941,11.2253461 45.1489941,10.942403 C45.1489941,10.65946 45.0366457,10.3889907 44.8369174,10.1892624 L38.8112596,4.16308261 C38.3951643,3.74698739 37.7210735,3.74698739 37.3049783,4.16308261 L32.9608939,8.5061337 C31.96172,7.97769 30.912108,7.54285761 29.826087,7.20997717 L29.826087,1.06521739 C29.826087,0.476439783 29.3491359,0 28.7608696,0 L20.2391304,0 C19.6508641,0 19.173913,0.476439783 19.173913,1.06521739 L19.173913,7.20997717 C18.087892,7.54285761 17.03828,7.97767935 16.0391167,8.5061337 L11.6950217,4.16308261 C11.2789265,3.74698739 10.6048357,3.74698739 10.1887404,4.16308261 L4.16308261,10.1892624 C3.96335435,10.3889907 3.85100587,10.65946 3.85100587,10.942403 C3.85100587,11.2253461 3.96335435,11.4958154 4.16308261,11.6955437 L8.50665565,16.0385948 C7.97716804,17.03828 7.54285761,18.087892 7.20946587,19.173913 L1.06521739,19.173913 C0.476951087,19.173913 0,19.6503528 0,20.2391304 L0,28.7608696 C0,29.3496472 0.476951087,29.826087 1.06521739,29.826087 L7.20946587,29.826087 C7.54286826,30.912108 7.97716804,31.96172 8.50665565,32.9614052 L4.16308261,37.3044563 C3.96335435,37.5041846 3.85100587,37.7746539 3.85100587,38.057597 C3.85100587,38.34054 3.96335435,38.6110093 4.16308261,38.8107376 L10.1887404,44.8369174 C10.6048357,45.2530126 11.2789265,45.2530126 11.6950217,44.8369174 L16.0391061,40.4938663 C17.0382693,41.02231 18.0878813,41.4571424 19.1739024,41.7900228 L19.1739024,47.9347826 C19.1739024,48.5235602 19.6508535,49 20.2391198,49 L28.7608589,49 C29.3491252,49 29.8260763,48.5235602 29.8260763,47.9347826 L29.8260763,41.7900228 C30.9120974,41.4571424 31.9617093,41.0223207 32.9608726,40.4938663 L37.3049783,44.8369174 C37.7210735,45.2530126 38.3951643,45.2530126 38.8112596,44.8369174 L44.8369174,38.8107376 C45.0366457,38.6110093 45.1489941,38.34054 45.1489941,38.057597 C45.1489941,37.7746539 45.0366457,37.5041846 44.8369174,37.3044563 L40.4933443,32.9614052 C41.022832,31.96172 41.4571424,30.912108 41.7905341,29.826087 L47.9347826,29.826087 C48.5230489,29.826087 49,29.3496472 49,28.7608696 L49,20.2391304 C49,19.6503528 48.5230489,19.173913 47.9347826,19.173913 Z M24.5,32 C20.3578893,32 17,28.6421107 17,24.5 C17,20.357825 20.3578893,17 24.5,17 C28.642175,17 32,20.357825 32,24.5 C32,28.6421107 28.642175,32 24.5,32 Z" id="Shape" fill="#5A7A84"></path>
                        <path d="M24.5,13 C18.1487277,13 13,18.1487277 13,24.5 C13,30.8512723 18.1487277,36 24.5,36 C30.8512723,36 36,30.8512723 36,24.5 C36,18.1487277 30.8512723,13 24.5,13 Z" id="Shape" fill="#335262"></path>
                    </g>
                </g>
            </g>
        </g>
    </g>
</svg>