<?xml version="1.0" encoding="UTF-8"?>
<svg width="41px" height="24px" viewBox="0 0 41 24" version="1.1" xmlns="http://www.w3.org/2000/svg" xmlns:xlink="http://www.w3.org/1999/xlink">
    <!-- Generator: Sketch 44.1 (41455) - http://www.bohemiancoding.com/sketch -->
    <title>arrow</title>
    <desc>Created with Sketch.</desc>
    <defs></defs>
    <g id="Page-1" stroke="none" stroke-width="1" fill="none" fill-rule="evenodd">
        <g id="flow-copy-2" transform="translate(-409.000000, -379.000000)" fill-rule="nonzero" fill="#32A2FF">
            <path d="M439.5,395.5 L431.5,395.5 L431.5,371.5 C431.500001,370.94772 431.052281,370.5 430.5,370.5 L428.5,370.5 C427.947719,370.5 427.499999,370.94772 427.5,371.5 L427.5,395.5 L419.5,395.5 C419.124996,395.5 418.782226,395.70947 418.5,396.5 C418.439446,396.37549 418.468746,396.77637 418.5,397.5 L428.5,411.5 C428.87402,411.34424 429.17676,411.5 429.5,411.5 C429.82324,411.5 430.12598,411.34424 430.5,411.5 L440.5,397.5 C440.531254,396.77636 440.560554,396.37548 440.5,396.5 C440.217774,395.70947 439.875004,395.5 439.5,395.5 Z" id="arrow" transform="translate(429.500000, 391.000000) rotate(-90.000000) translate(-429.500000, -391.000000) "></path>
        </g>
    </g>
</svg>