<?xml version="1.0" encoding="UTF-8"?>
<svg width="26px" height="26px" viewBox="0 0 26 26" version="1.1" xmlns="http://www.w3.org/2000/svg" xmlns:xlink="http://www.w3.org/1999/xlink">
    <!-- Generator: Sketch 44.1 (41455) - http://www.bohemiancoding.com/sketch -->
    <title>colse</title>
    <desc>Created with Sketch.</desc>
    <defs></defs>
    <g id="Page-1" stroke="none" stroke-width="1" fill="none" fill-rule="evenodd" opacity="0.5">
        <g id="flow-copy-2" transform="translate(-1316.000000, -24.000000)" fill-rule="nonzero" fill="#FFFFFF">
            <path d="M1341.7,28.3 L1337.7,24.3 C1337.3,23.9 1336.7,23.9 1336.3,24.3 L1329,31.6 L1321.7,24.3 C1321.3,23.9 1320.7,23.9 1320.3,24.3 L1316.3,28.3 C1315.9,28.7 1315.9,29.3 1316.3,29.7 L1323.6,37 L1316.3,44.3 C1315.9,44.7 1315.9,45.3 1316.3,45.7 L1320.3,49.7 C1320.7,50.1 1321.3,50.1 1321.7,49.7 L1329,42.4 L1336.3,49.7 C1336.5,49.9 1336.8,50 1337,50 C1337.2,50 1337.5,49.9 1337.7,49.7 L1341.7,45.7 C1342.1,45.3 1342.1,44.7 1341.7,44.3 L1334.4,37 L1341.7,29.7 C1342.1,29.3 1342.1,28.7 1341.7,28.3 Z" id="colse"></path>
        </g>
    </g>
</svg>