<?xml version="1.0" encoding="UTF-8"?>
<svg width="70px" height="70px" viewBox="0 0 70 70" version="1.1" xmlns="http://www.w3.org/2000/svg" xmlns:xlink="http://www.w3.org/1999/xlink">
    <!-- Generator: Sketch 44.1 (41455) - http://www.bohemiancoding.com/sketch -->
    <title>form</title>
    <desc>Created with Sketch.</desc>
    <defs></defs>
    <g id="Page-1" stroke="none" stroke-width="1" fill="none" fill-rule="evenodd">
        <g id="flow-copy-2" transform="translate(-482.000000, -351.000000)">
            <g id="form" transform="translate(482.000000, 351.000000)">
                <g>
                    <path d="M61,5 L19,5 C17.89543,5 17,6.1484863 17,7.56521739 L17,61.4347826 C17,62.8515137 17.89543,64 19,64 L61,64 C62.10457,64 63,62.8515137 63,61.4347826 L63,7.56521739 C63,6.1484863 62.10457,5 61,5 Z" id="Shape" fill="#C7AA3D" fill-rule="nonzero" transform="translate(40.000000, 34.500000) rotate(-345.000000) translate(-40.000000, -34.500000) "></path>
                    <path d="M52.6086957,0 L2.39130435,0 C1.07062283,0 0,1.36261087 0,3.04347826 L0,66.9565217 C0,68.6373891 1.07062283,70 2.39130435,70 L52.6086957,70 C53.9293772,70 55,68.6373891 55,66.9565217 L55,3.04347826 C55,1.36261087 53.9293772,0 52.6086957,0 Z" id="Shape-Copy" fill="#F9D44C" fill-rule="nonzero"></path>
                    <path d="M50.0861457,12.173913 L30.3719429,12.173913 C29.594288,12.173913 28.9637856,11.4925543 28.9637856,10.6521739 C28.9637856,9.81179348 29.594288,9.13043478 30.3719429,9.13043478 L50.0861457,9.13043478 C50.8638006,9.13043478 51.494303,9.81179348 51.494303,10.6521739 C51.494303,11.4925543 50.8638006,12.173913 50.0861457,12.173913 Z" id="Shape" fill="#83743C" fill-rule="nonzero"></path>
                    <path d="M50.0861457,24.3478261 L30.3719429,24.3478261 C29.594288,24.3478261 28.9637856,23.6664674 28.9637856,22.826087 C28.9637856,21.9857065 29.594288,21.3043478 30.3719429,21.3043478 L50.0861457,21.3043478 C50.8638006,21.3043478 51.494303,21.9857065 51.494303,22.826087 C51.494303,23.6664674 50.8638006,24.3478261 50.0861457,24.3478261 Z" id="Shape" fill="#83743C" fill-rule="nonzero"></path>
                    <path d="M50.0861457,36.5217391 L30.3719429,36.5217391 C29.594288,36.5217391 28.9637856,35.8403804 28.9637856,35 C28.9637856,34.1596196 29.594288,33.4782609 30.3719429,33.4782609 L50.0861457,33.4782609 C50.8638006,33.4782609 51.494303,34.1596196 51.494303,35 C51.494303,35.8403804 50.8638006,36.5217391 50.0861457,36.5217391 Z" id="Shape" fill="#83743C" fill-rule="nonzero"></path>
                    <path d="M50.2325313,60.8695652 L4.80874925,60.8695652 C4.11193581,60.8695652 3.54697752,60.188937 3.54697752,59.3478261 C3.54697752,58.5067152 4.11193581,57.826087 4.80874925,57.826087 L50.2325313,57.826087 C50.9293448,57.826087 51.494303,58.5067152 51.494303,59.3478261 C51.494303,60.188937 50.9293448,60.8695652 50.2325313,60.8695652 Z" id="Shape" fill="#83743D" fill-rule="nonzero"></path>
                    <path d="M50.2325313,48.6956522 L4.80874925,48.6956522 C4.11193581,48.6956522 3.54697752,48.0150239 3.54697752,47.173913 C3.54697752,46.3328022 4.11193581,45.6521739 4.80874925,45.6521739 L50.2325313,45.6521739 C50.9293448,45.6521739 51.494303,46.3328022 51.494303,47.173913 C51.494303,48.0150239 50.9293448,48.6956522 50.2325313,48.6956522 Z" id="Shape" fill="#83743D" fill-rule="nonzero"></path>
                    <path d="M9.32,14.44 C9.32,14.0666648 9.3000002,13.6933352 9.26,13.32 C9.2199998,12.9466648 9.1200008,12.6133348 8.96,12.32 C8.7999992,12.0266652 8.5466684,11.7933342 8.2,11.62 C7.8533316,11.4466658 7.3600032,11.36 6.72,11.36 C6.4266652,11.36 6.1933342,11.3333336 6.02,11.28 C5.8466658,11.2266664 5.7466668,10.9733356 5.72,10.52 C5.72,10.3066656 5.7733328,10.1066676 5.88,9.92 C5.9866672,9.7333324 6.1599988,9.64 6.4,9.64 C7.2533376,9.6933336 8.0599962,9.7266666 8.82,9.74 C9.5800038,9.7533334 10.359996,9.76 11.16,9.76 L22.72,9.76 C23.0133348,9.76 23.259999,9.826666 23.46,9.96 C23.660001,10.093334 23.76,10.3466648 23.76,10.72 L23.88,16.32 C23.88,16.586668 23.7533346,16.786666 23.5,16.92 C23.2466654,17.053334 23.0133344,17.12 22.8,17.12 C22.5066652,17.12 22.2333346,17.0600006 21.98,16.94 C21.7266654,16.8199994 21.5733336,16.6400012 21.52,16.4 C21.386666,15.4933288 21.2400008,14.7266698 21.08,14.1 C20.9199992,13.4733302 20.7000014,12.960002 20.42,12.56 C20.1399986,12.159998 19.7800022,11.8666676 19.34,11.68 C18.8999978,11.4933324 18.3333368,11.3866668 17.64,11.36 L13.28,11.36 L13.28,21.76 L20.44,21.76 C20.6533344,21.7866668 20.8133328,21.8933324 20.92,22.08 C21.0266672,22.2666676 21.08,22.4666656 21.08,22.68 C21.08,22.8933344 21.0266672,23.0799992 20.92,23.24 C20.8133328,23.4000008 20.6533344,23.48 20.44,23.48 L13.28,23.48 L13.28,30.32 C13.28,30.6933352 13.2999998,31.0666648 13.34,31.44 C13.3800002,31.8133352 13.4799992,32.1466652 13.64,32.44 C13.8000008,32.7333348 14.0533316,32.9666658 14.4,33.14 C14.7466684,33.3133342 15.2399968,33.4 15.88,33.4 C16.146668,33.4 16.3733324,33.4266664 16.56,33.48 C16.7466676,33.5333336 16.8533332,33.7866644 16.88,34.24 C16.88,34.4533344 16.8266672,34.6533324 16.72,34.84 C16.6133328,35.0266676 16.426668,35.12 16.16,35.12 C14.426658,35.0399996 12.7733412,35 11.2,35 C10.399996,35 9.6133372,35.0066666 8.84,35.02 C8.0666628,35.0333334 7.2533376,35.0666664 6.4,35.12 C6.1599988,35.12 5.9866672,35.0266676 5.88,34.84 C5.7733328,34.6533324 5.72,34.4533344 5.72,34.24 C5.7466668,33.7866644 5.8466658,33.5333336 6.02,33.48 C6.1933342,33.4266664 6.4266652,33.4 6.72,33.4 C7.3600032,33.4 7.8533316,33.3133342 8.2,33.14 C8.5466684,32.9666658 8.7999992,32.7333348 8.96,32.44 C9.1200008,32.1466652 9.2199998,31.8133352 9.26,31.44 C9.3000002,31.0666648 9.32,30.6933352 9.32,30.32 L9.32,14.44 Z" id="F" fill="#83743D"></path>
                    <polygon id="Path-10" fill="#A88D29" points="55 8 57.75 8.5 55 67.5"></polygon>
                </g>
            </g>
        </g>
    </g>
</svg>