<?xml version="1.0" encoding="UTF-8"?>
<svg width="67px" height="71px" viewBox="0 0 67 71" version="1.1" xmlns="http://www.w3.org/2000/svg" xmlns:xlink="http://www.w3.org/1999/xlink">
    <!-- Generator: Sketch 44.1 (41455) - http://www.bohemiancoding.com/sketch -->
    <title>save</title>
    <desc>Created with Sketch.</desc>
    <defs></defs>
    <g id="Page-1" stroke="none" stroke-width="1" fill="none" fill-rule="evenodd">
        <g id="flow-copy-2" transform="translate(-484.000000, -700.000000)" fill-rule="nonzero">
            <g id="存储过程" transform="translate(473.000000, 700.000000)">
                <g id="save" transform="translate(11.000000, 0.000000)">
                    <path d="M65.325,71 L1.675,71 C0.749931,71 0,70.24314 0,69.3095238 L0,1.69047619 C0,0.75686 0.749931,0 1.675,0 L60.3,0 L67,6.76190476 L67,69.3095238 C67,70.24314 66.250069,71 65.325,71 Z" id="Shape" fill="#43A6DD"></path>
                    <path d="M59.3125,32 L8.6875,32 C7.75551062,32 7,32.76752 7,33.7142857 L7,66.2857143 C7,67.23248 7.75551062,68 8.6875,68 L59.3125,68 C60.2444725,68 61,67.23248 61,66.2857143 L61,33.7142857 C61,32.76752 60.2444725,32 59.3125,32 Z" id="Shape" fill="#E6E6E6"></path>
                    <path d="M26.4,46 L13.6,46 C12.715632,46 12,45.329095 12,44.5 C12,43.670905 12.715632,43 13.6,43 L26.4,43 C27.284368,43 28,43.670905 28,44.5 C28,45.329095 27.284368,46 26.4,46 Z" id="Shape" fill="#588096"></path>
                    <path d="M20.3333333,56 L13.6666667,56 C12.74545,56 12,55.329095 12,54.5 C12,53.670905 12.74545,53 13.6666667,53 L20.3333333,53 C21.25455,53 22,53.670905 22,54.5 C22,55.329095 21.25455,56 20.3333333,56 Z" id="Shape" fill="#588096"></path>
                    <path d="M52.3214286,23 L8.67857143,23 C7.75151321,23 7,22.26446 7,21.3571429 L7,0 L54,0 L54,21.3571429 C54,22.26446 53.24847,23 52.3214286,23 Z" id="Shape" fill="#588096"></path>
                    <path d="M52.3181818,23 L18.6818182,23 C17.7529668,23 17,22.26446 17,21.3571429 L17,0 L54,0 L54,21.3571429 C54,22.26446 53.2470164,23 52.3181818,23 Z" id="Shape" fill="#E6E6E6"></path>
                    <path d="M45.3333333,20 L38.6666667,20 C37.7462,20 37,19.238893 37,18.3 L37,4.7 C37,3.761124 37.7462,3 38.6666667,3 L45.3333333,3 C46.2538,3 47,3.761124 47,4.7 L47,18.3 C47,19.238893 46.2538,20 45.3333333,20 Z" id="Shape" fill="#588096"></path>
                </g>
            </g>
        </g>
    </g>
</svg>