<?xml version="1.0" encoding="UTF-8"?>
<svg width="161px" height="595px" viewBox="0 0 161 595" version="1.1" xmlns="http://www.w3.org/2000/svg" xmlns:xlink="http://www.w3.org/1999/xlink">
    <!-- Generator: Sketch 43.2 (39069) - http://www.bohemiancoding.com/sketch -->
    <title>Fill 5</title>
    <desc>Created with Sketch.</desc>
    <defs>
        <linearGradient x1="50%" y1="1.41638472e-14%" x2="50%" y2="100%" id="linearGradient-1">
            <stop stop-color="#104058" offset="0%"></stop>
            <stop stop-color="#298FC7" stop-opacity="0.110648777" offset="100%"></stop>
        </linearGradient>
        <path d="M432.014311,401.498401 C432.014311,401.498401 435.020714,393.294284 434.474503,358.021244 C433.928292,322.747307 437.206455,316.185089 438.574225,309.349222 C439.941995,302.513355 442.126839,279.271047 443.494609,251.92668 C444.862379,224.58321 447.866988,224.58321 451.421396,218.020993 C454.974907,211.457878 482.307881,205.168414 486.136739,203.528308 C489.963804,201.887305 494.60884,198.333443 495.130835,195.325088 C495.65283,192.316732 495.130835,178.098594 495.130835,178.098594 C487.453386,170.988179 486.665012,159.366577 486.665012,159.366577 C483.942926,159.548711 483.671166,155.102122 483.579682,153.650431 C483.489096,152.19874 481.675567,145.665234 481.767051,142.398481 C481.857638,139.131727 485.878432,140.286441 485.878432,140.286441 C485.878432,114.555263 499.195578,112 508.499103,112 C517.803525,112 531.120671,114.555263 531.120671,140.286441 C531.120671,140.286441 535.140569,139.131727 535.232052,142.398481 C535.324433,145.665234 533.510904,152.19874 533.419421,153.650431 C533.327937,155.102122 533.05528,159.548711 530.334091,159.366577 C530.334091,159.366577 529.546614,170.988179 521.869165,178.098594 C521.869165,178.098594 521.346274,192.316732 521.869165,195.325088 C522.39116,198.333443 527.035299,201.887305 530.863261,203.528308 C534.690326,205.168414 562.024197,211.457878 565.578604,218.020993 C569.132115,224.58321 572.136724,224.58321 573.504494,251.92668 C574.872264,279.271047 577.057108,302.513355 578.424878,309.349222 C579.792648,316.185089 583.071708,322.747307 582.5246,358.021244 C581.978389,393.294284 584.985689,401.498401 584.985689,401.498401 C584.985689,401.498401 589.906969,426.108062 587.173223,431.84933 C584.438581,437.592392 581.158624,441.693553 579.519094,441.4208 C577.878667,441.14715 578.698432,438.140589 578.698432,438.140589 C578.698432,438.140589 571.866758,442.539625 570.226331,441.434258 C568.585904,440.327097 568.037899,441.14715 566.67282,439.233394 C565.305947,437.319639 567.766139,435.404986 567.766139,435.404986 C567.766139,435.404986 566.125712,434.857686 565.032393,433.490333 C563.938177,432.123877 572.686523,427.201765 572.686523,420.365001 C572.686523,413.530031 571.31965,405.87411 573.506288,397.94454 C575.692029,390.014072 563.66552,367.319064 561.75154,343.255806 C559.838456,319.193445 562.299544,319.465301 560.385563,311.535731 C558.471583,303.607058 550.272139,275.442638 550.272139,265.872065 L550.272139,264.778362 C550.272139,264.778362 548.085501,278.177344 544.531093,282.278505 C540.976685,286.380564 539.062705,312.630331 540.15692,315.911439 C541.251136,319.193445 561.206225,363.763409 560.931775,393.021531 C560.658221,422.279654 547.596691,476.96749 548.25053,486.538961 C548.903472,496.108637 552.459674,525.094007 552.731434,548.609067 C553.003194,572.124128 536.878757,627.359265 537.424968,651.695276 C537.971179,676.03039 547.265736,691.616777 544.531093,695.992486 C541.797347,700.368195 533.052589,703.101106 530.044393,703.101106 C530.044393,703.101106 527.856858,705.834915 524.03069,704.742109 C520.204522,703.649304 519.110306,694.349689 519.930071,684.234507 C520.750733,674.118428 520.478076,660.718549 518.564095,654.977282 C516.650114,649.23422 525.396666,641.577402 524.03069,632.553232 C522.663817,623.530856 525.672014,616.421339 521.844052,592.360772 C518.016987,568.296617 518.84034,543.960606 521.298738,532.202627 C523.756239,520.44375 518.291438,494.740387 516.103903,487.085364 C513.916369,479.427649 508.499103,422.858356 508.499103,422.858356 C508.499103,422.858356 503.082735,479.427649 500.8952,487.085364 C498.706768,494.740387 493.242864,520.44375 495.701262,532.202627 C498.15966,543.960606 498.983013,568.296617 495.154154,592.360772 C491.327089,616.421339 494.334389,623.530856 492.968413,632.553232 C491.602437,641.577402 500.348989,649.23422 498.435008,654.977282 C496.521027,660.718549 496.24837,674.118428 497.069032,684.234507 C497.888797,694.349689 496.795478,703.649304 492.968413,704.742109 C489.142245,705.834915 486.95471,703.101106 486.95471,703.101106 C483.946514,703.101106 475.201756,700.368195 472.46801,695.992486 C469.734264,691.616777 479.027924,676.03039 479.574135,651.695276 C480.120346,627.359265 463.995012,572.124128 464.267669,548.609067 C464.540326,525.094007 468.095631,496.108637 468.748573,486.538961 C469.402412,476.96749 456.340883,422.279654 456.067329,393.021531 C455.793775,363.763409 475.747967,319.193445 476.841286,315.911439 C477.935502,312.630331 476.021521,286.380564 472.46801,282.278505 C468.914499,278.177344 466.727861,264.778362 466.727861,264.778362 L466.727861,265.872065 C466.727861,275.442638 458.52752,303.607058 456.61354,311.535731 C454.699559,319.465301 457.161544,319.193445 455.246667,343.255806 C453.333583,367.319064 441.306177,390.014072 443.492815,397.94454 C445.678556,405.87411 444.313477,413.530031 444.313477,420.365001 C444.313477,427.201765 453.060926,432.123877 451.96671,433.490333 C450.873391,434.857686 449.232964,435.404986 449.232964,435.404986 C449.232964,435.404986 451.693156,437.319639 450.32718,439.233394 C448.961204,441.14715 448.413199,440.327097 446.772772,441.434258 C445.133242,442.539625 438.300671,438.140589 438.300671,438.140589 C438.300671,438.140589 439.120436,441.14715 437.480906,441.4208 C435.840479,441.693553 432.559626,437.592392 429.826777,431.84933 C427.093031,426.108062 432.014311,401.498401 432.014311,401.498401" id="path-2"></path>
        <filter x="-6.0%" y="-1.6%" width="112.0%" height="103.2%" filterUnits="objectBoundingBox" id="filter-3">
            <feGaussianBlur stdDeviation="9" in="SourceAlpha" result="shadowBlurInner1"></feGaussianBlur>
            <feOffset dx="0" dy="0" in="shadowBlurInner1" result="shadowOffsetInner1"></feOffset>
            <feComposite in="shadowOffsetInner1" in2="SourceAlpha" operator="arithmetic" k2="-1" k3="1" result="shadowInnerInner1"></feComposite>
            <feColorMatrix values="0 0 0 0 0.119633838   0 0 0 0 0.750562921   0 0 0 0 1  0 0 0 1 0" type="matrix" in="shadowInnerInner1"></feColorMatrix>
        </filter>
    </defs>
    <g id="Page-1" stroke="none" stroke-width="1" fill="none" fill-rule="evenodd">
        <g id="个人画像-详情" transform="translate(-428.000000, -111.000000)">
            <g id="Fill-5">
                <use fill="url(#linearGradient-1)" fill-rule="evenodd" xlink:href="#path-2"></use>
                <use fill="black" fill-opacity="1" filter="url(#filter-3)" xlink:href="#path-2"></use>
                <use stroke="#00A8FF" stroke-width="1" xlink:href="#path-2"></use>
            </g>
        </g>
    </g>
</svg>