<?xml version="1.0" encoding="UTF-8"?>
<svg width="314px" height="659px" viewBox="0 0 314 659" version="1.1" xmlns="http://www.w3.org/2000/svg" xmlns:xlink="http://www.w3.org/1999/xlink">
    <!-- Generator: Sketch 43.2 (39069) - http://www.bohemiancoding.com/sketch -->
    <title>mansvg</title>
    <desc>Created with Sketch.</desc>
    <defs>
        <linearGradient x1="50%" y1="100%" x2="50%" y2="28.5888844%" id="linearGradient-1">
            <stop stop-color="#2A93C7" offset="0%"></stop>
            <stop stop-color="#298FC7" stop-opacity="0.110648777" offset="100%"></stop>
        </linearGradient>
        <linearGradient x1="50%" y1="1.41638472e-14%" x2="50%" y2="100%" id="linearGradient-2">
            <stop stop-color="#104058" offset="0%"></stop>
            <stop stop-color="#298FC7" stop-opacity="0.110648777" offset="100%"></stop>
        </linearGradient>
        <path d="M71.3732624,228.335044 C73.2281948,224.206446 74.9381687,214.528091 73.7972913,208.121707 C72.6564139,201.716217 71.3723676,169.259114 74.9363791,160.717865 C78.5012853,152.176616 74.2241137,136.376824 83.7779551,120.861085 C93.3317965,105.345346 115.15253,105.912559 115.15253,105.912559 C115.15253,105.912559 135.686534,99.2203362 138.537385,95.0917383 C141.388236,90.9640337 139.9646,73.0275895 139.9646,73.0275895 C134.403382,68.8998849 133.833391,56.7972513 133.833391,56.7972513 C133.833391,56.7972513 133.404779,58.9330101 131.265298,57.5091709 C129.125818,56.0862249 128.413552,41.7084855 128.983543,40.4275662 C129.55443,39.1466468 131.977564,39.5736199 131.977564,39.5736199 C131.977564,39.5736199 128.556721,20.7832295 134.403382,11.103981 C140.250043,1.4247325 154.081951,0 159.5,0 C164.918049,0 178.749957,1.4247325 184.596618,11.103981 C190.443279,20.7832295 187.022436,39.5736199 187.022436,39.5736199 C187.022436,39.5736199 189.446465,39.1466468 190.016457,40.4275662 C190.587343,41.7084855 189.874182,56.0862249 187.734702,57.5091709 C185.595221,58.9330101 185.166609,56.7972513 185.166609,56.7972513 C185.166609,56.7972513 184.596618,68.8998849 179.0354,73.0275895 C179.0354,73.0275895 177.612659,90.9640337 180.462615,95.0917383 C183.313466,99.2203362 203.84747,105.912559 203.84747,105.912559 C203.84747,105.912559 225.668204,105.345346 235.222045,120.861085 C244.775886,136.376824 240.498715,152.176616 244.063621,160.717865 C247.628527,169.259114 246.343586,201.716217 245.202709,208.121707 C244.061831,214.528091 245.771805,224.206446 247.626738,228.335044 C249.48167,232.463642 243.775493,300.081714 244.631823,309.333989 C245.488152,318.587158 248.483067,343.499878 247.342189,345.634744 C246.201312,347.76961 238.643782,366.844947 230.80081,367.984733 C230.80081,367.984733 225.096423,372.110651 223.100111,370.829731 C221.104694,369.548812 223.528723,366.701133 223.528723,366.701133 C223.528723,366.701133 221.961918,366.987866 220.96242,365.990107 C219.963817,364.995027 228.520844,356.738725 228.520844,356.738725 C228.520844,356.738725 224.240988,358.588644 222.816457,356.880752 C221.391032,355.171966 233.795725,348.624449 235.935205,343.784825 C238.074686,338.945201 235.222045,335.812576 235.222045,335.812576 L231.657139,337.520468 C231.657139,337.520468 228.234507,348.766476 225.810478,348.907609 C223.386449,349.052316 221.818749,349.052316 223.815061,335.812576 C223.815061,335.812576 220.96421,325.991301 223.244175,321.577756 C225.52414,317.165105 228.092232,316.027106 228.092232,311.329508 C228.092232,306.631017 221.103799,282.148843 218.822939,268.62505 C216.542974,255.10215 220.820146,228.767376 218.538391,223.642806 C216.257531,218.519128 213.549849,206.413815 213.405785,197.730539 C213.262616,189.047264 210.981756,177.517203 208.842276,174.670418 C206.702795,171.822739 209.783611,191.183916 205.033982,203.567923 C200.282563,215.95193 203.562921,237.445293 205.844676,246.698461 C208.127326,255.95163 215.683066,307.909257 216.396226,326.841674 C217.108491,345.774091 211.691337,415.952215 212.404497,426.05933 C213.116763,436.165552 217.964821,450.401265 217.964821,479.440797 C217.964821,508.479435 213.116763,510.897461 208.981865,522.998308 C204.846968,535.099155 200.711175,566.557606 201.138892,572.394096 C201.138892,572.394096 203.651507,576.521801 203.749936,578.941613 C203.849259,581.361425 203.706985,584.350237 204.562419,587.339942 C205.416959,590.329647 214.117156,611.39961 211.549958,614.387528 C208.981865,617.377233 193.867701,617.66218 188.591031,617.235207 C188.591031,617.235207 187.307879,619.653232 182.03121,618.800179 C176.755435,617.947126 177.4677,599.437216 179.03719,589.759754 C180.606679,580.082292 176.04138,577.664267 177.4677,571.541936 C178.894915,565.419606 181.605282,562.714848 181.88983,560.010982 C182.174379,557.307117 184.31207,525.845093 180.604889,510.616087 C176.897709,495.383508 177.4677,472.179574 181.033501,461.931325 C184.598408,451.682184 179.319948,445.98772 175.470494,433.603713 C171.621934,421.219706 169.623833,391.184201 169.623833,377.943568 C169.623833,364.706508 165.204387,355.453339 163.064906,347.766037 C160.925426,340.079627 161.210869,328.975646 161.210869,328.975646 L159.5,328.244075 L157.789131,328.975646 C157.789131,328.975646 158.074574,340.079627 155.935094,347.766037 C153.795613,355.453339 149.375273,364.706508 149.375273,377.943568 C149.375273,391.184201 147.378066,421.219706 143.529506,433.603713 C139.680052,445.98772 134.401592,451.682184 137.966499,461.931325 C141.531405,472.179574 142.102291,495.383508 138.395111,510.616087 C134.68793,525.845093 136.825621,557.307117 137.11017,560.010982 C137.394718,562.714848 140.105085,565.419606 141.531405,571.541936 C142.95862,577.664267 138.393321,580.082292 139.96281,589.759754 C141.531405,599.437216 142.244565,617.947126 136.967895,618.800179 C131.692121,619.653232 130.408969,617.235207 130.408969,617.235207 C125.133194,617.66218 110.018135,617.377233 107.450042,614.387528 C104.882844,611.39961 113.583041,590.329647 114.437581,587.339942 C115.293015,584.350237 115.150741,581.361425 115.250064,578.941613 C115.349388,576.521801 117.861108,572.394096 117.861108,572.394096 C118.288825,566.557606 114.153927,535.099155 110.018135,522.998308 C105.883237,510.897461 101.035179,508.479435 101.035179,479.440797 C101.035179,450.401265 105.883237,436.165552 106.595503,426.05933 C107.308663,415.952215 101.891509,345.774091 102.603774,326.841674 C103.316934,307.909257 110.873569,255.95163 113.154429,246.698461 C115.437079,237.445293 118.717437,215.95193 113.966913,203.567923 C109.216389,191.183916 112.297205,171.822739 110.15683,174.670418 C108.018244,177.517203 105.737384,189.047264 105.594215,197.730539 C105.450151,206.413815 102.743364,218.519128 100.461609,223.642806 C98.1798542,228.767376 102.457026,255.10215 100.177061,268.62505 C97.8970956,282.148843 90.9077676,306.631017 90.9077676,311.329508 C90.9077676,316.027106 93.4758602,317.165105 95.7558253,321.577756 C98.0357905,325.991301 95.1849392,335.812576 95.1849392,335.812576 C97.1803561,349.052316 95.6135512,349.052316 93.1895223,348.907609 C90.7654935,348.766476 87.3428613,337.520468 87.3428613,337.520468 L83.7779551,335.812576 C83.7779551,335.812576 80.9253142,338.945201 83.0647949,343.784825 C85.2051703,348.624449 97.6089681,355.171966 96.1835425,356.880752 C94.7581169,358.588644 90.4791556,356.738725 90.4791556,356.738725 C90.4791556,356.738725 99.0361834,364.995027 98.0375801,365.990107 C97.0389768,366.987866 95.4712771,366.701133 95.4712771,366.701133 C95.4712771,366.701133 97.895306,369.548812 95.8989943,370.829731 C93.9035774,372.110651 88.1991905,367.984733 88.1991905,367.984733 C80.3571125,366.844947 72.7986881,347.76961 71.6578107,345.634744 C70.5169333,343.499878 73.5118483,318.587158 74.3681774,309.333989 C75.2245065,300.081714 69.51833,232.463642 71.3732624,228.335044" id="path-3"></path>
        <filter x="-5.4%" y="-1.5%" width="110.8%" height="103.1%" filterUnits="objectBoundingBox" id="filter-4">
            <feGaussianBlur stdDeviation="9" in="SourceAlpha" result="shadowBlurInner1"></feGaussianBlur>
            <feOffset dx="0" dy="0" in="shadowBlurInner1" result="shadowOffsetInner1"></feOffset>
            <feComposite in="shadowOffsetInner1" in2="SourceAlpha" operator="arithmetic" k2="-1" k3="1" result="shadowInnerInner1"></feComposite>
            <feColorMatrix values="0 0 0 0 0.119633838   0 0 0 0 0.750562921   0 0 0 0 1  0 0 0 1 0" type="matrix" in="shadowInnerInner1"></feColorMatrix>
        </filter>
    </defs>
    <g id="Page-1" stroke="none" stroke-width="1" fill="none" fill-rule="evenodd">
        <g id="个人画像-详情默认" transform="translate(-347.000000, -84.000000)">
            <g id="man" transform="translate(347.000000, 85.000000)">
                <g id="Group-4" transform="translate(0.000000, 109.000000)">
                    <path d="M60.109907,514.966461 C60.0369057,515.474679 60,515.985946 60,516.5 C60,534.449254 104.995383,549 160.5,549 C216.004617,549 261,534.449254 261,516.5 C261,515.484052 260.855849,514.478992 260.5738,513.486841 L314,0 L0.5,0 L60.109907,514.966461 Z" id="Combined-Shape" fill="url(#linearGradient-1)" opacity="0.300000012"></path>
                    <ellipse id="Oval-5" fill="#11355C" cx="162" cy="517" rx="94" ry="28"></ellipse>
                </g>
                <g>
                    <use fill="url(#linearGradient-2)" fill-rule="evenodd" xlink:href="#path-3"></use>
                    <use fill="black" fill-opacity="1" filter="url(#filter-4)" xlink:href="#path-3"></use>
                    <use stroke="#00A8FF" stroke-width="1" xlink:href="#path-3"></use>
                </g>
            </g>
        </g>
    </g>
</svg>