<?xml version="1.0" encoding="UTF-8"?>
<svg width="314px" height="632px" viewBox="0 0 314 632" version="1.1" xmlns="http://www.w3.org/2000/svg" xmlns:xlink="http://www.w3.org/1999/xlink">
    <!-- Generator: Sketch 43.2 (39069) - http://www.bohemiancoding.com/sketch -->
    <title>womansvg</title>
    <desc>Created with Sketch.</desc>
    <defs>
        <linearGradient x1="50%" y1="100%" x2="50%" y2="28.5888844%" id="linearGradient-1">
            <stop stop-color="#2A93C7" offset="0%"></stop>
            <stop stop-color="#298FC7" stop-opacity="0.110648777" offset="100%"></stop>
        </linearGradient>
        <linearGradient x1="50%" y1="1.41638472e-14%" x2="50%" y2="100%" id="linearGradient-2">
            <stop stop-color="#104058" offset="0%"></stop>
            <stop stop-color="#298FC7" stop-opacity="0.110648777" offset="100%"></stop>
        </linearGradient>
        <path d="M85.0143114,289.498401 C85.0143114,289.498401 88.0207144,281.294284 87.4745033,246.021244 C86.9282923,210.747307 90.2064554,204.185089 91.5742252,197.349222 C92.941995,190.513355 95.1268391,167.271047 96.494609,139.92668 C97.8623788,112.58321 100.866988,112.58321 104.421396,106.020993 C107.974907,99.4578782 135.307881,93.1684136 139.136739,91.5283079 C142.963804,89.8873049 147.60884,86.3334434 148.130835,83.3250875 C148.65283,80.3167317 148.130835,66.098594 148.130835,66.098594 C140.453386,58.9881794 139.665012,47.3665767 139.665012,47.3665767 C136.942926,47.548711 136.671166,43.1021224 136.579682,41.6504314 C136.489096,40.1987404 134.675567,33.6652339 134.767051,30.3984806 C134.857638,27.1317273 138.878432,28.2864407 138.878432,28.2864407 C138.878432,2.55526321 152.195578,0 161.499103,0 C170.803525,0 184.120671,2.55526321 184.120671,28.2864407 C184.120671,28.2864407 188.140569,27.1317273 188.232052,30.3984806 C188.324433,33.6652339 186.510904,40.1987404 186.419421,41.6504314 C186.327937,43.1021224 186.05528,47.548711 183.334091,47.3665767 C183.334091,47.3665767 182.546614,58.9881794 174.869165,66.098594 C174.869165,66.098594 174.346274,80.3167317 174.869165,83.3250875 C175.39116,86.3334434 180.035299,89.8873049 183.863261,91.5283079 C187.690326,93.1684136 215.024197,99.4578782 218.578604,106.020993 C222.132115,112.58321 225.136724,112.58321 226.504494,139.92668 C227.872264,167.271047 230.057108,190.513355 231.424878,197.349222 C232.792648,204.185089 236.071708,210.747307 235.5246,246.021244 C234.978389,281.294284 237.985689,289.498401 237.985689,289.498401 C237.985689,289.498401 242.906969,314.108062 240.173223,319.84933 C237.438581,325.592392 234.158624,329.693553 232.519094,329.4208 C230.878667,329.14715 231.698432,326.140589 231.698432,326.140589 C231.698432,326.140589 224.866758,330.539625 223.226331,329.434258 C221.585904,328.327097 221.037899,329.14715 219.67282,327.233394 C218.305947,325.319639 220.766139,323.404986 220.766139,323.404986 C220.766139,323.404986 219.125712,322.857686 218.032393,321.490333 C216.938177,320.123877 225.686523,315.201765 225.686523,308.365001 C225.686523,301.530031 224.31965,293.87411 226.506288,285.94454 C228.692029,278.014072 216.66552,255.319064 214.75154,231.255806 C212.838456,207.193445 215.299544,207.465301 213.385563,199.535731 C211.471583,191.607058 203.272139,163.442638 203.272139,153.872065 L203.272139,152.778362 C203.272139,152.778362 201.085501,166.177344 197.531093,170.278505 C193.976685,174.380564 192.062705,200.630331 193.15692,203.911439 C194.251136,207.193445 214.206225,251.763409 213.931775,281.021531 C213.658221,310.279654 200.596691,364.96749 201.25053,374.538961 C201.903472,384.108637 205.459674,413.094007 205.731434,436.609067 C206.003194,460.124128 189.878757,515.359265 190.424968,539.695276 C190.971179,564.03039 200.265736,579.616777 197.531093,583.992486 C194.797347,588.368195 186.052589,591.101106 183.044393,591.101106 C183.044393,591.101106 180.856858,593.834915 177.03069,592.742109 C173.204522,591.649304 172.110306,582.349689 172.930071,572.234507 C173.750733,562.118428 173.478076,548.718549 171.564095,542.977282 C169.650114,537.23422 178.396666,529.577402 177.03069,520.553232 C175.663817,511.530856 178.672014,504.421339 174.844052,480.360772 C171.016987,456.296617 171.84034,431.960606 174.298738,420.202627 C176.756239,408.44375 171.291438,382.740387 169.103903,375.085364 C166.916369,367.427649 161.499103,310.858356 161.499103,310.858356 C161.499103,310.858356 156.082735,367.427649 153.8952,375.085364 C151.706768,382.740387 146.242864,408.44375 148.701262,420.202627 C151.15966,431.960606 151.983013,456.296617 148.154154,480.360772 C144.327089,504.421339 147.334389,511.530856 145.968413,520.553232 C144.602437,529.577402 153.348989,537.23422 151.435008,542.977282 C149.521027,548.718549 149.24837,562.118428 150.069032,572.234507 C150.888797,582.349689 149.795478,591.649304 145.968413,592.742109 C142.142245,593.834915 139.95471,591.101106 139.95471,591.101106 C136.946514,591.101106 128.201756,588.368195 125.46801,583.992486 C122.734264,579.616777 132.027924,564.03039 132.574135,539.695276 C133.120346,515.359265 116.995012,460.124128 117.267669,436.609067 C117.540326,413.094007 121.095631,384.108637 121.748573,374.538961 C122.402412,364.96749 109.340883,310.279654 109.067329,281.021531 C108.793775,251.763409 128.747967,207.193445 129.841286,203.911439 C130.935502,200.630331 129.021521,174.380564 125.46801,170.278505 C121.914499,166.177344 119.727861,152.778362 119.727861,152.778362 L119.727861,153.872065 C119.727861,163.442638 111.52752,191.607058 109.61354,199.535731 C107.699559,207.465301 110.161544,207.193445 108.246667,231.255806 C106.333583,255.319064 94.3061773,278.014072 96.4928152,285.94454 C98.6785562,293.87411 97.3134771,301.530031 97.3134771,308.365001 C97.3134771,315.201765 106.060926,320.123877 104.96671,321.490333 C103.873391,322.857686 102.232964,323.404986 102.232964,323.404986 C102.232964,323.404986 104.693156,325.319639 103.32718,327.233394 C101.961204,329.14715 101.413199,328.327097 99.7727721,329.434258 C98.1332421,330.539625 91.3006712,326.140589 91.3006712,326.140589 C91.3006712,326.140589 92.1204362,329.14715 90.4809062,329.4208 C88.8404793,329.693553 85.5596256,325.592392 82.8267766,319.84933 C80.0930308,314.108062 85.0143114,289.498401 85.0143114,289.498401" id="path-3"></path>
        <filter x="-6.0%" y="-1.6%" width="112.0%" height="103.2%" filterUnits="objectBoundingBox" id="filter-4">
            <feGaussianBlur stdDeviation="9" in="SourceAlpha" result="shadowBlurInner1"></feGaussianBlur>
            <feOffset dx="0" dy="0" in="shadowBlurInner1" result="shadowOffsetInner1"></feOffset>
            <feComposite in="shadowOffsetInner1" in2="SourceAlpha" operator="arithmetic" k2="-1" k3="1" result="shadowInnerInner1"></feComposite>
            <feColorMatrix values="0 0 0 0 0.119633838   0 0 0 0 0.750562921   0 0 0 0 1  0 0 0 1 0" type="matrix" in="shadowInnerInner1"></feColorMatrix>
        </filter>
    </defs>
    <g id="Page-1" stroke="none" stroke-width="1" fill="none" fill-rule="evenodd">
        <g id="个人画像-详情" transform="translate(-347.000000, -111.000000)">
            <g id="woman" transform="translate(347.000000, 112.000000)">
                <g id="Group-4" transform="translate(0.000000, 82.000000)">
                    <path d="M60.109907,514.966461 C60.0369057,515.474679 60,515.985946 60,516.5 C60,534.449254 104.995383,549 160.5,549 C216.004617,549 261,534.449254 261,516.5 C261,515.484052 260.855849,514.478992 260.5738,513.486841 L314,0 L0.5,0 L60.109907,514.966461 Z" id="Combined-Shape" fill="url(#linearGradient-1)" opacity="0.300000012"></path>
                    <ellipse id="Oval-5" fill="#11355C" cx="162" cy="517" rx="94" ry="28"></ellipse>
                </g>
                <g id="Fill-5">
                    <use fill="url(#linearGradient-2)" fill-rule="evenodd" xlink:href="#path-3"></use>
                    <use fill="black" fill-opacity="1" filter="url(#filter-4)" xlink:href="#path-3"></use>
                    <use stroke="#00A8FF" stroke-width="1" xlink:href="#path-3"></use>
                </g>
            </g>
        </g>
    </g>
</svg>