<svg xmlns="http://www.w3.org/2000/svg" width="340" height="340" viewBox="0 0 340 340">
  <defs>
    <linearGradient id="资源车-iconsvg-a" x1="0%" x2="77.484%" y1="0%" y2="100%">
      <stop offset="0%" stop-color="#6DC4FF"/>
      <stop offset="100%" stop-color="#3B92FD"/>
    </linearGradient>
  </defs>
  <g fill="none" fill-rule="evenodd">
    <polyline stroke="#1275D1" stroke-dasharray="1 6" stroke-linecap="round" stroke-linejoin="round" points="39 189 14 189 14 189 89 262 326 262 251 189 248 189"/>
    <path stroke="#C8D2DB" stroke-width="2" d="M50 82L50 198.585786 92.4142136 241 288.545992 241 246 199.420963 246 82 50 82zM47 81.5L45 80 45 196C45 197.306219 45.8348076 198.417458 47 198.829294L47 81.5z"/>
    <path stroke="#C8D2DB" stroke-dasharray="10 9" stroke-linecap="round" stroke-linejoin="round" stroke-width="2" d="M53.7335245,199 L241.637117,199"/>
    <g fill-rule="nonzero" transform="translate(91 100)">
      <path fill="#B3B3B3" d="M130 102L19 102C18.0364455 102 16.9929321 101.387781 16 100 15.8608782 99.4029043 15.857716 98.1784672 16 97L29 75C29.9261739 73.0775055 31.8614169 72.5426198 33 73 34.8939301 74.308387 35.4220111 76.2771531 35 78L25 96 130 96C131.586514 95.5555939 133 96.9991409 133 99 133 100.556453 131.586514 102 130 102zM26 22C24.5960416 22 23.4586791 21.3650774 23 20L17 9 3 6C.846751592 5.88176718-.287388972 4.22531072 2.78677905e-14 3 .408560919.821245563 2.11299376-.275724651 4-3.77971092e-13L20 3C20.9390827 3.39236772 21.7703562 4.01157441 22 5L29 17C29.4548029 19.0045484 28.8104049 20.8936002 27 22 26.7547751 21.8931318 26.2618106 22 26 22z"/>
      <path stroke="#223E49" stroke-width="6" d="M36 108C31.910375 108 29 110.910375 29 114 29 118.089625 31.910375 121 36 121 39.089625 121 42 118.089625 42 114 42 110.910375 39.089625 108 36 108zM107 108C102.910375 108 100 110.910375 100 114 100 118.089625 102.910375 121 107 121 110.089625 121 113 118.089625 113 114 113 110.910375 110.089625 108 107 108z"/>
      <path fill="url(#资源车-iconsvg-a)" d="M123,79 L32,79 C29.8852755,79 28.5299494,77.793583 28,76 L22,19 C21.9148178,18.5594536 22.2378161,17.6239292 23,17 C23.5646424,16.2726162 24.5114707,15.9324255 25,16 L133,25 C134.00789,25.5396626 134.828052,25.9932502 135,27 C135.90788,27.426461 136.113712,28.339936 136,29 L126,76 C126.141932,77.941629 124.843605,79 123,79 Z"/>
    </g>
    <path stroke="#C8D2DB" stroke-width="2" d="M48.4163034,79.0020898 L243.573519,79.9877323 L242.585786,79 L48.4142136,79 L48.4163034,79.0020898 Z"/>
    <polyline stroke="#C8D2DB" stroke-width="2" points="48.5 205 91.965 248.285 290.526 248.285 290.526 245.335"/>
  </g>
</svg>
