<?xml version="1.0" encoding="UTF-8"?>
<svg width="40px" height="40px" viewBox="0 0 40 40" version="1.1" xmlns="http://www.w3.org/2000/svg" xmlns:xlink="http://www.w3.org/1999/xlink">
    <!-- Generator: Sketch 46.1 (44463) - http://www.bohemiancoding.com/sketch -->
    <title>顶部菜单_logo</title>
    <desc>Created with Sketch.</desc>
    <defs>
        <linearGradient x1="91.2778352%" y1="84.6923399%" x2="8.56105836%" y2="10.8073905%" id="linearGradient-1">
            <stop stop-color="#FFFFFF" offset="0%"></stop>
            <stop stop-color="#FFFFFF" offset="100%"></stop>
        </linearGradient>
    </defs>
    <g id="首页" stroke="none" stroke-width="1" fill="none" fill-rule="evenodd">
        <g id="主页" transform="translate(-32.000000, -29.000000)" fill="url(#linearGradient-1)">
            <g id="navigation" transform="translate(32.000000, 26.000000)">
                <g id="logo">
                    <g transform="translate(0.000000, 3.000000)" id="顶部菜单_logo">
                        <path d="M21,10 L21,9 L20,9 L20,10 L18,10 L18,13 L16,13 L16,21 L10,21 L10,31 L18.5,31 L22,31 L30,31 L30,18 L25,18 L25,13 L23,13 L23,10 L21,10 Z M24,18 L21,18 L21,30 L19,30 L19,21 L17,21 L17,14 L19,14 L19,11 L22,11 L22,14 L24,14 L24,18 Z M20,40 C8.954305,40 0,31.045695 0,20 C0,8.954305 8.954305,0 20,0 C31.045695,0 40,8.954305 40,20 C40,31.045695 31.045695,40 20,40 Z M24,22 L27,22 L27,21 L24,21 L24,22 Z M24,25 L27,25 L27,24 L24,24 L24,25 Z M24,28 L27,28 L27,27 L24,27 L24,28 Z M13,25 L16,25 L16,24 L13,24 L13,25 Z M13,28 L16,28 L16,27 L13,27 L13,28 Z"></path>
                    </g>
                </g>
            </g>
        </g>
    </g>
</svg>