<?xml version="1.0" encoding="UTF-8"?>
<svg width="114px" height="36px" viewBox="0 0 114 36" version="1.1" xmlns="http://www.w3.org/2000/svg" xmlns:xlink="http://www.w3.org/1999/xlink">
    <!-- Generator: Sketch 42 (36781) - http://www.bohemiancoding.com/sketch -->
    <title>footer_dcits</title>
    <desc>Created with Sketch.</desc>
    <defs></defs>
    <g id="升级改造首页-vol.3" stroke="none" stroke-width="1" fill="none" fill-rule="evenodd">
        <g id="icon-and-more" transform="translate(-61.000000, -614.000000)" fill="#FEFEFE">
            <g id="footer_dcits" transform="translate(61.000000, 614.000000)">
                <g id="Group-3" transform="translate(0.972973, 0.305757)">
                    <path d="M45.2792432,3.7250027 C45.2792432,3.7250027 44.5298108,3.56397568 44.2452162,3.49221892 C44.4938108,3.40392162 45.1379189,3.33289459 45.4045135,3.26162432 L45.3974595,3.18086757 C44.9732432,3.05948919 44.3522432,3.03054324 44.0858919,2.88727297 L45.1007027,2.67321892 L45.1007027,2.58516486 C44.6356216,2.47740811 43.7103243,2.33511081 43.7103243,2.33511081 L44.8336216,2.0853 L44.7630811,1.9970027 L43.0511351,1.73113784 L44.3322973,1.49835405 L44.2452162,1.40908378 L41.7867568,1.22957027 L41.7162162,1.1600027 L43.6738378,0.964678378 L43.6568108,0.875894595 C42.9458108,0.778597297 41.5415676,0.647489189 41.5415676,0.647489189 L41.4732162,0.60102973 L42.4019189,0.540948649 L42.4756216,0.476489189 C42.4756216,0.476489189 40.0305405,0.0359756757 38.1368919,0.0644351351 C36.0559459,0.0189486486 33.867,0.317894595 33.867,0.317894595 L33.9526216,0.389164865 C33.9526216,0.389164865 34.6045135,0.379435135 35.1121622,0.445354054 C35.5952432,0.508840541 35.8467568,0.585705405 35.8467568,0.585705405 C35.8467568,0.585705405 32.4043784,0.76157027 32.2124595,0.774705405 C31.8726486,0.796110811 30.9045405,0.911164865 30.9045405,0.911164865 L31.059973,0.974894595 C31.059973,0.974894595 32.1015405,0.913354054 33.0248919,0.929408108 C33.939,0.944002703 34.5665676,0.995813514 34.5731351,1.02451622 C34.5799459,1.05175946 33.4641892,1.08727297 32.3245946,1.16486757 C30.7021622,1.27554324 28.890973,1.48084054 28.890973,1.48084054 L28.9571351,1.5273 C28.9571351,1.5273 31.1482703,1.64502973 31.9015946,1.71897568 C30.744,1.73648919 27.3266757,2.07070541 27.3266757,2.07070541 L27.3439459,2.13054324 C27.3439459,2.13054324 29.6163243,2.28743514 29.8345135,2.33511081 C28.4640811,2.49735405 25.8268378,2.61970541 25.8268378,2.61970541 L25.8808378,2.67321892 C25.8808378,2.67321892 27.5013243,2.76370541 28.2495405,2.90478649 C26.9866216,3.06702973 24.3851351,3.19011081 24.3851351,3.19011081 L24.4194324,3.27962432 C24.4194324,3.27962432 25.7764865,3.38738108 26.5757838,3.49221892 C25.4271892,3.59827297 22.9942703,3.79627297 22.9942703,3.79627297 L23.0665135,3.84857027 L25.0623243,4.06311081 L21.7474054,4.32192162 L21.7308649,4.38346216 C21.7308649,4.38346216 23.0125135,4.56224595 23.6714595,4.6503 C22.6573784,4.77557027 20.6014865,4.89013784 20.6014865,4.89013784 L20.6362703,4.96554324 C20.6362703,4.96554324 21.9955135,5.10565135 22.5316216,5.22143514 C21.4954054,5.28102973 19.4733243,5.49192162 19.4733243,5.49192162 L19.4857297,5.55978649 L21.3874054,5.81057027 L18.2527297,6.04554324 L18.2206216,6.09370541 C18.2206216,6.09370541 19.413973,6.2523 20.1103784,6.37878649 C19.1797297,6.42621892 17.1912162,6.63711081 17.1912162,6.63711081 L17.1715135,6.69816486 L18.9340541,6.93192162 L16.1518378,7.21602973 L16.1557297,7.28802973 L18.0257838,7.53638108 C17.1004865,7.66043514 15.2238649,7.80102973 15.2238649,7.80102973 L15.2238649,7.8525973 L16.902973,8.12454324 L14.1796216,8.40986757 L14.1956757,8.46167838 C14.1956757,8.46167838 15.5539459,8.57211081 15.9068919,8.67670541 C15.2457568,8.78470541 13.3226757,9.03281351 13.3226757,9.03281351 L13.3499189,9.08121892 C13.3499189,9.08121892 14.6011622,9.17681351 14.8915946,9.24492162 C13.2625946,9.41567838 12.4679189,9.51370541 12.4679189,9.51370541 L12.4971081,9.55651622 C12.4971081,9.55651622 13.6907027,9.75257027 14.0886486,9.83502973 C13.2521351,9.95811081 12.3608919,10.0315703 11.5258378,10.1198676 L11.5686486,10.1677865 C11.5686486,10.1677865 12.753973,10.3334351 13.1808649,10.4231919 C12.3248919,10.5825162 10.6676757,10.7075432 10.6676757,10.7075432 L10.7170541,10.7613 C10.7170541,10.7613 11.8953243,10.9128405 12.2368378,10.9926243 C11.4278108,11.1069486 9.99218919,11.2237054 9.99218919,11.2237054 L9.99218919,11.2772189 C9.99218919,11.2772189 10.8839189,11.4545432 11.3648108,11.5627865 C10.5805946,11.6863541 9.86789189,11.7761108 9.13743243,11.8286514 L9.13743243,11.8644081 L10.5971351,12.1499757 C10.5971351,12.1499757 9.08391892,12.3275432 8.28364865,12.416327 L8.28997297,12.4713 L9.77862162,12.7198946 C9.77862162,12.7198946 8.38848649,12.8804351 7.67748649,12.9509757 L7.67748649,13.0047324 C7.67748649,13.0047324 9.9792973,13.1623541 11.6686216,12.9872189 L11.6525676,12.9290838 L10.1585676,12.8300838 L12.3051892,12.5053541 L12.4774054,12.4192459 C11.9245135,12.3669486 11.52,12.2898405 10.9865676,12.2368135 C11.8216216,12.112273 13.4837027,11.8644081 13.4837027,11.8644081 L13.4868649,11.8067595 C13.4868649,11.8067595 12.3645405,11.7513 11.9184324,11.6218946 L14.3695946,11.3227054 L14.3875946,11.2633541 C14.3875946,11.2633541 13.5167838,11.1915973 12.8721892,11.0697324 C13.6242973,10.9563811 15.3917027,10.7284622 15.3917027,10.7284622 L15.4162703,10.6781108 L13.842,10.4978676 L13.8906486,10.4548135 C13.8906486,10.4548135 15.6709459,10.2220297 16.4461622,10.1013811 L16.4751081,10.0665973 C16.4751081,10.0665973 15.9443514,9.95811081 14.7653514,9.83502973 C15.6378649,9.69151622 17.4913784,9.58521892 17.4913784,9.58521892 L17.5171622,9.51613784 L15.6930811,9.31716486 L18.620027,8.98975946 L18.6355946,8.92238108 C18.6355946,8.92238108 17.5069459,8.81632703 16.8324324,8.68765135 L19.8503514,8.40232703 L19.8836757,8.34540811 L17.874973,8.10192162 L21.1295676,7.83484054 L21.1541351,7.76746216 L19.1123514,7.53638108 C19.1123514,7.53638108 21.3557838,7.39408378 22.4245946,7.2513 L22.4170541,7.17394865 C22.4170541,7.17394865 20.4484865,7.03846216 20.3239459,6.94943514 C21.5355405,6.78938108 23.9047297,6.64562432 23.9047297,6.64562432 L23.8555946,6.59624595 L21.7135946,6.36102973 C21.7135946,6.36102973 24.4739189,6.19951622 25.578,6.07594865 L25.5784865,6.01173243 L23.1552973,5.77432703 L27.3512432,5.47635405 L27.36,5.42502973 L24.6697297,5.22143514 L29.6708108,4.84781351 L29.6382162,4.79746216 C29.6382162,4.79746216 27.6044595,4.68094865 26.379973,4.6503 C28.0286757,4.43040811 30.0276486,4.28592162 31.7882432,4.17865135 C35.7504324,3.93467838 38.8109189,4.6503 38.8109189,4.6503 C38.8109189,4.6503 37.2264324,4.69116486 36.7642703,4.79746216 L36.8348108,4.88697568 L39.3102973,5.23894865 L37.9675946,5.45324595 L38.0184324,5.52451622 L39.5734865,5.76897568 L39.6812432,5.88597568 L38.6348108,6.07594865 L38.7218919,6.16497568 L39.8989459,6.39702973 L38.9198919,6.67140811 L38.9729189,6.73513784 L40.0069459,6.96694865 L38.9729189,7.21602973 L39.0045405,7.27416486 L40.0069459,7.46681351 L40.0069459,7.55462432 C40.0069459,7.55462432 39.294,7.71443514 38.9729189,7.76843514 C38.9909189,7.80273243 38.9702432,7.84311081 38.9702432,7.84311081 L39.9877297,8.12454324 C39.9877297,8.12454324 38.8941081,8.34540811 38.8627297,8.35294865 C38.8279459,8.36097568 38.8109189,8.42665135 38.8109189,8.42665135 C39.1147297,8.51640811 39.8267027,8.67670541 39.8267027,8.67670541 L38.6348108,8.92675946 L38.6267838,9.01384054 L39.5783514,9.24492162 L39.5783514,9.28262432 L38.385,9.51370541 L38.385,9.62048919 L39.3820541,9.85327297 L38.0116216,10.1361649 L38.0291351,10.2079216 L39.0607297,10.4231919 L37.7372432,10.681273 L37.6912703,10.796327 L38.7053514,11.0103811 L37.2631622,11.2237054 L37.2444324,11.3122459 L38.2962162,11.5445432 L38.2962162,11.5985432 L36.7812973,11.8473811 L36.8182703,11.9184081 C36.8182703,11.9184081 37.6372703,12.0429486 37.9036216,12.1684622 C37.3344324,12.2930027 36.2833784,12.452327 36.2833784,12.452327 L36.3427297,12.535273 L37.4777027,12.7198946 L35.7835135,13.0227324 L35.8377568,13.1120027 L36.9418378,13.3075703 L35.3043243,13.5393811 L35.306027,13.6388676 L36.4186216,13.8232459 L36.4088919,13.8962189 L34.6976757,14.1268135 L34.6976757,14.1990568 C35.0727568,14.3060838 35.5536486,14.3226243 35.9627838,14.4478946 C35.4283784,14.5901919 34.6976757,14.6441919 34.1102432,14.7334622 L34.1644865,14.8217595 C34.1644865,14.8217595 34.9992973,14.9463 35.3571081,15.0538135 C34.7689459,15.1425973 33.4155405,15.3379216 33.4155405,15.3379216 L33.4821892,15.413327 C33.4821892,15.413327 34.3420541,15.5167054 34.7876757,15.6052459 C34.1815135,15.7485162 33.5926216,15.7655432 32.9874324,15.8365703 L32.8816216,15.9268135 C33.2554865,16.0328676 33.6811622,16.0508676 34.1102432,16.1583811 L34.1102432,16.2118946 C33.5578378,16.3714622 32.2219459,16.4789757 32.2219459,16.4789757 L32.2219459,16.5497595 L33.5035946,16.7450838 C33.5035946,16.7450838 32.0426757,16.9411378 31.545973,17.0486514 L31.5763784,17.1099486 L32.8816216,17.3702189 L30.8824054,17.5696784 L30.852,17.6360838 L32.2124595,17.8708135 L32.2049189,17.9377054 C31.6009459,18.0848676 30.1373514,18.1714622 30.1373514,18.1714622 L30.0843243,18.2410297 C30.0843243,18.2410297 31.0281081,18.349273 31.5109459,18.5085973 C30.8568649,18.6518676 29.2755405,18.7576784 29.2755405,18.7576784 C29.2755405,18.7576784 29.2879459,18.8073 29.2290811,18.8294351 C29.7627568,18.9191919 30.8322973,19.078273 30.8322973,19.078273 C30.8322973,19.078273 29.0502973,19.240273 28.3560811,19.3648135 L28.4052162,19.427327 L29.9067568,19.6661919 L27.2704865,19.9522459 L27.3351892,20.0120838 L29.0332703,20.2198135 L26.1136216,20.5406514 L26.1654324,20.5985432 L27.9467027,20.8070027 L24.7402703,21.110327 L24.7682432,21.1757595 C24.7682432,21.1757595 26.1846486,21.2696514 26.9496486,21.3769216 C25.0195135,21.6508135 22.698973,21.8731378 21.1787027,21.3949216 C21.4637838,21.2696514 22.2407027,21.1147054 22.2407027,21.1147054 L22.3309459,21.0363811 C22.3309459,21.0363811 21.5783514,20.8729216 21.204973,20.8026243 C21.7211351,20.6411108 22.7096757,20.5214351 22.7096757,20.5214351 L22.6374324,20.4343541 C22.6374324,20.4343541 21.9293514,20.3951919 21.6060811,20.2198135 C22.1913243,20.1497595 22.8291081,20.0930838 23.3163243,19.8982459 C22.9772432,19.8598135 22.4798108,19.8099486 22.0517027,19.6306784 L23.9047297,19.3995973 L23.9149459,19.3183541 C23.9149459,19.3183541 23.0864595,19.2524351 22.6221081,19.078273 C23.2795946,18.9727054 24.6527027,18.7941649 24.6527027,18.7941649 L24.6167027,18.7224081 C24.6167027,18.7224081 23.6549189,18.6153811 23.2270541,18.4903541 C24.1000541,18.3735973 25.3950811,18.2223 25.3950811,18.2223 L25.3877838,18.1478676 C25.3877838,18.1478676 24.3145946,18.0804892 24.0102973,17.9036514 L26.0552432,17.6677054 L26.1306486,17.5833 C26.0593784,17.5653 25.0243784,17.4619216 24.7402703,17.3332459 C25.4347297,17.1727054 26.2739189,17.2614892 26.8966216,17.0119216 C26.4334865,16.8710838 25.8973784,16.9596243 25.4882432,16.7815703 C26.0953784,16.6040027 26.9148649,16.6195703 27.5013243,16.513273 L27.5013243,16.4420027 C27.108973,16.3894622 26.6115405,16.3009216 26.2189459,16.1934081 C26.7908108,16.0508676 27.9853784,15.9506514 28.071973,15.9431108 L28.1772973,15.8733 C27.7681622,15.8197865 27.2337568,15.7300297 26.8088108,15.6052459 C27.4300541,15.4641649 28.7486757,15.3379216 28.7839459,15.3379216 L28.7839459,15.2666514 C28.7839459,15.2666514 27.6258649,15.1778676 27.5915676,15.0180568 C28.197,14.8404892 29.3718649,14.7497595 29.3718649,14.7497595 L29.3718649,14.6967324 C29.3718649,14.6967324 28.3709189,14.5274351 28.0697838,14.3671378 C28.5511622,14.2953811 28.5893514,14.3793 29.8024054,14.1941919 L29.888027,14.1095432 L28.6778919,13.8266514 L30.3662432,13.6473811 L30.4058919,13.5928946 L29.2402703,13.352327 C29.2402703,13.352327 29.2402703,13.3141378 29.2118108,13.3075703 L30.7904595,13.0446243 L30.815027,13.0047324 L29.6907568,12.7503 L29.6922162,12.7014081 C30.1383243,12.596327 31.1531351,12.452327 31.1531351,12.452327 L31.1531351,12.3990568 C30.7615135,12.3107595 30.0672973,12.1499757 30.0672973,12.1499757 L31.3073514,11.8736514 L31.3499189,11.8121108 L30.3158919,11.5627865 L31.5109459,11.3302459 L31.5109459,11.2772189 L30.4937027,10.9926243 L31.5671351,10.7613 L31.580027,10.7075432 L30.2626216,10.4231919 L31.4092703,10.1850568 L31.4389459,10.1198676 L29.1942973,9.83502973 L30.9317838,9.61684054 L30.9653514,9.54070541 L30.4937027,9.46116486 C28.2142703,9.26462432 25.8268378,9.42370541 23.6009189,9.56892162 L23.6549189,9.60321892 C23.6549189,9.60321892 25.2754054,9.70927297 26.0593784,9.79805676 L26.0593784,9.85327297 C24.758027,9.95811081 21.9624324,10.1361649 21.9624324,10.1361649 L22.0249459,10.1955162 C22.0249459,10.1955162 23.7084324,10.2799216 24.4391351,10.4231919 C23.1377838,10.5465162 20.5902973,10.7075432 20.5902973,10.7075432 L20.6474595,10.7664081 L22.7461622,10.9926243 L22.7065135,11.0381108 L19.3587568,11.2614081 L19.3064595,11.3122459 L21.3044595,11.5445432 L21.3044595,11.5985432 C21.3044595,11.5985432 19.1641622,11.7408405 18.2033514,11.8644081 C18.2206216,11.8828946 18.1984865,11.9184081 18.1984865,11.9184081 L20.1629189,12.1499757 C20.1629189,12.1499757 17.8686486,12.3107595 16.8694054,12.416327 L16.9238919,12.4713 L18.8625405,12.7374081 L15.7662973,13.0227324 L15.8278378,13.0852459 C15.8278378,13.0852459 17.1357568,13.2185432 17.7059189,13.3075703 C16.9399459,13.451327 14.8898919,13.5753811 14.8898919,13.5753811 L14.8349189,13.6305973 L16.6901351,13.8599757 L16.6901351,13.8962189 L13.985027,14.1268135 L13.985027,14.1990568 C13.985027,14.1990568 15.3355135,14.3413541 15.8336757,14.4478946 C14.9446216,14.6079486 13.0942703,14.7497595 13.0942703,14.7497595 L13.1317297,14.8047324 L14.8178919,15.0358135 L14.8032973,15.0810568 L12.222973,15.3364622 L12.2614054,15.3928946 L13.9293243,15.6237324 L11.4139459,15.8840027 L11.4584595,15.9431108 C11.4584595,15.9431108 12.6454865,16.0180297 13.0728649,16.1934081 C12.4153784,16.3184351 10.7104865,16.4609757 10.7104865,16.4609757 L10.7564595,16.5205703 C10.7564595,16.5205703 11.987027,16.6195703 12.3791351,16.7635703 C11.6686216,16.8881108 9.99802703,17.0486514 9.99802703,17.0486514 L10.0247838,17.1225973 L11.6146216,17.3702189 L9.30697297,17.5786784 L9.24908108,17.6360838 L10.8651892,17.9216514 L8.64364865,18.1884892 L8.64364865,18.2595162 L10.1712162,18.4903541 L8.05524324,18.7717865 L7.99418919,18.8294351 L9.5652973,19.078273 L7.40408108,19.3460838 L7.44689189,19.4124892 L8.90464865,19.6484351 L6.80132432,19.9709757 L6.83708108,20.021327 L8.2637027,20.2550838 L6.18810811,20.5065973 L6.19467568,20.5749486 L7.62397297,20.8070027 L5.69456757,21.0553541 L5.72059459,21.1307595 C6.1127027,21.2205162 7.08908108,21.3949216 7.08908108,21.3949216 L5.07332432,21.6795162 L5.14775676,21.7490838 L6.55564865,21.9818676 L4.55764865,22.2504081 L4.60532432,22.3017324 L5.96724324,22.5525162 L4.03516216,22.8191108 L4.03516216,22.8906243 L5.46932432,23.1044351 L3.55305405,23.4084892 L3.51827027,23.4607865 L5.00497297,23.7096243 L3.14562162,23.9798676 L3.11132432,24.0418946 L4.52286486,24.2797865 L2.95832432,24.4631919 L2.80216216,24.4811919 L2.6622973,24.6015973 L4.07943243,24.8677054 L2.26921622,25.1284622 L2.3022973,25.1793 L3.66956757,25.4028405 L1.95786486,25.6796514 L1.95908108,25.7750027 L3.3317027,25.9912459 L1.629,26.2777865 L1.62097297,26.3641378 L2.90310811,26.5952189 L1.28286486,26.8443 L1.28286486,26.9160568 C1.6037027,26.9883 2.54748649,27.1653811 2.54748649,27.1653811 C2.54748649,27.1653811 1.42443243,27.3251919 1.01578378,27.4151919 L1.01578378,27.4825703 L2.20889189,27.7007595 L2.20889189,27.752327 L0.765,27.9848676 L0.770351351,28.0612459 L2.04737838,28.3057054 C2.04737838,28.3057054 0.89027027,28.4835162 0.516405405,28.5903 L0.520054054,28.6530568 L1.7802973,28.9099216 L0.338594595,29.1419757 L0.338594595,29.2312459 C0.641918919,29.3217324 1.5857027,29.4820297 1.5857027,29.4820297 L0.163702703,29.6987595 L0.159567568,29.7661378 L1.4417027,30.0159486 L1.43902703,30.0993811 L0.159567568,30.2477595 L0.153486486,30.3423811 L1.35340541,30.5856243 L1.35340541,30.6398676 L0.159567568,30.8344622 L0.153486486,30.9351649 L1.35340541,31.1735432 L0.159567568,31.4046243 L0.146189189,31.4705432 C0.146189189,31.4705432 0.654810811,31.5637054 1.53218919,31.7609757 L0.249810811,32.0098135 L0.254189189,32.0905703 L1.76327027,32.3493811 L0.428108108,32.5809486 L0.428108108,32.6510027 L2.20889189,32.9180838 L0.765,33.1501378 L0.765,33.2384351 L2.90310811,33.5074622 L2.90310811,33.5424892 L1.26510811,33.7735703 L1.37335135,33.8445973 L4.52286486,34.0761649 C3.77659459,34.2184622 2.38597297,34.2902189 2.38597297,34.2902189 L2.54748649,34.4330027 C2.54748649,34.4330027 5.32435135,34.7769486 7.39921622,34.8105162 C7.07618919,34.8817865 5.82445946,35.0007324 5.36862162,35.0114351 C5.31948649,35.0128946 5.38589189,35.1118946 5.44208108,35.1150568 C6.48194595,35.1855973 8.16518919,35.267327 8.82851351,35.2702459 C9.45705405,35.2729216 10.9491081,35.1561649 11.8841351,35.0433 C11.9006757,35.0138676 11.9055405,34.9749486 11.9184324,34.9518405 C11.5382432,34.9219216 10.7243514,34.8384892 10.556027,34.7844892 C10.7073243,34.790327 14.8867297,34.567273 14.8867297,34.567273 L15.1292432,34.3442189 C15.1292432,34.3442189 14.3562162,34.3714622 13.0081622,34.2919216 C11.781,34.2184622 11.7124054,34.2077595 11.2020811,34.0761649 C13.3574595,34.108273 16.9992973,33.8044622 16.9992973,33.8044622 L17.1785676,33.6706784 L14.2662162,33.4707324 C15.7988919,33.3646784 18.8442973,33.2218946 18.8442973,33.2218946 L18.9340541,33.1501378 C18.9340541,33.1501378 17.0805405,33.1155973 16.2622703,32.9368135 C17.7577297,32.812273 20.4662432,32.6510027 20.4662432,32.6510027 L20.4304865,32.5809486 C20.4304865,32.5809486 18.8625405,32.4729486 18.0075405,32.3493811 C19.2899189,32.1888405 21.9446757,32.0465432 21.9446757,32.0465432 L21.9293514,31.9319757 C21.9293514,31.9319757 19.7187568,31.8310297 19.6990541,31.7434622 C20.9288919,31.6174622 22.3015135,31.6551649 23.3511081,31.4751649 L23.301973,31.3970838 C23.301973,31.3970838 21.0814054,31.1949486 21.2857297,31.1735432 C21.4878649,31.1521378 24.4194324,30.9594892 24.4194324,30.9594892 L24.5984595,30.8527054 C24.5984595,30.8527054 23.2270541,30.6744081 22.5316216,30.6398676 C23.6009189,30.4963541 25.7728378,30.3365432 25.7728378,30.3365432 L25.7215135,30.2643 C25.7215135,30.2643 24.4391351,30.1412189 23.8142432,30.0507324 C24.7945135,29.8554081 26.9866216,29.7661378 26.9866216,29.7661378 L26.9593784,29.6345432 C26.9593784,29.6345432 25.1496486,29.4457865 25.0623243,29.4628135 C25.8005676,29.3431378 27.9715135,29.2217595 27.9715135,29.2217595 L28.071973,29.1607054 L26.2189459,28.8756243 L28.9444865,28.643327 L29.1220541,28.5367865 L27.2337568,28.3271108 L29.9695135,28.0612459 L30.1555946,27.9673541 C30.1555946,27.9673541 28.962,27.878327 28.3745676,27.7007595 C29.0378919,27.6319216 31.0071892,27.5263541 31.0071892,27.5263541 L31.1356216,27.4504622 L29.4623514,27.1476243 L31.9448919,26.9347865 L32.1161351,26.8443 C32.1161351,26.8443 30.9390811,26.6684351 30.4937027,26.6127324 L30.4937027,26.5779486 C31.1905946,26.4704351 32.859,26.3227865 32.859,26.3227865 L32.9694324,26.2381378 C32.9694324,26.2381378 31.8497838,26.1505703 31.3499189,26.0265162 C32.0796486,25.9012459 33.8251622,25.7407054 33.8251622,25.7407054 L33.9144324,25.6497324 C33.9144324,25.6497324 32.7242432,25.5305432 32.2937027,25.4198676 C33.0409459,25.2958135 34.7689459,25.1340568 34.7689459,25.1340568 C34.7689459,25.1340568 33.8290541,24.8840027 33.1657297,24.8149216 C34.0387297,24.7071649 35.6071622,24.5468676 35.6071622,24.5468676 C35.6071622,24.5468676 35.3765676,24.5094081 35.0973243,24.4617324 L35.0914865,24.4617324 C34.6468378,24.3853541 34.074,24.2836784 34.074,24.2627595 C34.8056757,24.1007595 36.3191351,23.9956784 36.3191351,23.9956784 L36.3906486,23.9241649 C36.3906486,23.9241649 35.2690541,23.7808946 34.9105135,23.7096243 C35.6429189,23.5138135 37.1566216,23.4245432 37.1566216,23.4245432 L37.1028649,23.3544892 L37.1225676,23.3544892 C37.1225676,23.3544892 36.1233243,23.2469757 35.6764865,23.1044351 C36.3719189,22.9806243 37.854973,22.9203 37.8211622,22.8976784 C37.7885676,22.8757865 37.9211351,22.838327 37.9211351,22.838327 C37.9211351,22.838327 36.9065676,22.6768135 36.4796757,22.5345162 C37.2176757,22.4632459 38.5263243,22.3216784 38.5263243,22.3216784 C38.5263243,22.3216784 38.6513514,22.2504081 38.7053514,22.2144081 C37.2984324,22.0626243 34.2698108,22.2504081 34.2698108,22.2504081 L34.3595676,22.3216784 L35.891027,22.4445162 L35.8757027,22.5525162 L33.5035946,22.784327 L33.4155405,22.8740838 L34.9652432,23.1044351 L32.5060541,23.4607865 L32.5782973,23.522327 L34.1102432,23.6930838 C33.2372432,23.8183541 32.3472162,23.8706514 31.545973,23.9599216 L31.6165135,24.0311919 L33.219,24.2627595 C33.219,24.2627595 32.1925135,24.3605432 31.3221892,24.4631919 L31.3056486,24.4631919 C31.0135135,24.4982189 30.7403514,24.5339757 30.5304324,24.5643811 L30.6274865,24.638327 L32.2219459,24.8494622 L29.5146486,25.1715162 L29.5917568,25.2401108 C29.5917568,25.2401108 30.7649189,25.2958135 31.2516486,25.3734081 C30.3786486,25.5349216 29.3010811,25.5979216 28.4815946,25.7044622 L28.5431351,25.7874081 L30.2626216,25.9912459 L27.2872703,26.2933541 L27.3488108,26.3891919 L29.1942973,26.5779486 L26.0428378,26.8790838 L26.0888108,26.9576514 C26.0888108,26.9576514 27.2872703,27.0583541 27.9467027,27.1476243 C26.8778919,27.2908946 25.7215135,27.2908946 24.7762703,27.4869486 L24.8521622,27.5489757 L26.7533514,27.7350568 L23.4250541,27.9838946 L23.5031351,28.0719486 L25.631027,28.3057054 C25.631027,28.3057054 23.120027,28.4650297 21.8731622,28.6090297 C21.9266757,28.6090297 21.9415135,28.6766514 21.9415135,28.6766514 L24.2048919,28.8756243 C24.2048919,28.8756243 21.4990541,29.0354351 20.1629189,29.1782189 C20.2341892,29.2137324 20.3013243,29.2713811 20.3013243,29.2713811 C20.3013243,29.2713811 22.5685946,29.4093 22.6374324,29.4628135 C21.2723514,29.5730027 18.2575946,29.7843811 18.2575946,29.7843811 L18.3602432,29.8736514 C18.3602432,29.8736514 20.4684324,29.9570838 21.0188919,30.0332189 C19.3247027,30.1937595 17.6166486,30.1937595 15.9947027,30.3365432 L16.0358108,30.4245973 C16.0358108,30.4245973 18.1422973,30.4591378 19.413973,30.6206514 C11.942027,31.5352459 6.96016216,30.6206514 6.96016216,30.6206514 L9.04524324,30.5552189 L9.0162973,30.4525703 L6.78721622,30.0332189 L8.298,29.8196514 L8.28948649,29.7228405 L6.37637838,29.4628135 L6.41651351,29.3725703 L7.67043243,29.2543541 C7.67043243,29.2543541 7.69256757,29.1419757 7.70959459,29.1247054 C7.30045946,29.0709486 6.55564865,29.0184081 6.1272973,28.8756243 C6.51818919,28.7685973 7.44154054,28.6980568 7.44154054,28.6980568 L7.47948649,28.6090297 C7.47948649,28.6090297 6.39632432,28.519273 6.02124324,28.3057054 C6.44983784,28.2176514 7.28221622,28.1091649 7.28221622,28.1091649 L7.3727027,28.0018946 L5.94924324,27.7350568 L7.26810811,27.5489757 L7.28221622,27.4151919 C7.28221622,27.4151919 6.28783784,27.2908946 5.94924324,27.1476243 C6.31605405,27.0123811 7.33572973,26.8790838 7.33572973,26.8790838 L7.30289189,26.762327 C7.30289189,26.762327 6.25135135,26.6623541 6.03948649,26.5952189 C6.48413514,26.4115703 7.44154054,26.2741378 7.44154054,26.2741378 L7.43667568,26.177327 C7.43667568,26.177327 6.53254054,26.0929216 6.10856757,25.9912459 C6.48413514,25.9100027 7.62032432,25.7236784 7.62032432,25.7236784 L7.51378378,25.6344081 L6.21705405,25.4198676 L7.79959459,25.0995162 L6.46540541,24.8494622 L6.50116216,24.755327 C6.50116216,24.755327 7.6752973,24.7244351 8.04818919,24.5468676 C7.97278378,24.5094081 7.86089189,24.4831378 7.73416216,24.4617324 L7.72127027,24.4617324 C7.3692973,24.4011649 6.89108108,24.3778135 6.64297297,24.2627595 C6.99956757,24.1379757 8.298,24.0129486 8.298,24.0129486 L8.298,23.9241649 L6.98327027,23.6930838 L8.65313514,23.4245432 L8.72489189,23.3155703 L7.23137838,23.1044351 L8.86767568,22.9254081 L8.99294595,22.7660838 C8.99294595,22.7660838 7.88983784,22.6420297 7.60572973,22.5160297 L9.34394595,22.3216784 L9.43248649,22.2144081 L8.03043243,21.9276243 L9.86059459,21.697273 L9.86059459,21.6080027 L8.42424324,21.3769216 L10.3424595,21.110327 L10.3767568,21.0385703 C10.3767568,21.0385703 9.22718919,20.9658405 8.85332432,20.8070027 C9.38651351,20.6642189 10.7688649,20.5749486 10.7688649,20.5749486 L10.8763784,20.4856784 L9.36778378,20.2550838 L11.4798649,19.9344892 L9.90340541,19.6306784 L12.087973,19.3280838 L10.4918108,19.078273 L12.6561892,18.7941649 L12.6732162,18.7224081 L10.9897297,18.4903541 L13.2370541,18.2480838 L13.2971351,18.1344892 C13.2971351,18.1344892 12.0938108,18.0466784 11.6846757,17.9216514 C12.3961622,17.7618405 14.1341351,17.6178405 14.1341351,17.6178405 L14.1244054,17.5117865 L12.3791351,17.3152459 L14.5712432,17.0119216 L13.1268649,16.7635703 L15.3522973,16.513273 L15.4004595,16.3746243 L13.8758108,16.1934081 L16.1856486,15.9562459 L16.208027,15.8365703 L14.7814054,15.6300568 L17.2887568,15.4031108 L17.3320541,15.3036243 L15.7288378,15.0903 L15.7988919,15.0358135 L18.2575946,14.8047324 L18.4334595,14.6967324 C18.4334595,14.6967324 17.2556757,14.5344892 16.5473514,14.4836514 C17.7059189,14.3060838 19.9688108,14.1808135 19.9688108,14.1808135 L19.9688108,14.1095432 L17.6519189,13.8779757 C17.6519189,13.8779757 22.0276216,13.3854081 24.0421622,13.9232189 C24.0085946,13.928327 24.0528649,14.0117595 24.0528649,14.0117595 L22.6374324,14.074273 L22.6033784,14.1920027 L23.8497568,14.4478946 L22.3924865,14.6259486 L22.3005405,14.7427054 L23.4773514,15.0538135 L21.8410541,15.2530297 L21.7965405,15.3364622 L23.1034865,15.6052459 C23.1034865,15.6052459 22.455,15.7215162 21.3214865,15.8365703 L21.2553243,15.9487054 L22.4798108,16.1934081 L20.3927838,16.4580568 L20.3582432,16.5307865 L21.8914054,16.7635703 C21.8914054,16.7635703 20.3764865,16.9228946 19.5932432,17.0656784 L19.6316757,17.1267324 L21.1081622,17.3332459 L18.8795676,17.6531108 L18.9287027,17.7027324 L20.2526757,17.9377054 L20.2502432,17.9800297 L18.2281622,18.1821649 L18.2033514,18.2595162 L19.5762162,18.4903541 L17.6166486,18.7759216 L17.6166486,18.8654351 L18.8795676,19.078273 L17.01,19.3460838 L17.0635135,19.4348676 L18.2911622,19.6661919 L16.4055405,19.9522459 L16.4948108,20.005273 L17.6871892,20.2198135 L15.984973,20.473273 L15.9407027,20.5406514 L17.1715135,20.7894892 L15.4773243,21.0740838 L15.4602973,21.1446243 L16.7083784,21.3769216 L15.0864324,21.6795162 L15.1221892,21.7503 L16.227973,21.9276243 L14.7385946,22.1803541 L14.6957838,22.2504081 L15.7988919,22.5525162 L14.4454865,22.784327 L14.4454865,22.8740838 L15.5490811,23.0874081 L15.5410541,23.1654892 L14.2662162,23.3544892 L14.246027,23.4500838 L15.2751892,23.6600027 L15.264,23.7808946 L14.1051892,23.9268405 L14.0886486,23.9956784 L15.2078108,24.2199486 L15.2007568,24.2948676 L14.3277568,24.4631919 L14.1117568,24.5040568 L14.0952162,24.5709486 L15.4773243,24.8494622 L15.4602973,24.9217054 L14.3277568,25.0732459 L14.337973,25.1340568 C14.337973,25.1340568 16.3354865,25.4595162 17.5631351,25.4242459 C16.4751081,25.4595162 14.7840811,25.6497324 14.7840811,25.6497324 L14.9986216,25.747273 C15.7546216,25.8209757 16.5220541,25.8615973 17.2556757,25.8808135 C17.2491081,25.8842189 17.244973,25.8868946 17.2374324,25.8890838 C16.9842162,26.0308946 15.7422162,26.177327 15.7422162,26.177327 L15.9983514,26.2933541 C15.9983514,26.2933541 18.1398649,26.4419757 20.600027,26.3133 L20.6545135,26.2072459 C20.6545135,26.2072459 19.5183243,26.0094892 19.3920811,25.9104892 C19.377,25.9012459 19.3636216,25.8941919 19.3514595,25.8868946 C20.8405946,25.855273 21.8853243,25.7655162 21.8853243,25.7655162 L22.1988649,25.6305162 C22.1988649,25.6305162 20.8481351,25.4809216 19.404973,25.4257054 C21.3998108,25.4257054 23.6816757,25.1396514 23.6816757,25.1396514 L23.7244865,25.061327 L21.4097838,24.8149216 L24.9628378,24.6271378 L25.0253514,24.5468676 L24.3155676,24.4631919 L23.0665135,24.316273 L23.0665135,24.2440297 L25.9516216,24.0311919 L26.1306486,23.9419216 L24.2418649,23.7096243 L27.1281892,23.4084892 L27.1598108,23.3335703 C27.1598108,23.3335703 26.0593784,23.2469757 25.4177027,23.1044351 C26.235973,23.0151649 28.0415676,22.8874622 28.0415676,22.8874622 L28.0897297,22.784327 C27.5205405,22.6768135 27.0031622,22.6768135 26.4522162,22.5345162 C27.3587838,22.3737324 29.1220541,22.2321649 29.1220541,22.2321649 L29.0989459,22.1402189 L27.5013243,21.9641108 L29.9142973,21.6936243 L29.978027,21.6080027 C29.4623514,21.5372189 28.9279459,21.5192189 28.3745676,21.3949216 C29.1407838,21.2696514 30.762,21.1254081 30.762,21.1254081 L30.7615135,21.0385703 C30.7615135,21.0385703 29.7464595,20.9330027 29.3010811,20.8070027 C29.6382162,20.7530027 31.608973,20.6116784 31.608973,20.6116784 L31.6875405,20.5214351 L30.1555946,20.2198135 L32.5435135,19.9344892 L31.0468378,19.6306784 L33.308027,19.3280838 L31.8298378,19.0970027 L34.0387297,18.7941649 L34.0567297,18.7224081 C34.0567297,18.7224081 32.8986486,18.5436243 32.5600541,18.4903541 C32.5600541,18.4903541 34.2698108,18.3303 34.7689459,18.2244892 L34.7689459,18.1517595 C34.3055676,18.0634622 33.8251622,18.0804892 33.3982703,17.9036514 C34.0387297,17.7963811 35.3395946,17.7071108 35.3395946,17.7071108 L35.5339459,17.6000838 L34.1644865,17.3872459 L34.1644865,17.3332459 L36.2125946,17.0656784 L36.2125946,16.9953811 L34.8565135,16.7815703 C35.5188649,16.6555703 36.8892973,16.4789757 36.8892973,16.4789757 L36.9065676,16.3858135 L35.5536486,16.1583811 L37.4227297,15.9788676 L37.5842432,15.9085703 L36.2478649,15.5882189 L38.0116216,15.3924081 L38.1887027,15.2856243 C38.0828919,15.2856243 36.9513243,15.0915162 36.9513243,15.0915162 C36.9513243,15.0915162 36.9727297,15.0484622 36.9250541,15.0180568 C37.5317027,14.9825432 38.5642703,14.8404892 38.5642703,14.8404892 L38.7771081,14.6967324 L37.5842432,14.4478946 L39.3820541,14.1990568 L39.3820541,14.1268135 L38.1169459,13.8779757 L39.9524595,13.6534622 C39.9524595,13.6534622 39.9383514,13.5765973 39.9877297,13.5571378 C39.6318649,13.4858676 38.7218919,13.2725432 38.7218919,13.2725432 L40.4311622,13.0516784 L40.4873514,12.9509757 L39.3102973,12.7014081 L41.0044865,12.4890568 L41.0565405,12.3990568 L39.8989459,12.1499757 L41.4897568,11.9140297 L41.5191892,11.8121108 L40.3525946,11.5007595 L42.0353514,11.2959486 L42.0584595,11.2210297 L40.8602432,10.9755973 L42.4386486,10.7540027 L42.4644324,10.6540297 C42.3948649,10.672273 41.3773784,10.3874351 41.3773784,10.3874351 L42.9292703,10.1405432 L42.9163784,10.0517595 L41.769,9.85327297 L43.3187027,9.58521892 L43.3187027,9.49521892 L42.1971081,9.26462432 L43.6322432,9.03694865 L43.6568108,8.92675946 C43.6568108,8.92675946 42.9630811,8.81851622 42.6057568,8.67670541 C43.0158649,8.58865135 43.605973,8.51640811 43.9954054,8.42665135 L43.9954054,8.33811081 C43.6397838,8.26684054 43.3011892,8.25005676 42.9630811,8.10654324 C43.3727027,8.01848919 44.3322973,7.85673243 44.3322973,7.85673243 L44.3322973,7.76843514 C44.0124324,7.69740811 43.6397838,7.66043514 43.3187027,7.53638108 C43.7103243,7.39408378 44.6003514,7.27027297 44.6003514,7.27027297 L44.6003514,7.18002973 L43.569,6.96694865 L43.5755676,6.90686757 L44.7582162,6.71640811 L44.8501622,6.6285973 L43.8531081,6.47170541 C43.8531081,6.47170541 43.8589459,6.39581351 43.8173514,6.37878649 C44.2281892,6.27175946 44.6003514,6.19951622 45.0294324,6.14673243 L45.0294324,6.04043514 C44.7453243,5.96916486 44.0659459,5.79038108 44.0659459,5.79038108 L45.1887568,5.55978649 L45.1887568,5.47051622 L44.2233243,5.26740811 L44.1912162,5.20294865 L45.2792432,5.00616486 L45.2792432,4.88357027 L44.3164865,4.66757027 L44.3164865,4.61478649 L45.2792432,4.45570541 L45.2792432,4.29419189 L44.3322973,4.08062432 L45.3038108,3.82716486 L45.2792432,3.7250027 Z" id="Fill-1"></path>
                </g>
                <path d="M45.1320811,3.66482432 C45.1320811,3.66482432 44.3848378,3.50477027 44.0995135,3.43252703 C44.3478649,3.34447297 44.9929459,3.27417568 45.2578378,3.20241892 L45.2512703,3.12263514 C44.8260811,2.99882432 44.2055676,2.97060811 43.9387297,2.82855405 L44.9535405,2.61425676 L44.9535405,2.5245 C44.4918649,2.41795946 43.5653514,2.27614865 43.5653514,2.27614865 L44.6864595,2.02633784 L44.6159189,1.93755405 L42.9061622,1.6695 L44.1885405,1.43866216 L44.0995135,1.35012162 L41.642027,1.17158108 L41.5705135,1.10031081 L43.5293514,0.904986486 L43.5123243,0.814743243 C42.8013243,0.719391892 41.3939189,0.587797297 41.3939189,0.587797297 L41.3255676,0.542797297 L42.2567027,0.4815 L42.3306486,0.417040541 C42.3306486,0.417040541 39.8848378,-0.0246891892 37.9902162,0.00474324324 C35.9107297,-0.0405 33.7203243,0.259905405 33.7203243,0.259905405 L33.8064324,0.330445946 C33.8064324,0.330445946 34.460027,0.319986486 34.9645135,0.385662162 C35.4497838,0.449878378 35.6995946,0.526986486 35.6995946,0.526986486 C35.6995946,0.526986486 32.2589189,0.702851351 32.0672432,0.714040541 C31.7281622,0.736418919 30.7556757,0.850986486 30.7556757,0.850986486 L30.915,0.915445946 C30.915,0.915445946 31.9570541,0.854148649 32.8804054,0.869472973 C33.7957297,0.884797297 34.4203784,0.937581081 34.4274324,0.965554054 C34.4354595,0.992554054 33.3175135,1.02758108 32.1801081,1.10590541 C30.555,1.21706757 28.746,1.42114865 28.746,1.42114865 L28.8121622,1.46955405 C28.8121622,1.46955405 31.0023243,1.58436486 31.7558919,1.65831081 C30.5995135,1.67655405 27.1812162,2.01271622 27.1812162,2.01271622 L27.1982432,2.07012162 C27.1982432,2.07012162 29.4684324,2.22944595 29.6895405,2.27614865 C28.3169189,2.43644595 25.6801622,2.56122973 25.6801622,2.56122973 L25.7358649,2.61425676 C25.7358649,2.61425676 27.3561081,2.70206757 28.1040811,2.84582432 C26.8387297,3.00636486 24.2384595,3.13017568 24.2384595,3.13017568 L24.2749459,3.21944595 C24.2749459,3.21944595 25.631027,3.32841892 26.4295946,3.43252703 C25.2812432,3.53931081 22.8492973,3.73755405 22.8492973,3.73755405 L22.9208108,3.78887838 L24.9141892,4.00390541 L21.6029189,4.26174324 L21.5846757,4.32498649 C21.5846757,4.32498649 22.8668108,4.50133784 23.526,4.59109459 C22.5102162,4.71587838 20.457,4.83044595 20.457,4.83044595 L20.4895946,4.90585135 C20.4895946,4.90585135 21.8495676,5.04474324 22.3866486,5.16101351 C21.3494595,5.22085135 19.3266486,5.43271622 19.3266486,5.43271622 L19.3405135,5.50009459 L21.2429189,5.75087838 L18.1055676,5.98633784 L18.0756486,6.03401351 C18.0756486,6.03401351 19.269973,6.19431081 19.9627297,6.31982432 C19.0313514,6.36628378 17.0435676,6.58009459 17.0435676,6.58009459 L17.0238649,6.6392027 L18.7873784,6.87222973 L16.0068649,7.15633784 L16.0105135,7.22858108 L17.8795946,7.47717568 C16.9542973,7.60122973 15.0788919,7.74206757 15.0788919,7.74206757 L15.0788919,7.79217568 L16.7575135,8.06582432 L14.0324595,8.35114865 L14.0507027,8.40271622 C14.0507027,8.40271622 15.4060541,8.51193243 15.7592432,8.61725676 C15.1012703,8.7237973 13.1781892,8.97409459 13.1781892,8.97409459 L13.2054324,9.02031081 C13.2054324,9.02031081 14.4566757,9.11736486 14.7444324,9.18741892 C13.113973,9.35501351 12.3227027,9.45547297 12.3227027,9.45547297 L12.3516486,9.49731081 C12.3516486,9.49731081 13.5462162,9.69190541 13.9431892,9.77533784 C13.1069189,9.89939189 12.2147027,9.97139189 11.3791622,10.0609054 L11.4229459,10.1078514 C11.4229459,10.1078514 12.6085135,10.2739865 13.0363784,10.3622838 C12.1799189,10.5242838 10.5239189,10.6468784 10.5239189,10.6468784 L10.5698919,10.7018514 C10.5698919,10.7018514 11.7493784,10.8533919 12.0911351,10.9329324 C11.2840541,11.0477432 9.84672973,11.1640135 9.84672973,11.1640135 L9.84672973,11.2187432 C9.84672973,11.2187432 10.7399189,11.3967973 11.2171622,11.5026081 C10.4348919,11.6273919 9.72291892,11.7156892 8.99027027,11.7694459 L8.99027027,11.8059324 L10.4521622,12.090527 C10.4521622,12.090527 8.9387027,12.2683378 8.13575676,12.3576081 L8.1432973,12.4125811 L9.63364865,12.6602027 C9.63364865,12.6602027 8.244,12.8209865 7.53032432,12.8907973 L7.53032432,12.9460135 C7.53032432,12.9460135 9.83481081,13.1053378 11.520973,12.927527 L11.5075946,12.8674459 L10.0123784,12.7706351 L12.1607027,12.4446892 L12.3312162,12.3612568 C11.7788108,12.3077432 11.3742973,12.2301486 10.8394054,12.1761486 C11.6771351,12.0523378 13.3375135,11.8059324 13.3375135,11.8059324 L13.3414054,11.7487703 C13.3414054,11.7487703 12.2212703,11.6916081 11.7722432,11.5609865 L14.2248649,11.2630135 L14.2421351,11.2048784 C14.2421351,11.2048784 13.3718108,11.1319054 12.7272162,11.0107703 C13.4798108,10.8964459 15.2457568,10.6687703 15.2457568,10.6687703 L15.2703243,10.6196351 L13.6953243,10.4384189 L13.7447027,10.3953649 C13.7447027,10.3953649 15.525973,10.1633108 16.2985135,10.0412027 L16.3298919,10.0066622 C16.3298919,10.0066622 15.7971892,9.89939189 14.6194054,9.77533784 C15.4933784,9.63206757 17.3459189,9.52674324 17.3459189,9.52674324 L17.37,9.45668919 L15.5490811,9.2582027 L18.4735946,8.93006757 L18.4918378,8.8622027 C18.4918378,8.8622027 17.3602703,8.75809459 16.6845405,8.62795946 L19.7048919,8.34360811 L19.7374865,8.28498649 L17.7304865,8.04271622 L20.9828919,7.77514865 L21.0074595,7.70801351 L18.9656757,7.47717568 C18.9656757,7.47717568 21.2112973,7.33439189 22.2796216,7.19160811 L22.2725676,7.11425676 C22.2725676,7.11425676 20.304,6.9795 20.1767838,6.89047297 C21.3900811,6.72847297 23.7575676,6.58617568 23.7575676,6.58617568 L23.7101351,6.53655405 L21.5664324,6.30060811 C21.5664324,6.30060811 24.3289459,6.14128378 25.4320541,6.01625676 L25.4320541,5.95228378 L23.0098378,5.71463514 L27.2062703,5.41690541 L27.2164865,5.36704054 L24.5235405,5.16101351 L29.5263243,4.78836486 L29.4922703,4.73825676 C29.4922703,4.73825676 27.4572973,4.62174324 26.2332973,4.59109459 C27.882973,4.37144595 29.8826757,4.22647297 31.6425405,4.11895946 C35.6042432,3.87547297 38.6657027,4.59109459 38.6657027,4.59109459 C38.6657027,4.59109459 37.0812162,4.63147297 36.6168649,4.73825676 L36.6876486,4.82825676 L39.1660541,5.17925676 L37.8199459,5.39233784 L37.8734595,5.46482432 L39.4270541,5.7087973 L39.5355405,5.82652703 L38.4898378,6.01625676 L38.5769189,6.10577027 L39.7522703,6.33733784 L38.7744324,6.61171622 L38.8267297,6.67593243 L39.8602703,6.90725676 L38.8267297,7.15731081 L38.8566486,7.2152027 L39.8624595,7.40712162 L39.8602703,7.49493243 C39.8602703,7.49493243 39.1465946,7.65498649 38.8267297,7.70801351 C38.844973,7.74522973 38.8230811,7.78366216 38.8230811,7.78366216 L39.8425135,8.06582432 C39.8425135,8.06582432 38.7498649,8.28498649 38.7150811,8.29422973 C38.6807838,8.30152703 38.6657027,8.36890541 38.6657027,8.36890541 C38.9685405,8.45695946 39.681,8.61725676 39.681,8.61725676 L38.4898378,8.86706757 L38.4813243,8.95439189 L39.4333784,9.18741892 L39.4333784,9.22244595 L38.240027,9.45547297 L38.240027,9.5607973 L39.2370811,9.79358108 L37.8644595,10.0767162 L37.8841622,10.1489595 L38.915027,10.3622838 L37.5927568,10.6218243 L37.5445946,10.7361486 L38.5594054,10.9506892 L37.1172162,11.1640135 L37.0994595,11.2527973 L38.150027,11.4850946 L38.150027,11.5376351 L36.6368108,11.7879324 L36.6708649,11.8589595 C36.6708649,11.8589595 37.4903514,11.9839865 37.7588919,12.1087703 C37.1882432,12.2335541 36.1391351,12.3948243 36.1391351,12.3948243 L36.1975135,12.4763108 L37.3300541,12.6602027 L35.6385405,12.9637703 L35.693027,13.0523108 L36.7961351,13.2461757 L35.1571622,13.4799324 L35.1603243,13.5796622 L36.2738919,13.7635541 L36.2617297,13.8360405 L34.551973,14.0671216 L34.551973,14.1386351 C34.9255946,14.2463919 35.4084324,14.2641486 35.8156216,14.3884459 C35.2834054,14.5307432 34.551973,14.583527 33.9652703,14.6730405 L34.0178108,14.7620676 C34.0178108,14.7620676 34.8543243,14.8861216 35.2121351,14.9948514 C34.6227568,15.0836351 33.2683784,15.2792027 33.2683784,15.2792027 L33.3372162,15.3531486 C33.3372162,15.3531486 34.1953784,15.4575 34.641,15.5457973 C34.0358108,15.6890676 33.4474054,15.7068243 32.8424595,15.7783378 L32.7337297,15.8668784 C33.1088108,15.9731757 33.5361892,15.9906892 33.9652703,16.0984459 L33.9652703,16.1524459 C33.4131081,16.311527 32.0764865,16.4183108 32.0764865,16.4183108 L32.0764865,16.4893378 L33.3586216,16.6863649 C33.3586216,16.6863649 31.8981892,16.8814459 31.3990541,16.9894459 L31.4297027,17.0507432 L32.7337297,17.3100405 L30.7357297,17.5102297 L30.7048378,17.5751757 L32.0650541,17.8118514 L32.0577568,17.8792297 C31.4542703,18.0256622 29.9911622,18.113473 29.9911622,18.113473 L29.9398378,18.1820676 C29.9398378,18.1820676 30.8833784,18.2893378 31.3637838,18.4503649 C30.7111622,18.5921757 29.1305676,18.6992027 29.1305676,18.6992027 C29.1305676,18.6992027 29.1427297,18.7495541 29.0838649,18.7692568 C29.6177838,18.8597432 30.6865946,19.0202838 30.6865946,19.0202838 C30.6865946,19.0202838 28.9053243,19.1805811 28.2113514,19.3041486 L28.2602432,19.3686081 L29.7612973,19.6069865 L27.1245405,19.8927973 L27.1892432,19.9526351 L28.8865946,20.1596351 L25.9664595,20.4795 L26.0172973,20.5398243 L27.8007568,20.7465811 L24.5957838,21.0499054 L24.6232703,21.1160676 C24.6232703,21.1160676 26.0384595,21.2102027 26.8015135,21.3182027 C24.8745405,21.5916081 22.5513243,21.8119865 21.032027,21.335473 C21.3183243,21.2102027 22.0971892,21.054527 22.0971892,21.054527 L22.1864595,20.9776622 C22.1864595,20.9776622 21.4333784,20.8137162 21.0587838,20.7431757 C21.5761622,20.5816622 22.5642162,20.4629595 22.5642162,20.4629595 L22.4929459,20.3729595 C22.4929459,20.3729595 21.7848649,20.3355 21.4611081,20.1596351 C22.0458649,20.0888514 22.6819459,20.0350946 23.1718378,19.8390405 C22.8305676,19.8001216 22.3336216,19.7505 21.905027,19.5726892 L23.7575676,19.3406351 L23.7682703,19.2581757 C23.7682703,19.2581757 22.9412432,19.1925 22.4751892,19.0202838 C23.1353514,18.9122838 24.5048108,18.734473 24.5048108,18.734473 L24.4712432,18.6634459 C24.4712432,18.6634459 23.5077568,18.5564189 23.0813514,18.4316351 C23.9538649,18.3141486 25.2510811,18.1647973 25.2510811,18.1647973 L25.2411081,18.0876892 C25.2411081,18.0876892 24.1669459,18.0225 23.8655676,17.8439595 L25.9102703,17.6072838 L25.983,17.5226351 C25.9134324,17.5051216 24.8777027,17.4029595 24.5957838,17.2735541 C25.2885405,17.1132568 26.1274865,17.202527 26.7506757,16.9527162 C26.2868108,16.8096892 25.7528919,16.8996892 25.3432703,16.7221216 C25.9491892,16.5445541 26.7677027,16.5606081 27.3561081,16.4535811 L27.3561081,16.3830405 C26.964,16.3300135 26.4643784,16.2412297 26.0744595,16.1332297 C26.6436486,15.9906892 27.8387027,15.8914459 27.9274865,15.8839054 L28.0332973,15.8126351 C27.6231892,15.7600946 27.0875676,15.6703378 26.6623784,15.5457973 C27.2855676,15.4035 28.6024865,15.2792027 28.6382432,15.2792027 L28.6382432,15.2072027 C28.6382432,15.2072027 27.4801622,15.1189054 27.4453784,14.9583649 C28.0498378,14.7805541 29.2268919,14.691527 29.2268919,14.691527 L29.2268919,14.6372838 C29.2268919,14.6372838 28.224973,14.4679865 27.9231081,14.3079324 C28.4052162,14.2364189 28.4431622,14.3191216 29.6569459,14.1345 L29.7430541,14.0505811 L28.5329189,13.7672027 L30.2207838,13.5893919 L30.2609189,13.5322297 L29.0935946,13.2928784 C29.0935946,13.2928784 29.0935946,13.253473 29.0673243,13.2461757 L30.6432973,12.9866351 L30.6700541,12.9460135 L29.5455405,12.6898784 L29.5472432,12.6422027 C29.9911622,12.5354189 31.0071892,12.3948243 31.0071892,12.3948243 L31.0071892,12.3393649 C30.6160541,12.2493649 29.9211081,12.090527 29.9211081,12.090527 L31.1616486,11.8144459 L31.2044595,11.7524189 L30.1704324,11.5026081 L31.3637838,11.2712838 L31.3637838,11.2187432 L30.3497027,10.9329324 L31.4226486,10.7018514 L31.4343243,10.6468784 L30.1164324,10.3622838 L31.2633243,10.1258514 L31.2932432,10.0609054 L29.0476216,9.77533784 L30.7851081,9.55860811 L30.8198919,9.48247297 L30.3497027,9.40025676 C28.0697838,9.20541892 25.6801622,9.36571622 23.4554595,9.50777027 L23.5077568,9.54255405 C23.5077568,9.54255405 25.1301892,9.64958108 25.9134324,9.73982432 L25.9134324,9.79358108 C24.6135405,9.89939189 21.8179459,10.0767162 21.8179459,10.0767162 L21.879,10.1367973 C21.879,10.1367973 23.5612703,10.220473 24.291973,10.3622838 C22.9930541,10.4868243 20.4462973,10.6468784 20.4462973,10.6468784 L20.5015135,10.7050135 L22.5994865,10.9329324 L22.5593514,10.9789054 L19.2142703,11.2007432 L19.1629459,11.2527973 L21.1582703,11.4850946 L21.1582703,11.5376351 C21.1582703,11.5376351 19.0191892,11.6813919 18.0571622,11.8059324 C18.0756486,11.8234459 18.0535135,11.8589595 18.0535135,11.8589595 L20.0177027,12.090527 C20.0177027,12.090527 17.7214865,12.2493649 16.7246757,12.3576081 L16.7777027,12.4125811 L18.7180541,12.677473 L15.6205946,12.9637703 L15.6838378,13.0255541 C15.6838378,13.0255541 16.9900541,13.1593378 17.5587568,13.2461757 C16.7937568,13.3909054 14.7417568,13.5156892 14.7417568,13.5156892 L14.6882432,13.5709054 L16.5434595,13.8002838 L16.5434595,13.8360405 L13.8402973,14.0671216 L13.8402973,14.1386351 C13.8402973,14.1386351 15.1888378,14.2816622 15.6882162,14.3884459 C14.7984324,14.5487432 12.9490541,14.691527 12.9490541,14.691527 L12.9838378,14.7438243 L14.6738919,14.9766081 L14.6588108,15.0218514 L12.0762973,15.2782297 L12.1174054,15.3329595 L13.7838649,15.5635541 L11.2684865,15.8250405 L11.3127568,15.8839054 C11.3127568,15.8839054 12.4988108,15.9571216 12.9276486,16.1332297 C12.2704054,16.2587432 10.5638108,16.401527 10.5638108,16.401527 L10.6114865,16.4599054 C10.6114865,16.4599054 11.843027,16.5606081 12.2344054,16.7048514 C11.520973,16.8274459 9.85135135,16.9894459 9.85135135,16.9894459 L9.8802973,17.0616892 L11.4674595,17.3100405 L9.16078378,17.5187432 L9.10191892,17.5751757 L10.7194865,17.8619595 L8.49867568,18.1285541 L8.49867568,18.2000676 L10.0230811,18.4316351 L7.91002703,18.7125811 L7.84702703,18.7692568 L9.41910811,19.0202838 L7.25959459,19.2856622 L7.30240541,19.3549865 L8.75845946,19.589473 L6.65294595,19.9112838 L6.68943243,19.9616351 L8.11872973,20.1953919 L6.04264865,20.4469054 L6.04751351,20.5162297 L7.47778378,20.7465811 L5.54983784,20.9968784 L5.57464865,21.0713108 C5.96554054,21.1598514 6.94337838,21.335473 6.94337838,21.335473 L4.92713514,21.6193378 L5.00108108,21.6903649 L6.40897297,21.9224189 L4.41267568,22.1902297 L4.46035135,22.2420405 L5.82227027,22.4923378 L3.88994595,22.7611216 L3.88994595,22.8326351 L5.32191892,23.0449865 L3.40856757,23.3490405 L3.37378378,23.4018243 L4.8582973,23.6511486 L2.99821622,23.9211486 L2.96610811,23.9817162 L4.37837838,24.2208243 L2.81164865,24.4037432 L2.65548649,24.422473 L2.51732432,24.5411757 L3.93178378,24.8082568 L2.12327027,25.0697432 L2.15732432,25.1188784 L3.52240541,25.3431486 L1.81118919,25.6209324 L1.81459459,25.7170135 L3.18454054,25.9310676 L1.48232432,26.2183378 L1.47575676,26.3044459 L2.75813514,26.5352838 L1.13716216,26.7858243 L1.13716216,26.8566081 C1.45775676,26.9281216 2.4012973,27.1069054 2.4012973,27.1069054 C2.4012973,27.1069054 1.28018919,27.2672027 0.867648649,27.3557432 L0.867648649,27.4228784 L2.06221622,27.6405811 L2.06221622,27.6953108 L0.620513514,27.9251757 L0.625378378,28.0035 L1.90264865,28.2462568 C1.90264865,28.2462568 0.744567568,28.4243108 0.370702703,28.5318243 L0.372891892,28.5928784 L1.63532432,28.8507162 L0.193621622,29.0827703 L0.193621622,29.1720405 C0.495243243,29.2610676 1.43902703,29.4220946 1.43902703,29.4220946 L0.0160540541,29.6397973 L0.0150810811,29.7071757 L1.29672973,29.9565 L1.29332432,30.0411486 L0.0150810811,30.1868514 L0.009,30.2822027 L1.20794595,30.5261757 L1.20794595,30.5787162 L0.0150810811,30.7747703 L0.009,30.8764459 L1.20794595,31.1136081 L0.0150810811,31.3446892 L0,31.4113378 C0,31.4113378 0.507648649,31.5040135 1.38648649,31.7003108 L0.103135135,31.9506081 L0.108,32.0313649 L1.61708108,32.2899324 L0.282405405,32.522473 L0.282405405,32.5920405 L2.06221622,32.8598514 L0.620513514,33.0906892 L0.620513514,33.1799595 L2.75813514,33.4458243 L2.75813514,33.4832838 L1.12062162,33.7148514 L1.22618919,33.7866081 L4.37837838,34.0181757 C3.62943243,34.160473 2.24027027,34.2310135 2.24027027,34.2310135 L2.4012973,34.3733108 C2.4012973,34.3733108 5.17962162,34.7172568 7.25327027,34.7505811 C6.93,34.8206351 5.67827027,34.9410405 5.22413514,34.9517432 C5.17232432,34.9532027 5.2397027,35.0512297 5.29540541,35.0548784 C6.33672973,35.1261486 8.01924324,35.2078784 8.68524324,35.2105541 C9.31208108,35.211527 10.8055946,35.0976892 11.736973,34.9826351 C11.7542432,34.9544189 11.7588649,34.9155 11.7722432,34.8916622 C11.3908378,34.862473 10.5788919,34.779527 10.4103243,34.7243108 C10.5623514,34.7313649 14.7417568,34.5070946 14.7417568,34.5070946 L14.985,34.284527 C14.985,34.284527 14.2085676,34.3125 12.861973,34.2327162 C11.6357838,34.1587703 11.5674324,34.1485541 11.0580811,34.0181757 C13.2122432,34.0502838 16.8526216,33.7459865 16.8526216,33.7459865 L17.0318919,33.6122027 L14.1195405,33.411527 C15.6544054,33.3047432 18.6988378,33.1619595 18.6988378,33.1619595 L18.7873784,33.0906892 C18.7873784,33.0906892 16.9360541,33.0559054 16.1175405,32.8783378 C17.6122703,32.7520946 20.3195676,32.5920405 20.3195676,32.5920405 L20.2842973,32.522473 C20.2842973,32.522473 18.7180541,32.4137432 17.8620811,32.2899324 C19.1442162,32.1284189 21.7992162,31.9861216 21.7992162,31.9861216 L21.7848649,31.872527 C21.7848649,31.872527 19.5706216,31.7725541 19.5535946,31.683527 C20.7822162,31.5585 22.1550811,31.5959595 23.2061351,31.4162027 L23.1552973,31.3366622 C23.1552973,31.3366622 20.9369189,31.136473 21.1390541,31.1136081 C21.3428919,31.0926892 24.2749459,30.9007703 24.2749459,30.9007703 L24.4512973,30.7935 C24.4512973,30.7935 23.0813514,30.6149595 22.3866486,30.5787162 C23.4554595,30.4369054 25.6276216,30.2773378 25.6276216,30.2773378 L25.5743514,30.2060676 C25.5743514,30.2060676 24.291973,30.0800676 23.67,29.9922568 C24.6497838,29.7959595 26.8387297,29.7071757 26.8387297,29.7071757 L26.8141622,29.5750946 C26.8141622,29.5750946 25.002973,29.3865811 24.9141892,29.4038514 C25.6555946,29.2834459 27.828,29.1620676 27.828,29.1620676 L27.9274865,29.1019865 L26.0744595,28.8159324 L28.7992703,28.5853378 L28.9775676,28.4773378 L27.0875676,28.2681486 L29.8242973,28.0035 L30.0108649,27.9076622 C30.0108649,27.9076622 28.8175135,27.8188784 28.2291081,27.6405811 C28.8929189,27.5722297 30.861,27.4671486 30.861,27.4671486 L30.9889459,27.3915 L29.3171351,27.0886622 L31.7977297,26.8763108 L31.9694595,26.7858243 C31.9694595,26.7858243 30.7936216,26.6070405 30.3497027,26.5549865 L30.3497027,26.5172838 C31.0439189,26.4119595 32.7118378,26.2621216 32.7118378,26.2621216 L32.8247027,26.1806351 C32.8247027,26.1806351 31.7026216,26.0920946 31.2044595,25.9658514 C31.9324865,25.8405811 33.6806757,25.6802838 33.6806757,25.6802838 L33.768973,25.5910135 C33.768973,25.5910135 32.5797568,25.4708514 32.1487297,25.3606622 C32.8969459,25.2368514 34.6227568,25.0755811 34.6227568,25.0755811 C34.6227568,25.0755811 33.6828649,24.8247973 33.020027,24.7540135 C33.893027,24.6484459 35.460973,24.4874189 35.460973,24.4874189 C35.460973,24.4874189 35.2320811,24.4502027 34.9501622,24.4022838 L34.9443243,24.4022838 C34.4991892,24.3261486 33.9287838,24.224473 33.9287838,24.2033108 C34.6585135,24.042527 36.1729459,23.9357432 36.1729459,23.9357432 L36.2447027,23.8652027 C36.2447027,23.8652027 35.1218919,23.7216892 34.7650541,23.6511486 C35.4957568,23.4546081 37.0106757,23.3660676 37.0106757,23.3660676 L36.954973,23.2952838 L36.9741892,23.2952838 C36.9741892,23.2952838 35.9771351,23.1885 35.531027,23.0449865 C36.2269459,22.9214189 37.7078108,22.8610946 37.6761892,22.838473 C37.6418919,22.8153649 37.7766486,22.7786351 37.7766486,22.7786351 C37.7766486,22.7786351 36.7613514,22.6188243 36.3322703,22.4743378 C37.0727027,22.4030676 38.3832973,22.2619865 38.3832973,22.2619865 C38.3832973,22.2619865 38.5058919,22.1902297 38.5594054,22.154473 C37.1517568,22.0031757 34.1241081,22.1902297 34.1241081,22.1902297 L34.2133784,22.2619865 L35.7467838,22.3855541 L35.7273243,22.4923378 L33.3586216,22.7260946 L33.2683784,22.8134189 L34.820027,23.0449865 L32.3598649,23.4018243 L32.4330811,23.4628784 L33.9652703,23.6336351 C33.0922703,23.7572027 32.2005405,23.8109595 31.3990541,23.9014459 L31.4708108,23.9719865 L33.0745135,24.2033108 C33.0745135,24.2033108 32.0470541,24.3027973 31.1777027,24.4037432 L31.1584865,24.4037432 C30.8658649,24.4395 30.5931892,24.4737973 30.3832703,24.5061486 L30.4812973,24.5791216 L32.0764865,24.7907432 L29.3684595,25.1115811 L29.4445946,25.1816351 C29.4445946,25.1816351 30.6192162,25.2368514 31.1064324,25.3149324 C30.2334324,25.4752297 29.1551351,25.538473 28.3366216,25.6457432 L28.3981622,25.7282027 L30.1164324,25.9310676 L27.1432703,26.2336622 L27.2040811,26.3295 L29.0476216,26.5172838 L25.8951892,26.8210946 L25.9438378,26.8982027 C25.9438378,26.8982027 27.1432703,26.9993919 27.8007568,27.0886622 C26.7324324,27.2299865 25.5743514,27.2299865 24.6300811,27.4267703 L24.705973,27.4887973 L26.6088649,27.6770676 L23.2771622,27.9242027 L23.355973,28.0142027 L25.4833784,28.2462568 C25.4833784,28.2462568 22.9745676,28.4063108 21.7274595,28.5500676 C21.7819459,28.5500676 21.7943514,28.6152568 21.7943514,28.6152568 L24.0608919,28.8159324 C24.0608919,28.8159324 21.3531081,28.976473 20.0177027,29.1192568 C20.0884865,29.1540405 20.1558649,29.2121757 20.1558649,29.2121757 C20.1558649,29.2121757 22.4214324,29.3503378 22.4929459,29.4038514 C21.1264054,29.5118514 18.1114054,29.7249324 18.1114054,29.7249324 L18.2157568,29.8142027 C18.2157568,29.8142027 20.3222432,29.8976351 20.8727027,29.9752297 C19.1785135,30.1345541 17.4704595,30.1345541 15.8502162,30.2773378 L15.8891351,30.3666081 C15.8891351,30.3666081 17.9968378,30.3999324 19.269973,30.5619324 C11.7953514,31.4750676 6.81348649,30.5609595 6.81348649,30.5609595 L8.89808108,30.4967432 L8.87132432,30.3940946 L6.64078378,29.9752297 L8.15181081,29.7599595 L8.1432973,29.6648514 L6.22921622,29.4038514 L6.27105405,29.3128784 L7.52448649,29.1946622 C7.52448649,29.1946622 7.54540541,29.0827703 7.56510811,29.0652568 C7.15427027,29.0112568 6.40897297,28.9587162 5.98281081,28.8159324 C6.37224324,28.7084189 7.29754054,28.6388514 7.29754054,28.6388514 L7.33183784,28.5500676 C7.33183784,28.5500676 6.24867568,28.4598243 5.87578378,28.2462568 C6.30316216,28.1584459 7.13602703,28.0499595 7.13602703,28.0499595 L7.22432432,27.9429324 L5.80183784,27.6770676 L7.12435135,27.4887973 L7.13602703,27.3557432 C7.13602703,27.3557432 6.14043243,27.2299865 5.80183784,27.0886622 C6.17156757,26.9531757 7.19002703,26.8210946 7.19002703,26.8210946 L7.15694595,26.7028784 C7.15694595,26.7028784 6.10686486,26.6024189 5.89232432,26.5352838 C6.33843243,26.3516351 7.29754054,26.2161486 7.29754054,26.2161486 L7.29,26.1178784 C7.29,26.1178784 6.3882973,26.0337162 5.96286486,25.9310676 C6.33843243,25.8495811 7.47413514,25.6639865 7.47413514,25.6639865 L7.3692973,25.5735 L6.07037838,25.3606622 L7.65267568,25.0403108 L6.3197027,24.7907432 L6.35497297,24.6958784 C6.35497297,24.6958784 7.52862162,24.665473 7.902,24.4874189 C7.82610811,24.4502027 7.71591892,24.422473 7.587,24.4022838 L7.57727027,24.4022838 C7.22432432,24.3434189 6.74391892,24.3203108 6.49897297,24.2033108 C6.85459459,24.0780405 8.15181081,23.9532568 8.15181081,23.9532568 L8.15181081,23.8652027 L6.83659459,23.6336351 L8.50864865,23.3660676 L8.57943243,23.2573378 L7.08567568,23.0449865 L8.72197297,22.8674189 L8.84578378,22.7068784 C8.84578378,22.7068784 7.74364865,22.5818514 7.45978378,22.4565811 L9.19727027,22.2619865 L9.28751351,22.154473 L7.88716216,21.8681757 L9.71489189,21.6383108 L9.71489189,21.5487973 L8.27805405,21.3182027 L10.1948108,21.0499054 L10.2312973,20.9786351 C10.2312973,20.9786351 9.07954054,20.9080946 8.70713514,20.7465811 C9.24154054,20.6052568 10.6238919,20.5162297 10.6238919,20.5162297 L10.7292162,20.4276892 L9.22183784,20.1953919 L11.3348919,19.8750405 L9.75891892,19.5726892 L11.9403243,19.2688784 L10.3473243,19.0202838 L12.5112162,18.734473 L12.5287297,18.6634459 L10.8442703,18.4316351 L13.0908649,18.1879054 L13.1524054,18.0765 C13.1524054,18.0765 11.9473784,17.9872297 11.538,17.8619595 C12.2521622,17.7021486 13.9896486,17.5593649 13.9896486,17.5593649 L13.9767568,17.4525811 L12.2344054,17.2560405 L14.4233514,16.9527162 L12.9823784,16.7048514 L15.2078108,16.4535811 L15.2547568,16.3154189 L13.7286486,16.1332297 L16.0411622,15.8958243 L16.0635405,15.7783378 L14.6354595,15.5701216 L17.1437838,15.3443919 L17.1848919,15.2429595 L15.5826486,15.0296351 L15.6544054,14.9766081 L18.1114054,14.7438243 L18.2894595,14.6372838 C18.2894595,14.6372838 17.1126486,14.4743108 16.4021351,14.4239595 C17.5587568,14.2463919 19.8209189,14.1213649 19.8209189,14.1213649 L19.8209189,14.0505811 L17.5047568,13.8182838 C17.5047568,13.8182838 21.8821622,13.3257162 23.8967027,13.8645 C23.8655676,13.8691216 23.9061892,13.9530405 23.9061892,13.9530405 L22.4929459,14.0145811 L22.455973,14.1325541 L23.7023514,14.3884459 L22.248,14.5672297 L22.1550811,14.6839865 L23.3314054,14.9948514 L21.6965676,15.1938243 L21.6520541,15.2782297 L22.9563243,15.5457973 C22.9563243,15.5457973 22.3095405,15.6630405 21.1755405,15.7783378 L21.1079189,15.8880405 L22.3336216,16.1332297 L20.2478108,16.3983649 L20.2137568,16.4732838 L21.7457027,16.7048514 C21.7457027,16.7048514 20.2300541,16.8639324 19.4460811,17.0079324 L19.485973,17.0670405 L20.9614865,17.2735541 L18.7350811,17.5941486 L18.7842162,17.6452297 L20.105027,17.8792297 L20.1040541,17.9217973 L18.081,18.1227162 L18.0571622,18.2000676 L19.4292973,18.4316351 L17.4704595,18.7169595 L17.4704595,18.8050135 L18.7350811,19.0202838 L16.8645405,19.2856622 L16.9185405,19.3759054 L18.1471622,19.6069865 L16.2593514,19.8927973 L16.3498378,19.9455811 L17.5417297,20.1596351 L15.839027,20.4135811 L15.7957297,20.4795 L17.0238649,20.7297973 L15.3328378,21.0143919 L15.3158108,21.0861486 L16.5612162,21.3182027 L14.9407297,21.6193378 L14.9745405,21.6903649 L16.0800811,21.8681757 L14.5926486,22.1211486 L14.5486216,22.1902297 L15.6544054,22.4923378 L14.300027,22.7260946 L14.300027,22.8134189 L15.4033784,23.0279595 L15.3965676,23.106527 L14.1195405,23.2952838 L14.0998378,23.3906351 L15.129,23.6003108 L15.12,23.7216892 L13.9570541,23.8683649 L13.9431892,23.9357432 L15.0606486,24.1592838 L15.0535946,24.2363919 L14.1805946,24.4037432 L13.9650811,24.4446081 L13.9478108,24.5117432 L15.3328378,24.7907432 L15.3158108,24.8622568 L14.1832703,25.0130676 L14.193,25.0755811 C14.193,25.0755811 16.1883243,25.3993378 17.4191351,25.3645541 C16.3298919,25.3993378 14.6391081,25.5910135 14.6391081,25.5910135 L14.8519459,25.6880676 C15.5875135,25.7598243 16.3315946,25.8004459 17.0462432,25.8196622 C16.7691892,25.9597703 15.5629459,26.1010946 15.5629459,26.1010946 L15.8185946,26.2183378 C15.8185946,26.2183378 17.9603514,26.366473 20.4190541,26.2392568 L20.4752432,26.1310135 C20.4752432,26.1310135 19.3380811,25.9354459 19.2106216,25.8362027 C19.2057568,25.8332838 19.2011351,25.8310946 19.1962703,25.8272027 C20.6902703,25.7955811 21.7393784,25.7058243 21.7393784,25.7058243 L22.0517027,25.5710676 C22.0517027,25.5710676 20.700973,25.4205 19.2592703,25.3672297 C21.2524054,25.3672297 23.5335405,25.0804459 23.5335405,25.0804459 L23.5785405,25.0023649 L21.2648108,24.7540135 L24.8161622,24.5669595 L24.8803784,24.4874189 L24.1693784,24.4037432 L22.9208108,24.2560946 L22.9208108,24.1848243 L25.8047027,23.9719865 L25.983,23.8822297 L24.0956757,23.6511486 L26.9805405,23.3490405 L27.0143514,23.2738784 C27.0143514,23.2738784 25.9134324,23.1885 25.2724865,23.0449865 C26.091,22.9569324 27.8953784,22.8282568 27.8953784,22.8282568 L27.9445135,22.7260946 C27.3731351,22.6188243 26.8564865,22.6188243 26.3050541,22.4743378 C27.2138108,22.3147703 28.9775676,22.172473 28.9775676,22.172473 L28.953973,22.080527 L27.3561081,21.9049054 L29.7676216,21.6344189 L29.8318378,21.5487973 C29.3171351,21.4780135 28.7812703,21.4587973 28.2291081,21.335473 C28.9950811,21.2102027 30.6160541,21.0652297 30.6160541,21.0652297 L30.6160541,20.9786351 C30.6160541,20.9786351 29.600027,20.8720946 29.1551351,20.7465811 C29.4932432,20.6940405 31.4632703,20.5522297 31.4632703,20.5522297 L31.5398919,20.4629595 L30.0108649,20.1596351 L32.3968378,19.8750405 L30.9006486,19.5726892 L33.1628108,19.2688784 L31.6836486,19.0373108 L33.893027,18.734473 L33.9107838,18.6634459 C33.9107838,18.6634459 32.751973,18.4846622 32.4133784,18.4316351 C32.4133784,18.4316351 34.1241081,18.2713378 34.6227568,18.1657703 L34.6227568,18.093527 C34.1593784,18.005473 33.6806757,18.0225 33.2515946,17.8439595 C33.893027,17.7371757 35.1929189,17.6474189 35.1929189,17.6474189 L35.3887297,17.5420946 L34.0178108,17.3275541 L34.0178108,17.2735541 L36.0668919,17.0079324 L36.0668919,16.9352027 L34.7125135,16.7221216 C35.3717027,16.5973378 36.7431081,16.4183108 36.7431081,16.4183108 L36.7613514,16.3261216 L35.4084324,16.0984459 L37.2760541,15.9194189 L37.4380541,15.8491216 L36.1007027,15.5280405 L37.8644595,15.3329595 L38.043,15.224473 C37.9362162,15.224473 36.8058649,15.0315811 36.8058649,15.0315811 C36.8058649,15.0315811 36.8250811,14.9880405 36.7786216,14.9583649 C37.3840541,14.9228514 38.4158919,14.7805541 38.4158919,14.7805541 L38.6314054,14.6372838 L37.4380541,14.3884459 L39.2370811,14.1386351 L39.2370811,14.0671216 L37.9702703,13.8182838 L39.8052973,13.5932838 C39.8052973,13.5932838 39.7933784,13.5171486 39.8425135,13.4974459 C39.4847027,13.4276351 38.5769189,13.2130946 38.5769189,13.2130946 L40.2866757,12.9907703 L40.3401892,12.8907973 L39.1660541,12.6422027 L40.8580541,12.4293649 L40.9113243,12.3393649 L39.7522703,12.090527 L41.3435676,11.8533649 L41.3747027,11.7524189 L40.2054324,11.4415541 L41.8891622,11.2352838 L41.913973,11.1627973 L40.715027,10.9151757 L42.2914865,10.6943108 L42.3182432,10.5948243 C42.2472162,10.6125811 41.2302162,10.3279865 41.2302162,10.3279865 L42.7816216,10.0808514 L42.7714054,9.99206757 L41.625,9.79358108 L43.1725135,9.52674324 L43.1725135,9.43698649 L42.0514054,9.20541892 L43.4865405,8.97604054 L43.5123243,8.86706757 C43.5123243,8.86706757 42.8159189,8.76028378 42.4605405,8.61725676 C42.8699189,8.5275 43.4583243,8.45695946 43.8499459,8.36890541 L43.8499459,8.27866216 C43.4931081,8.20714865 43.155973,8.19036486 42.8159189,8.04855405 C43.2267568,7.95758108 44.1885405,7.79825676 44.1885405,7.79825676 L44.1885405,7.70801351 C43.8679459,7.63795946 43.4931081,7.60122973 43.1725135,7.47717568 C43.5653514,7.33439189 44.4558649,7.21009459 44.4558649,7.21009459 L44.4558649,7.12058108 L43.4208649,6.90725676 L43.4315676,6.84693243 L44.6127568,6.65695946 L44.7047027,6.56890541 L43.7086216,6.41225676 C43.7086216,6.41225676 43.7134865,6.33587838 43.6716486,6.31982432 C44.081027,6.2127973 44.4558649,6.14128378 44.8822703,6.08752703 L44.8822703,5.9805 C44.5976757,5.90995946 43.9214595,5.73068919 43.9214595,5.73068919 L45.0432973,5.50009459 L45.0432973,5.41131081 L44.0766486,5.20747297 L44.0457568,5.14398649 L45.1320811,4.94793243 L45.1320811,4.82412162 L44.1685946,4.60958108 L44.1685946,4.55558108 L45.1320811,4.39552703 L45.1320811,4.23571622 L44.1885405,4.02117568 L45.1583514,3.76966216 L45.1320811,3.66482432 Z" id="Fill-4"></path>
                <path d="M70.9957946,24.3609081 L70.9957946,24.3609081 C70.9957946,24.3609081 70.9867946,24.0215838 70.728227,23.8050973 C70.4779297,23.5944486 70.1758216,23.6046649 70.1758216,23.6046649 L69.8146054,23.6046649 L69.8146054,34.0860162 L70.1622,34.0860162 C70.1622,34.0860162 70.467227,34.0886919 70.728227,33.8843676 C70.9882541,33.6870973 70.9957946,33.3506919 70.9957946,33.3506919 L70.9957946,24.3609081 Z" id="Fill-6"></path>
                <path d="M65.1387162,27.0746027 C65.1387162,27.0746027 65.0927432,26.7403865 64.8723649,26.5494405 C64.607473,26.3198189 64.2705811,26.4061703 64.2705811,26.4061703 L63.9730946,26.4891162 L64.4357432,29.9480351 L64.7079324,29.9480351 C64.7670405,29.9480351 65.0611216,29.9193324 65.2596081,29.6646568 C65.4607703,29.4104676 65.4040946,29.0648189 65.4040946,29.0648189 L65.1387162,27.0746027 Z" id="Fill-8"></path>
                <path d="M68.9629135,27.0746027 C68.9629135,27.0746027 68.9179135,26.7403865 68.6965622,26.5494405 C68.4316703,26.3198189 68.0955081,26.4061703 68.0955081,26.4061703 L67.7963189,26.4891162 L68.2611568,29.9480351 L68.5338324,29.9480351 C68.5917243,29.9480351 68.8843459,29.9193324 69.0850216,29.6646568 C69.2844811,29.4104676 69.2295081,29.0648189 69.2295081,29.0648189 L68.9629135,27.0746027 Z" id="Fill-10"></path>
                <path d="M72.7101486,27.0746027 C72.7101486,27.0746027 72.6644189,26.7403865 72.4437973,26.5494405 C72.1793919,26.3198189 71.8410405,26.4061703 71.8410405,26.4061703 L71.544527,26.4891162 L72.0083919,29.9480351 L72.2793649,29.9480351 C72.3389595,29.9480351 72.6315811,29.9193324 72.8317703,29.6646568 C73.0312297,29.4104676 72.9767432,29.0648189 72.9767432,29.0648189 L72.7101486,27.0746027 Z" id="Fill-12"></path>
                <path d="M74.7579892,23.9566135 L74.7579892,23.9566135 C74.7579892,23.9566135 74.7482595,23.6177757 74.4899351,23.4008027 C74.2384216,23.191127 73.9368,23.2008568 73.9368,23.2008568 L73.5544216,23.2008568 L73.5544216,34.7556405 L73.9251243,34.7556405 C73.9251243,34.7556405 74.2282054,34.7607486 74.4899351,34.5556946 C74.7511784,34.3584243 74.7579892,34.0212892 74.7579892,34.0212892 L74.7579892,23.9566135 Z" id="Fill-14"></path>
                <path d="M67.2084243,23.9566135 C67.2084243,23.9566135 67.1982081,23.6177757 66.9408568,23.4008027 C66.6893432,23.1901541 66.3872351,23.2008568 66.3872351,23.2008568 L66.0058297,23.2008568 C66.0058297,23.2008568 66.0075324,28.7271 66.0075324,29.1325865 C66.0075324,30.2060189 65.7577216,31.6207216 64.6862351,32.697073 C64.0114784,33.3730459 63.2698297,33.7544514 63.2698297,33.7544514 L64.1372351,34.6228297 C64.1372351,34.6228297 65.5672622,33.8427486 66.4482892,32.1485595 C66.8751811,31.3263973 67.2106135,30.2298568 67.2106135,28.4661 C67.2106135,27.1839649 67.2084243,23.9566135 67.2084243,23.9566135" id="Fill-16"></path>
                <path d="M54.4763919,28.1435351 L53.6751486,27.2758865 C53.6751486,27.2758865 53.9901486,26.7045081 54.2582027,26.0951838 C54.5522838,25.4226162 54.6459324,24.8702108 54.6459324,24.8702108 L50.7360405,24.8702108 L50.7360405,25.9399946 L53.1747973,25.9399946 C53.1747973,25.9399946 52.6800405,27.0817784 51.7386892,28.0102378 C50.7949054,28.939427 50.0012027,29.3458865 50.0012027,29.3458865 L50.7360405,30.0816973 C51.3784459,29.7793459 52.1380946,29.0797784 52.1380946,29.0797784 L52.1380946,34.6836162 L52.4718243,34.6836162 C52.4718243,34.6836162 52.7938784,34.6755892 53.0057432,34.483427 C53.2412027,34.2727784 53.2750135,34.0378054 53.2750135,33.9490216 C53.2750135,33.8597514 53.2750135,33.9490216 53.2750135,33.9490216 L53.2750135,28.3446973 L54.2093108,29.4135081 L54.4090135,29.2123459 C54.4090135,29.2123459 54.6753649,28.9746973 54.6770676,28.6789135 C54.6775541,28.3819135 54.4763919,28.1435351 54.4763919,28.1435351" id="Fill-18"></path>
                <path d="M58.8845676,27.891 L60.7538919,27.891 L60.7538919,25.9399459 L58.8845676,25.9399459 L58.8845676,27.891 Z M58.8848108,30.9123243 L58.8848108,28.9598108 L60.7538919,28.9598108 L60.7538919,30.1774865 C60.7538919,30.1774865 60.7604595,30.5068378 60.4199189,30.726 C60.1075946,30.9257027 59.8032973,30.9123243 59.7707027,30.9123243 L58.8848108,30.9123243 Z M55.9447297,30.9123243 L57.816,30.9123243 L57.816,28.9598108 L55.9447297,28.9598108 L55.9447297,30.9123243 Z M57.816,25.9401892 L57.816,27.891 L55.9447297,27.891 L55.9447297,26.3408108 C55.9447297,26.3408108 56.0232973,26.2058108 56.2806486,26.0627838 C56.5063784,25.9384865 56.7133784,25.9401892 56.7133784,25.9401892 L57.816,25.9401892 Z M58.8848108,23.8025676 L58.8848108,23.8025676 C58.8848108,23.8025676 58.8862703,23.4654324 58.6841351,23.2679189 C58.4596216,23.049973 58.0823514,23.067 58.0823514,23.067 L57.816,23.067 L57.816,24.8701622 L57.2147027,24.8701622 C57.2147027,24.8701622 56.7953514,24.875027 56.4796216,25.0718108 C56.1828649,25.2569189 55.9447297,25.605973 55.9447297,25.605973 L55.9447297,24.8701622 L54.8759189,24.8701622 L54.8759189,31.9813784 L57.816,31.9813784 L57.816,34.8895946 L58.0823514,34.8895946 C58.0823514,34.8895946 58.4547568,34.8698919 58.6534865,34.6971892 C58.8884595,34.4948108 58.8848108,34.1552432 58.8848108,34.1552432 L58.8848108,31.9813784 L59.7033243,31.9813784 C59.7033243,31.9813784 60.6237568,31.9881892 61.2167838,31.4430811 C61.6808919,31.014973 61.8231892,30.6031622 61.8231892,30.1081622 L61.8231892,24.8701622 L58.8848108,24.8701622 L58.8848108,23.8025676 Z" id="Fill-20"></path>
                <path d="M52.3387703,24.5369432 L53.4739865,24.5369432 L52.9945541,23.6393757 C52.9945541,23.6393757 52.7848784,23.2008081 52.3587162,23.2008081 L51.6039324,23.2008081 L52.3387703,24.5369432 Z" id="Fill-22"></path>
                <path d="M86.8624297,33.5623622 C86.5505919,33.7618216 86.2453216,33.7486865 86.2151595,33.7486865 L82.4675108,33.7486865 L82.4675108,32.0143622 C82.4675108,32.0143622 82.5455919,31.8800919 82.8029432,31.7360919 C83.0262405,31.6110649 83.2351865,31.6134973 83.2351865,31.6134973 L87.1985919,31.6134973 L87.1985919,33.0145784 C87.1985919,33.0145784 87.2032135,33.3419838 86.8624297,33.5623622 L86.8624297,33.5623622 Z M83.7367541,30.5449297 C83.7367541,30.5449297 83.3008622,30.5609838 83.0019162,30.7443892 C82.7022405,30.9273081 82.4675108,31.2792811 82.4675108,31.2792811 L82.4675108,30.5449297 L81.3982135,30.5449297 L81.3982135,34.8167676 L86.1458351,34.8167676 C86.1458351,34.8167676 87.0669973,34.8243081 87.6595378,34.2792 C88.1224297,33.8523081 88.2661865,33.4392811 88.2661865,32.9440378 L88.2661865,30.5449297 L83.7367541,30.5449297 Z" id="Fill-23"></path>
                <polygon id="Fill-24" points="80.9311622 25.3829189 88.740973 25.3829189 88.740973 24.3143514 80.9311622 24.3143514"></polygon>
                <polygon id="Fill-25" points="81.3719189 27.4035405 88.2955946 27.4035405 88.2955946 26.3347297 81.3719189 26.3347297"></polygon>
                <polygon id="Fill-26" points="81.3719189 29.4178378 88.2955946 29.4178378 88.2955946 28.3495135 81.3719189 28.3495135"></polygon>
                <path d="M84.4430595,24.5369432 L85.5792486,24.5369432 L85.0993297,23.6393757 C85.0993297,23.6393757 84.8891676,23.2008081 84.4622757,23.2008081 L83.7074919,23.2008081 L84.4430595,24.5369432 Z" id="Fill-27"></path>
                <path d="M78.8166486,27.1356568 L78.8166486,34.8822243 L79.1508649,34.8822243 C79.1508649,34.8822243 79.4717027,34.8732243 79.6852703,34.6813054 C79.92,34.4701703 79.9521081,34.2364135 79.9521081,34.1476297 L79.9521081,25.9819541 L78.8166486,27.1356568 Z" id="Fill-28"></path>
                <path d="M79.2808054,23.161573 C79.2684,24.6679784 79.0132378,26.1984649 77.9689946,27.2492757 C77.2969135,27.9252486 76.8291568,28.3168703 76.8291568,28.3168703 L77.6802649,29.1653027 C77.6802649,29.1653027 78.7614811,28.4311946 79.7215622,26.6907892 C80.1117243,25.9853838 80.4427784,24.6791676 80.4583459,23.161573 L79.2808054,23.161573 Z" id="Fill-29"></path>
                <path d="M96.5346811,31.3049919 C96.5346811,31.3049919 96.2982486,31.0644243 96.0061135,31.0418027 C95.6575459,31.0150459 95.4391135,31.2857757 95.4391135,31.2857757 L95.2464649,31.5285324 L96.9316541,33.2669919 C96.9316541,33.2669919 97.1033838,33.1397757 97.1498432,33.1045054 C97.1965459,33.0697216 97.4157081,32.8734243 97.4242216,32.5503973 C97.4339514,32.2266405 97.1841405,31.9816946 97.1841405,31.9816946 L96.5346811,31.3049919 Z" id="Fill-30"></path>
                <path d="M101.300011,31.7693919 C101.300011,31.7693919 101.103957,31.4937973 100.819362,31.4264189 C100.479308,31.3461486 100.220497,31.5789324 100.220497,31.5789324 L99.9935514,31.7895811 L101.615011,34.0770405 C101.615011,34.0770405 101.803768,33.9780405 101.856795,33.9507973 C101.907632,33.9233108 102.154281,33.762527 102.213632,33.4448514 C102.270795,33.1269324 102.062335,32.844527 102.062335,32.844527 L101.300011,31.7693919 Z" id="Fill-31"></path>
                <path d="M99.4885054,29.2920568 C99.1992892,29.4895703 98.8709108,29.4776514 98.8392892,29.4776514 L93.0488838,29.4776514 L93.0488838,25.7105432 C93.0488838,25.7105432 93.1276946,25.5757865 93.3850459,25.4342189 C93.6095595,25.3082189 93.8168027,25.3094351 93.8168027,25.3094351 L99.8234514,25.3094351 L99.8234514,28.744273 C99.8234514,28.744273 99.8219919,29.0626784 99.4885054,29.2920568 L99.4885054,29.2920568 Z M94.3191,24.2406243 C94.3191,24.2406243 93.8824784,24.2588676 93.5835324,24.4417865 C93.2855595,24.6251919 93.0488838,24.9766784 93.0488838,24.9766784 L93.0488838,24.2406243 L91.9803162,24.2406243 L91.9803162,30.5464622 L98.7702081,30.5464622 C98.7702081,30.5464622 99.7088838,30.542327 100.300208,29.9964892 C100.762857,29.5691108 100.890803,29.1529216 100.890803,28.6581649 L100.890803,24.2406243 L94.3191,24.2406243 Z" id="Fill-32"></path>
                <polygon id="Fill-33" points="92.5443243 27.0788108 100.292595 27.0788108 100.292595 26.01 92.5443243 26.01"></polygon>
                <polygon id="Fill-34" points="92.5516216 28.8058378 100.300135 28.8058378 100.300135 27.7367838 92.5516216 27.7367838"></polygon>
                <path d="M95.6766649,24.5369432 L94.5409622,24.5369432 L95.0199081,23.6393757 C95.0199081,23.6393757 95.2305568,23.2008081 95.6574486,23.2008081 L96.4100432,23.2008081 L95.6766649,24.5369432 Z" id="Fill-35"></path>
                <path d="M92.4558324,32.4437595 C92.4558324,32.4437595 92.5986162,32.1377595 92.5146973,31.8560838 C92.4169135,31.5221108 92.0858595,31.4131378 92.0858595,31.4131378 L91.7903189,31.3199757 L90.6054811,33.8596784 C90.6054811,33.8596784 90.7852378,33.9754622 90.8338865,34.0075703 C90.8847243,34.0379757 91.1462108,34.1727324 91.4512378,34.0664351 C91.7577243,33.9598946 91.8973459,33.6395432 91.8973459,33.6395432 L92.4558324,32.4437595 Z" id="Fill-36"></path>
                <path d="M99.0329108,32.3342514 L99.0329108,33.0146027 C99.0329108,33.0146027 99.0397216,33.3420081 98.6996676,33.5623865 C98.3883162,33.7618459 98.0835324,33.7484676 98.0506946,33.7484676 L94.0418027,33.7484676 L94.0418027,31.5371432 L92.9732351,31.5371432 L92.9732351,34.8167919 L97.981127,34.8167919 C97.981127,34.8167919 98.9103162,34.8236027 99.5004243,34.2775216 C99.9647757,33.8506297 100.102695,33.4393054 100.102695,32.9440622 L100.102695,32.3342514 L99.0329108,32.3342514 Z" id="Fill-37"></path>
                <path d="M60.8693838,17.2639946 L60.8693838,17.2639946 C59.6770054,17.9769405 57.9818432,18.3921568 55.7260054,18.3938595 C55.1718973,18.3938595 54.6460054,18.3853459 54.2125459,18.364427 L55.6484108,10.2259946 C56.1533838,10.1819676 56.7831405,10.1454811 57.5384108,10.1454811 C59.7519243,10.1466973 61.2172216,10.5451297 62.0926541,11.1846162 C62.9673568,11.8289676 63.3156811,12.7513459 63.1047892,13.9731568 C63.0984649,14.0098865 63.0974919,14.0381027 63.092627,14.0541568 C62.8326,15.495373 62.0627351,16.5478865 60.8693838,17.2639946 M65.0402757,9.50307568 L65.0402757,9.50307568 C63.5292486,8.46272432 61.1369514,7.93853514 57.8176541,7.93853514 C56.0120595,7.94048108 54.3516811,8.0424 52.9223838,8.18202162 L52.2729243,8.24575135 L50.1182757,20.4526703 L50.7869514,20.4976703 C51.932627,20.5730757 53.2753297,20.6319405 54.8931405,20.6319405 C58.367627,20.6297514 61.3332486,20.0321027 63.3575189,18.832427 C65.3506541,17.6721568 66.5734378,15.9694541 66.9161676,14.0137784 L66.9217622,13.9816703 C67.2698432,12.0204 66.5488703,10.5215351 65.0402757,9.50307568" id="Fill-38"></path>
                <path d="M102.518611,9.6516 L102.805395,8.02016757 L88.5360162,8.02016757 L88.1271243,10.3326811 L93.3707189,10.3326811 L91.5721784,20.5308973 L95.3259081,20.5308973 L97.1259081,10.3326811 L101.726854,10.3326811 C102.101692,10.3326811 102.453178,10.0203568 102.518611,9.6516" id="Fill-39"></path>
                <path d="M85.8621405,19.7761135 L87.9350595,8.02016757 L84.2097892,8.02016757 L82.0047892,20.5318703 L84.9940054,20.5318703 C85.4989784,20.5318703 85.7847892,20.2115189 85.8621405,19.7761135" id="Fill-40"></path>
                <path d="M80.4471324,17.7371757 L79.6531865,17.9908784 C78.8889162,18.2380135 77.5209162,18.4260405 76.287673,18.4260405 C76.2830514,18.4260405 76.2764838,18.4248243 76.2679703,18.4260405 C74.3402676,18.4065811 72.9438081,18.0193378 72.0858892,17.3190405 C71.2274838,16.6187432 70.894727,15.6117162 71.0910243,14.3222838 C71.3692946,12.9250946 72.1201865,11.8939865 73.2675649,11.1946622 C74.4149432,10.4948514 75.9675649,10.1350946 77.8283757,10.1153919 L77.8439432,10.1153919 C79.1615919,10.1153919 80.2442676,10.319473 80.9304568,10.5542027 L81.2235649,10.6541757 C81.3568622,10.6836081 81.7003216,10.7174189 81.9265378,10.3744459 L83.0483757,8.57541892 L82.4879432,8.38666216 C81.8175649,8.16044595 80.4101595,7.83328378 78.1382676,7.83328378 L78.1287811,7.83328378 C75.2993757,7.83328378 72.7331595,8.48833784 70.7949973,9.64666216 C68.8590243,10.8010946 67.573727,12.4532027 67.2361054,14.3650946 L67.2329432,14.3884459 C66.8812135,16.374527 67.5934297,17.9818784 69.0859703,19.065527 C70.5763216,20.1530676 72.8071054,20.7064459 75.3852405,20.7064459 L75.3976459,20.7064459 C77.6092135,20.7042568 79.3564297,20.4135811 80.373673,20.1087973 L80.9771595,19.9278243 L80.5186459,17.7150405 L80.4471324,17.7371757 Z" id="Fill-41"></path>
                <path d="M111.926457,14.4756 C111.183835,13.8543568 110.046186,13.3824649 108.607159,13.0183297 C107.508916,12.7227892 106.764349,12.451573 106.382943,12.188627 C106.006889,11.9140054 105.910565,11.7288973 105.967241,11.3005459 C106.037295,11.0371135 106.2027,10.7559243 106.60697,10.5221676 C107.014646,10.2886541 107.674322,10.1110865 108.714186,10.0957622 C110.097511,10.0957622 111.079241,10.3981135 111.568403,10.5766541 L111.829159,10.6739514 C111.901646,10.6963297 112.330727,10.8062757 112.590268,10.3866811 L113.741051,8.67351892 L113.239727,8.46165405 C112.406862,8.11332973 111.049322,7.83578919 109.173673,7.83408649 C107.354943,7.83408649 105.71743,8.19043784 104.468862,8.83697838 C103.221997,9.47816757 102.383295,10.4195189 102.195268,11.4810324 L102.195268,11.4907622 L102.195268,11.4948973 C102.024268,12.451573 102.440457,13.2207081 103.234403,13.8246811 C104.030781,14.4303568 105.207592,14.8820595 106.595295,15.2194378 C107.666051,15.4928432 108.344943,15.7723297 108.690592,16.042573 C109.0287,16.3218162 109.124295,16.5514378 109.063241,16.9819784 C108.967159,17.4096 108.705186,17.7481946 108.205322,18.0011676 C107.703268,18.2529243 106.956754,18.4066541 105.930997,18.4241676 L105.921754,18.4241676 C104.548646,18.4241676 103.237322,18.1021135 102.410538,17.7494108 L101.661105,17.4324649 L100.254673,19.6722486 L100.70443,19.8841135 C101.736268,20.3569784 103.549403,20.6982486 105.342592,20.7067622 C107.526673,20.7067622 109.30843,20.2961676 110.602484,19.5924649 C111.896051,18.8933838 112.652781,17.9070324 112.833511,16.8846811 L112.833511,16.8815189 C112.836916,16.8637622 112.840078,16.8477081 112.842997,16.8311676 C113.011808,15.8757081 112.666889,15.0958703 111.926457,14.4756" id="Fill-42"></path>
            </g>
        </g>
    </g>
</svg>