<svg xmlns="http://www.w3.org/2000/svg" width="16" height="16" viewBox="0 0 16 16">
  <path fill="#9FA3A7" d="M13,2 L10.5,5 L12,5 L12,11 C11.6666667,11.6666667 11.1666667,12 10.5,12 C9.83333333,12 9.33333333,11.6666667 9,11 L9,5 C8.66666667,3 7.46666667,2 5.4,2 C3.33333333,2 2.2,3 2,5 L2,11 L0.5,11 L3,14 L5.5,11 L4,11 L4,5 C4.33333333,4.33333333 4.83333333,4 5.5,4 C6.16666667,4 6.66666667,4.33333333 7,5 L7,11 C7.33333333,13 8.5,14 10.5,14 C12.5,14 13.6666667,13 14,11 L14,5 L15.5,5 L13,2 Z"/>
</svg>
