<svg xmlns="http://www.w3.org/2000/svg" width="16" height="16" viewBox="0 0 16 16">
  <g fill="#9FA3A7" fill-rule="evenodd">
    <path fill-rule="nonzero" d="M14,15 L9,15 L9,15 C8.44771525,15 8,14.5522847 8,14 L8,13 L8,13 C8,12.4477153 8.44771525,12 9,12 L14,12 L14,12 C14.5522847,12 15,12.4477153 15,13 L15,14 L15,14 C15,14.5522847 14.5522847,15 14,15 Z"/>
    <path d="M2,1 L14,1 C14.5522847,1 15,1.44771525 15,2 L15,9 C15,9.55228475 14.5522847,10 14,10 L2,10 C1.44771525,10 1,9.55228475 1,9 L1,2 C1,1.44771525 1.44771525,1 2,1 L2,1 Z M2,4 L2,9 L14,9 L14,4 L2,4 Z"/>
  </g>
</svg>
