<?xml version="1.0" encoding="UTF-8"?>
<svg width="72px" height="77px" viewBox="0 0 72 77" version="1.1" xmlns="http://www.w3.org/2000/svg" xmlns:xlink="http://www.w3.org/1999/xlink">
    <!-- Generator: Sketch 44.1 (41455) - http://www.bohemiancoding.com/sketch -->
    <title>diaodu</title>
    <desc>Created with Sketch.</desc>
    <defs></defs>
    <g id="Page-1" stroke="none" stroke-width="1" fill="none" fill-rule="evenodd">
        <g id="flow-copy-2" transform="translate(-481.000000, -524.000000)">
            <g id="任务调度" transform="translate(479.000000, 522.000000)">
                <g id="diaodu" transform="translate(1.000000, 0.000000)">
                    <path d="M11.5768715,78.641991 C10.5707019,78.3418052 9.60817832,77.9404037 8.70111362,77.4495991 L8.77253834,71.2128754 L2.5358146,71.2843001 C2.04501006,70.3772354 1.6436085,69.4147118 1.34342274,68.4085422 L5.80482142,64.0481729 L1.34342274,59.6878036 C1.6436085,58.681634 2.04501006,57.7191105 2.5358146,56.8120458 L8.77253834,56.8834705 L8.70111362,50.6467468 C9.60817832,50.1559422 10.5707019,49.7545407 11.5768715,49.4543549 L15.9372408,53.9157536 L20.2976101,49.4543549 C21.3037797,49.7545407 22.2663033,50.1559422 23.173368,50.6467468 L23.1019432,56.8834705 L29.338667,56.8120458 C29.8294715,57.7191105 30.2308731,58.681634 30.5310588,59.6878036 L26.0696602,64.0481729 L30.5310588,68.4085422 C30.2308731,69.4147118 29.8294715,70.3772354 29.338667,71.2843001 L23.1019432,71.2128754 L23.173368,77.4495991 C22.2663033,77.9404037 21.3037797,78.3418052 20.2976101,78.641991 L15.9372408,74.1805923 L11.5768715,78.641991 Z" id="Combined-Shape" fill="#235875"></path>
                    <circle id="Oval-7" fill="#43A6DD" cx="16" cy="64" r="12"></circle>
                    <path d="M38.0749908,59.6815744 C36.7159977,59.4215266 35.3910474,59.0656157 34.1074477,58.6211494 L33.9534395,48.0351278 L24.715512,53.190946 C23.6789745,52.292515 22.707485,51.3210255 21.809054,50.284488 L26.9648722,41.0465605 L16.3788506,40.8925523 C15.9343843,39.6089526 15.5784734,38.2840023 15.3184256,36.9250092 L24.4068791,31.5 L15.3184256,26.0749908 C15.5784734,24.7159977 15.9343843,23.3910474 16.3788506,22.1074477 L26.9648722,21.9534395 L21.809054,12.715512 C22.707485,11.6789745 23.6789745,10.707485 24.715512,9.80905399 L33.9534395,14.9648722 L34.1074477,4.37885063 C35.3910474,3.93438428 36.7159977,3.57847337 38.0749908,3.31842565 L43.5,12.4068791 L48.9250092,3.31842565 C50.2840023,3.57847337 51.6089526,3.93438428 52.8925523,4.37885063 L53.0465605,14.9648722 L62.284488,9.80905399 C63.3210255,10.707485 64.292515,11.6789745 65.190946,12.715512 L60.0351278,21.9534395 L70.6211494,22.1074477 C71.0656157,23.3910474 71.4215266,24.7159977 71.6815744,26.0749908 L62.5931209,31.5 L71.6815744,36.9250092 C71.4215266,38.2840023 71.0656157,39.6089526 70.6211494,40.8925523 L60.0351278,41.0465605 L65.190946,50.284488 C64.292515,51.3210255 63.3210255,52.292515 62.284488,53.190946 L53.0465605,48.0351278 L52.8925523,58.6211494 C51.6089526,59.0656157 50.2840023,59.4215266 48.9250092,59.6815744 L43.5,50.5931209 L38.0749908,59.6815744 Z" id="Combined-Shape" fill="#9A453C" transform="translate(43.500000, 31.500000) rotate(-7.000000) translate(-43.500000, -31.500000) "></path>
                    <circle id="Oval-7" fill="#E86C60" transform="translate(42.500000, 31.500000) rotate(-7.000000) translate(-42.500000, -31.500000) " cx="42.5" cy="31.5" r="22.5"></circle>
                    <circle id="Oval-8" fill="#FFA09A" cx="42.5" cy="31.5" r="10.5"></circle>
                    <circle id="Oval-2" fill="#071A2E" cx="42.5" cy="31.5" r="8.5"></circle>
                    <circle id="Oval-3" fill="#071E32" cx="16" cy="64" r="6"></circle>
                    <circle id="Oval-9" fill="#071D31" cx="16" cy="64" r="6"></circle>
                </g>
            </g>
        </g>
    </g>
</svg>