<?xml version="1.0" encoding="UTF-8"?>
<svg width="80px" height="80px" viewBox="0 0 80 80" version="1.1" xmlns="http://www.w3.org/2000/svg" xmlns:xlink="http://www.w3.org/1999/xlink">
    <!-- Generator: Sketch 44.1 (41455) - http://www.bohemiancoding.com/sketch -->
    <title>ETLsvg</title>
    <desc>Created with Sketch.</desc>
    <defs></defs>
    <g id="Page-1" stroke="none" stroke-width="1" fill="none" fill-rule="evenodd">
        <g id="flow-copy-2" transform="translate(-1086.000000, -357.000000)">
            <g id="ETL" transform="translate(1086.000000, 357.000000)">
                <circle id="Oval-10" fill="#7AB6FF" cx="40" cy="40" r="40"></circle>
                <path d="M22.6810129,23.660381 C23.1971843,23.660381 23.67892,23.4524037 24.0458495,23.0943566 C27.762235,19.4667635 32.534022,17.1909005 37.6381203,16.57855 C37.3857536,16.9135566 37.2481322,17.3410928 37.2481322,17.7685677 C37.2481322,18.3000314 37.4546251,18.7967504 37.8330535,19.1778992 C38.2114818,19.5590481 38.7048989,19.7670254 39.2323258,19.7670254 C39.7597527,19.7670254 40.2531698,19.5590481 40.6315982,19.1778992 L43.5909445,16.1972786 C44.0841182,15.7005596 44.3480446,15.0651073 44.3480446,14.3719924 C44.3480446,13.6903978 44.0843007,13.031905 43.5909445,12.5467063 L40.6201601,9.58912618 C40.2416101,9.20785479 39.7483147,9 39.2208878,9 C38.6934609,9 38.2000438,9.20797735 37.8216154,9.58912618 C37.4546251,9.97039756 37.2366942,10.4672391 37.2366942,10.9984577 C37.2366942,11.5296762 37.4431871,12.0266403 37.8216154,12.4077892 L37.9821737,12.5695017 C31.7193059,13.135526 25.8466087,15.8273437 21.3043124,20.2636219 C20.5243971,21.0261646 20.5013993,22.2853039 21.2584994,23.0709484 C21.6254898,23.4522198 22.141722,23.6600746 22.6808304,23.6600746 L22.6810129,23.660381 Z M28.1752817,60.6291822 C21.0981237,56.2621481 16.8655667,48.6720165 16.8655667,40.3193422 C16.8655667,35.9407878 18.0584678,31.6662834 20.3067095,27.9463444 C20.8686939,27.0336707 20.5704534,25.8321327 19.6642939,25.2659858 C18.7581344,24.6998388 17.5651724,25.0003459 17.0030664,25.9130196 C14.3763963,30.2336663 13,35.2245099 13,40.319281 C13,45.1483508 14.2502129,49.8965337 16.6246988,54.0671721 C18.9187535,58.1106586 22.2222141,61.5302744 26.1565306,63.9563909 C26.477708,64.1527867 26.8218223,64.2452551 27.1658757,64.2452551 C27.8082914,64.2452551 28.4505244,63.9102486 28.8176365,63.3095409 C29.3682437,62.3852243 29.0813804,61.1838089 28.1752209,60.6291822 L28.1752817,60.6291822 Z M64.3870434,26.6061957 C63.8593731,25.6704815 62.6779708,25.3469952 61.7488136,25.8783976 C60.8196564,26.4097999 60.4986007,27.5997563 61.0262101,28.5355931 C63.045022,32.1054012 64.1117398,36.1721121 64.1117398,40.307822 C64.1117398,53.431781 53.5131902,64.1065831 40.482843,64.1065831 C38.0856027,64.1065831 35.7111776,63.7484748 33.4514979,63.0321356 C32.4306539,62.7086493 31.3409384,63.2977755 31.031199,64.3144992 C30.7100217,65.3426819 31.2949429,66.4402312 32.3044097,66.7521972 C34.9540775,67.5839227 37.706931,68 40.4941593,68 C44.2105449,68 47.8121852,67.2606203 51.1960162,65.8165442 C54.4765399,64.4186104 57.4128276,62.4200302 59.9363729,59.8784048 C62.4599182,57.3367794 64.4442335,54.3791994 65.8321287,51.075215 C67.2773965,47.6555992 68,44.0395876 68,40.2964243 C67.9885011,35.502099 66.7497871,30.7653751 64.3868609,26.6064408 L64.3870434,26.6061957 Z M48.0189823,17.7567411 C51.8157382,19.0391047 55.2568202,21.3033861 57.9752379,24.3071084 C58.365226,24.7230631 58.8813974,24.9425608 59.4091285,24.9425608 C59.8678664,24.9425608 60.3381641,24.7808483 60.7052153,24.4343215 C61.4966903,23.7065233 61.5539413,22.4819448 60.8314594,21.68478 C57.6771191,18.1957976 53.6739919,15.5617651 49.2580005,14.0715467 C48.2486554,13.7365401 47.147441,14.279524 46.8033268,15.2961864 C46.4592125,16.3128488 47.0098197,17.4219184 48.0192256,17.7569862 L48.0189823,17.7567411 Z" id="Shape" fill="#FFFFFF" fill-rule="nonzero"></path>
                <text font-family="DINAlternate-Bold, DIN Alternate" font-size="18" font-weight="bold" letter-spacing="1.6" fill="#FFFFFF">
                    <tspan x="26.0892578" y="46">ETL</tspan>
                </text>
            </g>
        </g>
    </g>
</svg>