<?xml version="1.0" encoding="UTF-8"?>
<svg width="60px" height="73px" viewBox="0 0 60 73" version="1.1" xmlns="http://www.w3.org/2000/svg" xmlns:xlink="http://www.w3.org/1999/xlink">
    <!-- Generator: Sketch 44.1 (41455) - http://www.bohemiancoding.com/sketch -->
    <title>severe</title>
    <desc>Created with Sketch.</desc>
    <defs></defs>
    <g id="Page-1" stroke="none" stroke-width="1" fill="none" fill-rule="evenodd">
        <g id="flow-copy-2" transform="translate(-487.000000, -1200.000000)" fill-rule="nonzero">
            <g id="服务器-copy-2" transform="translate(482.000000, 1200.000000)">
                <g id="severe" transform="translate(5.000000, 0.000000)">
                    <path d="M30,73 C15.4564105,73 0,69.1070052 0,61.8913043 L0,11.1086957 C0,10.2322989 0.706973684,9.52173913 1.57894737,9.52173913 L58.4210526,9.52173913 C59.2930263,9.52173913 60,10.2322989 60,11.1086957 L60,61.8913043 C60,69.1070052 44.5435895,73 30,73 Z" id="Shape" fill="#C3C3C3"></path>
                    <path d="M30,22.2173913 C15.4564105,22.2173913 0,18.3243965 0,11.1086957 C0,3.89299478 15.4564105,0 30,0 C44.5435895,0 60,3.89299478 60,11.1086957 C60,18.3243965 44.5435895,22.2173913 30,22.2173913 Z" id="Shape" fill="#ECECEC"></path>
                    <path d="M60,28.5652174 C60,31.878608 48.5873211,36.5 30,36.5 C11.4126789,36.5 0,31.878608 0,28.5652174 L0,33.5855702 C5.60341579,37.5976185 17.8526842,39.673913 30,39.673913 C42.1472211,39.673913 54.3964895,37.5977137 60,33.5856654 L60,28.5652174 Z" id="Shape" fill="#3F4D59"></path>
                    <path d="M60,46.0217391 C60,49.3351298 48.5873211,53.9565217 30,53.9565217 C11.4126789,53.9565217 0,49.3351298 0,46.0217391 L0,51.042092 C5.60341579,55.0541402 17.8526842,57.1304348 30,57.1304348 C42.1472211,57.1304348 54.3964895,55.0542354 60,51.0421872 L60,46.0217391 Z" id="Shape" fill="#3F4D59"></path>
                </g>
            </g>
        </g>
    </g>
</svg>