<?xml version="1.0" encoding="UTF-8"?>
<svg width="42px" height="44px" viewBox="0 0 42 44" version="1.1" xmlns="http://www.w3.org/2000/svg" xmlns:xlink="http://www.w3.org/1999/xlink">
    <!-- Generator: Sketch 44.1 (41455) - http://www.bohemiancoding.com/sketch -->
    <title>webapp</title>
    <desc>Created with Sketch.</desc>
    <defs></defs>
    <g id="Page-1" stroke="none" stroke-width="1" fill="none" fill-rule="evenodd">
        <g id="flow-copy-2" transform="translate(-622.000000, -53.000000)" fill-rule="nonzero">
            <g id="box" transform="translate(606.000000, 24.000000)">
                <g id="Group-2" transform="translate(16.000000, 28.000000)">
                    <g id="webapp">
                        <path d="M41.561,9.172 C41.285,8.985 40.934,8.947 40.629,9.071 L20.629,17.071 C20.249,17.224 20,17.591 20,18 L20,44 C20,44.332 20.165,44.642 20.439,44.828 C20.607,44.941 20.803,45 21,45 C21.126,45 21.252,44.977 21.371,44.929 L41.371,36.929 C41.751,36.776 42,36.409 42,36 L42,10 C42,9.668 41.835,9.358 41.561,9.172 Z" id="Shape" fill="#458BC4"></path>
                        <path d="M21,16.923 L1.371,9.071 C1.065,8.95 0.715,8.986 0.439,9.172 C0.165,9.358 0,9.668 0,10 L0,36 C0,36.409 0.249,36.776 0.629,36.929 L20.629,44.929 C20.748,44.977 20.874,45 21,45 L21,16.923 Z" id="Shape" fill="#43A6DD"></path>
                        <path d="M41.371,9.071 L21.371,1.071 C21.133,0.975 20.867,0.975 20.629,1.071 L0.629,9.071 C0.249,9.224 0,9.591 0,10 C0,10.409 0.249,10.776 0.629,10.929 L20.629,18.929 C20.748,18.977 20.874,19 21,19 C21.126,19 21.252,18.977 21.371,18.929 L41.371,10.929 C41.751,10.776 42,10.409 42,10 C42,9.591 41.751,9.224 41.371,9.071 Z" id="Shape" fill="#BADEFC"></path>
                    </g>
                </g>
            </g>
        </g>
    </g>
</svg>