<?xml version="1.0" encoding="UTF-8"?>
<svg width="200px" height="137px" viewBox="0 0 200 137" version="1.1" xmlns="http://www.w3.org/2000/svg" xmlns:xlink="http://www.w3.org/1999/xlink">
    <!-- Generator: Sketch 43.2 (39069) - http://www.bohemiancoding.com/sketch -->
    <title>可视化/default </title>
    <desc>Created with Sketch.</desc>
    <defs>
        <filter x="-48.6%" y="-31.1%" width="179.7%" height="184.8%" filterUnits="objectBoundingBox" id="filter-1">
            <feOffset dx="-6" dy="7" in="SourceAlpha" result="shadowOffsetOuter1"></feOffset>
            <feGaussianBlur stdDeviation="8" in="shadowOffsetOuter1" result="shadowBlurOuter1"></feGaussianBlur>
            <feColorMatrix values="0 0 0 0 0   0 0 0 0 0   0 0 0 0 0  0 0 0 0.2 0" type="matrix" in="shadowBlurOuter1" result="shadowMatrixOuter1"></feColorMatrix>
            <feMerge>
                <feMergeNode in="shadowMatrixOuter1"></feMergeNode>
                <feMergeNode in="SourceGraphic"></feMergeNode>
            </feMerge>
        </filter>
        <linearGradient x1="7.37295678%" y1="9.61495724%" x2="90.9933947%" y2="100%" id="linearGradient-2">
            <stop stop-color="#FBDA61" offset="0%"></stop>
            <stop stop-color="#F76B1C" offset="100%"></stop>
        </linearGradient>
    </defs>
    <g id="政务信息资源目录-各种模板" stroke="none" stroke-width="1" fill="none" fill-rule="evenodd">
        <g id="300_Artboard" transform="translate(-17.000000, -30.000000)">
            <g id="Stacked-Group-2" transform="translate(17.000000, 30.000000)">
                <g id="Group-17">
                    <g id="可视化/default-">
                        <g id="business-color_board-30" filter="url(#filter-1)" transform="translate(66.000000, 36.000000)">
                            <g id="Group" fill-rule="nonzero">
                                <path d="M37.5,0 L31.5,0 C30.670905,0 30,0.671625 30,1.5 L30,7.5 C30,8.328375 30.670905,9 31.5,9 L37.5,9 C38.329095,9 39,8.328375 39,7.5 L39,1.5 C39,0.671625 38.329095,0 37.5,0 Z" id="Shape" fill="#4A4A4A"></path>
                                <path d="M61.5,6 L7.5,6 C6.670905,6 6,6.671625 6,7.5 L6,49.5 C6,50.328375 6.670905,51 7.5,51 C8.329095,51 9,50.328375 9,49.5 L60,49.5 C60,50.328375 60.670905,51 61.5,51 C62.329095,51 63,50.328375 63,49.5 L63,7.5 C63,6.671625 62.329095,6 61.5,6 Z" id="Shape" fill="url(#linearGradient-2)"></path>
                                <path d="M34.5,63 C33.670905,63 33,62.328375 33,61.5 L33,49.5 C33,48.671625 33.670905,48 34.5,48 C35.329095,48 36,48.671625 36,49.5 L36,61.5 C36,62.328375 35.329095,63 34.5,63 Z" id="Shape" fill="#ECCB80"></path>
                                <path d="M16.49853,66 C16.170405,66 15.839355,65.89233 15.5625,65.67114 C14.91651,65.154045 14.81103,64.20996 15.328125,63.563235 L27.328125,48.563235 C27.848145,47.917965 28.79004,47.811045 29.4375,48.32886 C30.08349,48.845955 30.18897,49.79004 29.671875,50.436765 L17.671875,65.436765 C17.374515,65.80737 16.939455,66 16.49853,66 Z" id="Shape" fill="#ECCB80"></path>
                                <path d="M52.50147,66 C52.060545,66 51.6255,65.80737 51.328125,65.436765 L39.328125,50.436765 C38.81103,49.79004 38.91651,48.84594 39.5625,48.32886 C40.21143,47.81031 41.153325,47.917965 41.671875,48.563235 L53.671875,63.563235 C54.18897,64.20996 54.08349,65.15406 53.4375,65.67114 C53.160645,65.89233 52.829595,66 52.50147,66 Z" id="Shape" fill="#ECCB80"></path>
                                <path d="M67.5,51 L1.5,51 C0.670905,51 0,50.328375 0,49.5 C0,48.671625 0.670905,48 1.5,48 L67.5,48 C68.329095,48 69,48.671625 69,49.5 C69,50.328375 68.329095,51 67.5,51 Z" id="Shape" fill="#4A4A4A"></path>
                                <path d="M36.5,15 C37.329095,15 38,15.671625 38,16.5 L38,37.5 C38,38.328375 37.329095,39 36.5,39 L33.5,39 C32.670905,39 32,38.328375 32,37.5 L32,16.5 C32,15.671625 32.670905,15 33.5,15 L36.5,15 Z M24.5,27 C25.329095,27 26,27.671625 26,28.5 L26,37.5 C26,38.328375 25.329095,39 24.5,39 L21.5,39 C20.670905,39 20,38.328375 20,37.5 L20,28.5 C20,27.671625 20.670905,27 21.5,27 L24.5,27 Z M48.5,24 C49.329095,24 50,24.671625 50,25.5 L50,37.5 C50,38.328375 49.329095,39 48.5,39 L45.5,39 C44.670905,39 44,38.328375 44,37.5 L44,25.5 C44,24.671625 44.670905,24 45.5,24 L48.5,24 Z" id="Combined-Shape" fill="#FFFFFF"></path>
                            </g>
                        </g>
                    </g>
                </g>
            </g>
        </g>
    </g>
</svg>