<?xml version="1.0" encoding="UTF-8"?>
<svg width="165px" height="44px" viewBox="0 0 165 44" version="1.1" xmlns="http://www.w3.org/2000/svg" xmlns:xlink="http://www.w3.org/1999/xlink">
    <!-- Generator: Sketch 42 (36781) - http://www.bohemiancoding.com/sketch -->
    <title>footer_info</title>
    <desc>Created with Sketch.</desc>
    <defs></defs>
    <g id="升级改造首页-vol.3" stroke="none" stroke-width="1" fill="none" fill-rule="evenodd">
        <g id="icon-and-more" transform="translate(-456.000000, -614.000000)">
            <g id="footer_info" transform="translate(456.000000, 614.000000)">
                <g id="business-color_books-+-business-color_books-copy-+-business-color_books-copy-2-+-business-color_books-copy-3-+-business-color_books-copy-4-Mask" transform="translate(18.000000, 12.000000)">
                    <path d="M0,2.99263394 C0,1.33984785 1.33845717,0 3.00299322,0 L143.997007,0 C145.655514,0 147,1.3389342 147,2.99263394 L147,24.0073661 C147,25.6601521 145.661543,27 143.997007,27 L3.00299322,27 C1.34448586,27 0,25.6610658 0,24.0073661 L0,2.99263394 Z" id="Mask" fill="#FFFFFF"></path>
                    <text id="信息资源协同互助平台" opacity="0.699999988" font-family="PingFangSC-Regular, PingFang SC" font-size="12" font-weight="normal" fill="#4A4A4A">
                        <tspan x="19" y="18">信息资源协同互助平台</tspan>
                    </text>
                </g>
                <path d="M30.5871718,19.9103782 C30.7190118,19.9704382 30.8606118,19.9997382 31.0002618,19.9997382 C31.2375618,19.9997382 31.4729218,19.9147782 31.6584618,19.7521782 L39.6584618,12.7521782 C39.8762418,12.5622382 40.0002618,12.2883082 40.0002618,11.9997382 C40.0002618,11.7111682 39.8762418,11.4372382 39.6584618,11.2472982 L31.6584618,4.24729821 C31.3635418,3.98997821 30.9426418,3.92747821 30.5871718,4.08909821 C30.2297518,4.25119821 30.0002618,4.60715821 30.0002618,4.99973821 L30.0002618,9.99973821 L22.1428418,9.99973821 C18.9601518,9.99973821 15.9078218,11.2640582 13.6573218,13.5145582 L7.17214179,19.9997382 L-2.99973821,19.9997382 C-3.55201821,19.9997382 -3.99973821,20.4474582 -3.99973821,20.9997382 L-3.99973821,22.9997382 C-3.99973821,23.5520182 -3.55201821,23.9997382 -2.99973821,23.9997382 L7.17214179,23.9997382 L13.6573218,30.4849182 C15.9078218,32.7354182 18.9601518,33.9997382 22.1428418,33.9997382 L30.0002618,33.9997382 L30.0002618,38.9997382 C30.0002618,39.3923182 30.2297518,39.7482782 30.5871718,39.9103782 C30.7190118,39.9704382 30.8606118,39.9997382 31.0002618,39.9997382 C31.2375618,39.9997382 31.4729218,39.9147782 31.6584618,39.7521782 L39.6584618,32.7521782 C39.8762418,32.5622382 40.0002618,32.2883082 40.0002618,31.9997382 C40.0002618,31.7111682 39.8762418,31.4372382 39.6584618,31.2472982 L31.6584618,24.2472982 C31.3635418,23.9894882 30.9426418,23.9269882 30.5871718,24.0890982 C30.2297518,24.2511982 30.0002618,24.6071582 30.0002618,24.9997382 L30.0002618,29.9997382 L22.1415718,29.9997382 C20.0201718,29.9997382 17.9856718,29.1570182 16.4856118,27.6569682 L10.8283818,21.9997382 L16.4856118,16.3425082 C17.9856618,14.8424582 20.0201718,13.9997382 22.1415718,13.9997382 L30.0002618,13.9997382 L30.0002618,18.9997382 C30.0002618,19.3923182 30.2297518,19.7482782 30.5871718,19.9103782 Z" id="Shape" fill="#FF6258" fill-rule="nonzero" transform="translate(18.000262, 22.000000) rotate(-90.000000) translate(-18.000262, -22.000000) "></path>
            </g>
        </g>
    </g>
</svg>