<svg xmlns="http://www.w3.org/2000/svg" width="48" height="48" viewBox="0 0 48 48">
  <g fill="none">
    <path fill="#A67C52" d="M26,13 L2,13 C1.447,13 1,13.448 1,14 L1,32 C1,32.355 1.188,32.685 1.496,32.864 L25.496,46.864 C25.651,46.955 25.826,47 26,47 C26.172,47 26.344,46.956 26.498,46.867 C26.809,46.689 27,46.358 27,46 L27,14 C27,13.448 26.553,13 26,13 Z"/>
    <path fill="#87613E" d="M46.1,15.005 L26.1,13.005 C26.066,13.002 26.034,13.016 26,13.016 L26,47 C26.201,47 26.402,46.939 26.573,46.819 L46.573,32.819 C46.841,32.632 47,32.326 47,32 L47,16 C47,15.486 46.61,15.056 46.1,15.005 Z"/>
    <path fill="#C19F85" d="M46.504,15.136 L22.504,1.136 C22.188,0.951 21.798,0.954 21.485,1.142 L1.485,13.142 C1.183,13.324 0.998,13.653 1,14.006 C1.002,14.359 1.19,14.685 1.496,14.863 L25.496,28.863 C25.652,28.955 25.826,29 26,29 C26.178,29 26.356,28.953 26.515,28.857 L46.515,16.857 C46.818,16.675 47.002,16.347 47,15.993 C46.998,15.639 46.81,15.314 46.504,15.136 Z"/>
    <polygon fill="#DDC1AF" points="12.971 6.251 9.058 8.599 34.986 23.724 38.942 21.401"/>
    <polygon fill="#C19F85" points="38.942 21.401 34.986 23.774 34.997 40.923 38.995 38.124 38.984 21.426"/>
  </g>
</svg>
