<svg xmlns="http://www.w3.org/2000/svg" width="48" height="48" viewBox="0 0 48 48">
  <defs>
    <linearGradient id="shopping_colorsvg-a" x1="7.905%" x2="100.894%" y1="87.659%" y2="14.093%">
      <stop offset="0%" stop-color="#F76B1C"/>
      <stop offset="100%" stop-color="#F79560"/>
    </linearGradient>
  </defs>
  <g fill="none">
    <path fill="url(#shopping_colorsvg-a)" d="M42.78,9.375 C42.59,9.138 42.304,9 42,9 L8,9 L8,29 L38,29 C38.469,29 38.874,28.674 38.977,28.217 L42.977,10.217 C43.042,9.921 42.97,9.611 42.78,9.375 Z"/>
    <path fill="#B3B3B3" d="M46,35 L8,35 C7.447,35 7,34.552 7,34 L7,5 L2,5 C1.447,5 1,4.552 1,4 C1,3.448 1.447,3 2,3 L8,3 C8.553,3 9,3.448 9,4 L9,33 L46,33 C46.553,33 47,33.448 47,34 C47,34.552 46.553,35 46,35 Z"/>
    <path fill="#223E49" d="M13 37C10.791 37 9 38.791 9 41 9 43.209 10.791 45 13 45 15.209 45 17 43.209 17 41 17 38.791 15.209 37 13 37zM40 37C37.791 37 36 38.791 36 41 36 43.209 37.791 45 40 45 42.209 45 44 43.209 44 41 44 38.791 42.209 37 40 37z"/>
    <circle cx="13" cy="41" r="2" fill="#FFF"/>
    <circle cx="40" cy="41" r="2" fill="#FFF"/>
  </g>
</svg>
