<?xml version="1.0" encoding="UTF-8"?>
<svg width="46px" height="46px" viewBox="0 0 46 46" version="1.1" xmlns="http://www.w3.org/2000/svg" xmlns:xlink="http://www.w3.org/1999/xlink">
    <!-- Generator: Sketch 42 (36781) - http://www.bohemiancoding.com/sketch -->
    <title>4-banner_arw_100%</title>
    <desc>Created with Sketch.</desc>
    <defs></defs>
    <g id="Page-3" stroke="none" stroke-width="1" fill="none" fill-rule="evenodd">
        <g id="第四屏" transform="translate(-40.000000, -432.000000)" fill-rule="nonzero" fill="#868686">
            <path d="M63,432 C50.3,432 40,442.3 40,455 C40,467.7 50.3,478 63,478 C75.7,478 86,467.7 86,455 C86,442.3 75.7,432 63,432 Z M67.7,462.3 C68.1,462.7 68.1,463.3 67.7,463.7 C67.5,463.9 67.3,464 67,464 C66.7,464 66.5,463.9 66.3,463.7 L58.3,455.7 C57.9,455.3 57.9,454.7 58.3,454.3 L66.3,446.3 C66.7,445.9 67.3,445.9 67.7,446.3 C68.1,446.7 68.1,447.3 67.7,447.7 L60.4,455 L67.7,462.3 Z" id="4-banner_arw_100%"></path>
        </g>
    </g>
</svg>