<?xml version="1.0" encoding="UTF-8"?>
<svg width="48px" height="48px" viewBox="0 0 48 48" version="1.1" xmlns="http://www.w3.org/2000/svg" xmlns:xlink="http://www.w3.org/1999/xlink">
    <!-- Generator: Sketch 46.1 (44463) - http://www.bohemiancoding.com/sketch -->
    <title>资源车_48x48</title>
    <desc>Created with Sketch.</desc>
    <defs>
        <linearGradient x1="7.90465244%" y1="87.6585803%" x2="100.894404%" y2="14.0926235%" id="linearGradient-1">
            <stop stop-color="#F76B1C" offset="0%"></stop>
            <stop stop-color="#F79560" offset="100%"></stop>
        </linearGradient>
    </defs>
    <g id="aip-v4" stroke="none" stroke-width="1" fill="none" fill-rule="evenodd">
        <g id="页面/hover_搜索热词" transform="translate(-161.000000, -475.000000)" fill-rule="nonzero">
            <g id="加入购物车" transform="translate(83.000000, 458.000000)">
                <g id="资源车_48x48" transform="translate(78.000000, 17.000000)">
                    <path d="M42.78,9.375 C42.59,9.138 42.304,9 42,9 L8,9 L8,29 L38,29 C38.469,29 38.874,28.674 38.977,28.217 L42.977,10.217 C43.042,9.921 42.97,9.611 42.78,9.375 Z" id="Shape" fill="url(#linearGradient-1)"></path>
                    <path d="M46,35 L8,35 C7.447,35 7,34.552 7,34 L7,5 L2,5 C1.447,5 1,4.552 1,4 C1,3.448 1.447,3 2,3 L8,3 C8.553,3 9,3.448 9,4 L9,33 L46,33 C46.553,33 47,33.448 47,34 C47,34.552 46.553,35 46,35 Z" id="Shape" fill="#223E49"></path>
                    <path d="M13,37 C10.791,37 9,38.791 9,41 C9,43.209 10.791,45 13,45 C15.209,45 17,43.209 17,41 C17,38.791 15.209,37 13,37 Z" id="Shape" fill="#223E49"></path>
                    <path d="M40,37 C37.791,37 36,38.791 36,41 C36,43.209 37.791,45 40,45 C42.209,45 44,43.209 44,41 C44,38.791 42.209,37 40,37 Z" id="Shape" fill="#223E49"></path>
                    <circle id="Oval" fill="#FFFFFF" cx="13" cy="41" r="2"></circle>
                    <circle id="Oval" fill="#FFFFFF" cx="40" cy="41" r="2"></circle>
                </g>
            </g>
        </g>
    </g>
</svg>