<svg xmlns="http://www.w3.org/2000/svg" width="24" height="24" viewBox="0 0 24 24">
  <path fill="#4A4A4A" fill-rule="evenodd" d="M13,18 L12,18 L12,13 L6,13 L6,19 L11.5,19 L13.4,19 L18,19 L18,11 L13,11 L13,18 Z M12,24 C5.372583,24 0,18.627417 0,12 C0,5.372583 5.372583,0 12,0 C18.627417,0 24,5.372583 24,12 C24,18.627417 18.627417,24 12,24 Z M14,6 L11,6 L11,7 L9,7 L9,13 L10,13 L10,8 L12,8 L12,7 L13,7 L13,8 L15,8 L15,11 L16,11 L16,7 L14,7 L14,6 Z M12,5 L12,6 L13,6 L13,5 L12,5 Z M14,13 L17,13 L17,12 L14,12 L14,13 Z M14,15 L17,15 L17,14 L14,14 L14,15 Z M14,17 L17,17 L17,16 L14,16 L14,17 Z M7,15 L11,15 L11,14 L7,14 L7,15 Z M7,17 L11,17 L11,16 L7,16 L7,17 Z"/>
</svg>
