<?xml version="1.0" encoding="UTF-8"?>
<svg width="12px" height="12px" viewBox="0 0 12 12" version="1.1" xmlns="http://www.w3.org/2000/svg" xmlns:xlink="http://www.w3.org/1999/xlink">
    <!-- Generator: Sketch 46.1 (44463) - http://www.bohemiancoding.com/sketch -->
    <title>tips_success</title>
    <desc>Created with Sketch.</desc>
    <defs></defs>
    <g id="aip-v4" stroke="none" stroke-width="1" fill="none" fill-rule="evenodd">
        <g id="页面/加入购物车-Tips" transform="translate(-519.000000, -72.000000)" fill="#00A854">
            <g id="全局提示-Alert-基本型警告提示-小（成功）" transform="translate(503.000000, 62.000000)">
                <g id="tips_success">
                    <path d="M22,22 C18.686217,22 16,19.313783 16,16 C16,12.686217 18.686217,10 22,10 C25.313783,10 28,12.686217 28,16 C28,19.313783 25.313783,22 22,22 L22,22 Z M25.6269795,17.5906158 L20.7542522,12.8480938 C20.6076246,12.7014663 20.3695015,12.7014663 20.2228739,12.8480938 L18.3612903,14.627566 C18.2146628,14.7741935 18.2146628,15.0123167 18.3612903,15.1589443 L18.3612903,15.1589443 C18.5079179,15.3055718 18.7460411,15.3055718 18.8926686,15.1589443 L20.4891496,13.6445748 L25.0956012,18.1219941 C25.2422287,18.2686217 25.4803519,18.2686217 25.6269795,18.1219941 L25.6269795,18.1219941 C25.773607,17.9753666 25.773607,17.7372434 25.6269795,17.5906158 L25.6269795,17.5906158 Z" transform="translate(22.000000, 16.000000) scale(1, -1) translate(-22.000000, -16.000000) "></path>
                </g>
            </g>
        </g>
    </g>
</svg>