<?xml version="1.0" encoding="UTF-8"?>
<svg width="8px" height="8px" viewBox="0 0 8 8" version="1.1" xmlns="http://www.w3.org/2000/svg" xmlns:xlink="http://www.w3.org/1999/xlink">
    <!-- Generator: Sketch 46.1 (44463) - http://www.bohemiancoding.com/sketch -->
    <title>tips_close</title>
    <desc>Created with Sketch.</desc>
    <defs></defs>
    <g id="aip-v4" stroke="none" stroke-width="1" fill="none" fill-rule="evenodd" fill-opacity="0.43">
        <g id="页面/加入购物车-Tips" transform="translate(-839.000000, -74.000000)" fill="#000000">
            <g id="全局提示-Alert-基本型警告提示-小（成功）" transform="translate(503.000000, 62.000000)">
                <g id="tips_close">
                    <path d="M343.897974,19.8979743 L343.897974,19.8979743 C343.763376,20.0325729 343.544788,20.0325729 343.410189,19.8979743 L340,16.4877852 L336.588734,19.8979743 C336.454136,20.0325729 336.235547,20.0325729 336.100949,19.8979743 L336.100949,19.8979743 C335.96635,19.7633757 335.96635,19.5447877 336.100949,19.4101891 L339.512215,16 L336.102026,12.5887341 C335.967427,12.4541355 335.967427,12.2355475 336.102026,12.1009489 L336.102026,12.1009489 C336.236624,11.9663504 336.455212,11.9663504 336.589811,12.1009489 L340,15.5122148 L343.411266,12.1020257 C343.545864,11.9674271 343.764453,11.9674271 343.899051,12.1020257 L343.899051,12.1020257 C344.03365,12.2366243 344.03365,12.4552123 343.899051,12.5898109 L340.487785,16 L343.897974,19.4112659 C344.032573,19.5458645 344.032573,19.7633757 343.897974,19.8979743 L343.897974,19.8979743 Z" transform="translate(340.000000, 15.999462) scale(1, -1) translate(-340.000000, -15.999462) "></path>
                </g>
            </g>
        </g>
    </g>
</svg>