<?xml version="1.0" encoding="UTF-8"?>
<svg width="46px" height="46px" viewBox="0 0 46 46" version="1.1" xmlns="http://www.w3.org/2000/svg" xmlns:xlink="http://www.w3.org/1999/xlink">
    <!-- Generator: Sketch 42 (36781) - http://www.bohemiancoding.com/sketch -->
    <title>1_banner_arw_100%</title>
    <desc>Created with Sketch.</desc>
    <defs></defs>
    <g id="升级改造首页-vol.3" stroke="none" stroke-width="1" fill="none" fill-rule="evenodd">
        <g id="icon-and-more" transform="translate(-339.000000, -454.000000)" fill-rule="nonzero" fill="#FFFFFF">
            <path d="M362,454 C349.3,454 339,464.3 339,477 C339,489.7 349.3,500 362,500 C374.7,500 385,489.7 385,477 C385,464.3 374.7,454 362,454 Z M366.7,484.3 C367.1,484.7 367.1,485.3 366.7,485.7 C366.5,485.9 366.3,486 366,486 C365.7,486 365.5,485.9 365.3,485.7 L357.3,477.7 C356.9,477.3 356.9,476.7 357.3,476.3 L365.3,468.3 C365.7,467.9 366.3,467.9 366.7,468.3 C367.1,468.7 367.1,469.3 366.7,469.7 L359.4,477 L366.7,484.3 Z" id="1_banner_arw_100%"></path>
        </g>
    </g>
</svg>