<?xml version="1.0" encoding="UTF-8"?>
<svg width="46px" height="46px" viewBox="0 0 46 46" version="1.1" xmlns="http://www.w3.org/2000/svg" xmlns:xlink="http://www.w3.org/1999/xlink">
    <!-- Generator: Sketch 42 (36781) - http://www.bohemiancoding.com/sketch -->
    <title>3_banner_arw_100% </title>
    <desc>Created with Sketch.</desc>
    <defs></defs>
    <g id="升级改造首页-vol.3" stroke="none" stroke-width="1" fill="none" fill-rule="evenodd">
        <g id="icon-and-more" transform="translate(-430.000000, -454.000000)" fill-rule="nonzero" fill="#4A4A4A">
            <path d="M453,454 C440.3,454 430,464.3 430,477 C430,489.7 440.3,500 453,500 C465.7,500 476,489.7 476,477 C476,464.3 465.7,454 453,454 Z M457.7,484.3 C458.1,484.7 458.1,485.3 457.7,485.7 C457.5,485.9 457.3,486 457,486 C456.7,486 456.5,485.9 456.3,485.7 L448.3,477.7 C447.9,477.3 447.9,476.7 448.3,476.3 L456.3,468.3 C456.7,467.9 457.3,467.9 457.7,468.3 C458.1,468.7 458.1,469.3 457.7,469.7 L450.4,477 L457.7,484.3 Z" id="3_banner_arw_100%-"></path>
        </g>
    </g>
</svg>