<?xml version="1.0" encoding="UTF-8"?>
<svg width="50px" height="50px" viewBox="0 0 50 50" version="1.1" xmlns="http://www.w3.org/2000/svg" xmlns:xlink="http://www.w3.org/1999/xlink">
    <!-- Generator: Sketch 42 (36781) - http://www.bohemiancoding.com/sketch -->
    <title>4_icon_1</title>
    <desc>Created with Sketch.</desc>
    <defs></defs>
    <g id="升级改造首页-vol.3" stroke="none" stroke-width="1" fill="none" fill-rule="evenodd">
        <g id="icon-and-more" transform="translate(-510.000000, -60.000000)" stroke="#00BCD4" stroke-width="2">
            <g id="icon-1" transform="translate(510.000000, 60.000000)">
                <path d="M46,25 C46,28.8888889 36.4884793,32 24.8963134,32 C13.3041475,32 3,28.9861111 3,25.0972222" id="Shape"></path>
                <path d="M24.025641,28 L25.974359,28 C26.5897436,28 27,28.4 27,29 L27,34 C27,34.6 26.5897436,35 25.974359,35 L24.025641,35 C23.4102564,35 23,34.6 23,34 L23,29 C23,28.5 23.4102564,28 24.025641,28 L24.025641,28 Z" id="Shape"></path>
                <path d="M9,14 L41,14 C44.3,14 47,16.7 47,20 L47,38 C47,41.3 44.3,44 41,44 L9,44 C5.7,44 3,41.3 3,38 L3,20 C3,16.7 5.7,14 9,14 L9,14 Z" id="Shape"></path>
                <path d="M16,14 L16,8.3 C16,7 17,6 18.3,6 L31.7,6 C33,6 34,7 34,8.3 L34,14 L16,14 L16,14 Z" id="Shape"></path>
            </g>
        </g>
    </g>
</svg>