<?xml version="1.0" encoding="UTF-8"?>
<svg width="50px" height="50px" viewBox="0 0 50 50" version="1.1" xmlns="http://www.w3.org/2000/svg" xmlns:xlink="http://www.w3.org/1999/xlink">
    <!-- Generator: Sketch 42 (36781) - http://www.bohemiancoding.com/sketch -->
    <title>4_icon_2</title>
    <desc>Created with Sketch.</desc>
    <defs></defs>
    <g id="升级改造首页-vol.3" stroke="none" stroke-width="1" fill="none" fill-rule="evenodd">
        <g id="icon-and-more" transform="translate(-360.000000, -60.000000)" stroke="#8AC249" stroke-width="2">
            <g id="icon" transform="translate(360.000000, 60.000000)">
                <path d="M11,25.1 C11,25.1 11.5,40.1 25.5,40.1 C39.5,40.1 40,25 40,25" id="Shape"></path>
                <path d="M25.5,2 L25.7,2 C30.6,2 34.6,6 34.6,10.9 L34.6,24.1 C34.6,29 30.6,33 25.7,33 L25.5,33 C20.6,33 16.6,29 16.6,24.1 L16.6,10.9 C16.6,6 20.5,2 25.5,2 L25.5,2 Z" id="Shape"></path>
                <path d="M26.5,40 L26.5,48" id="Shape"></path>
                <path d="M14.6,48 L35.5,48" id="Shape"></path>
            </g>
        </g>
    </g>
</svg>