<svg xmlns="http://www.w3.org/2000/svg" xmlns:xlink="http://www.w3.org/1999/xlink" width="1242" height="298" viewBox="0 0 1242 298">
  <defs>
    <rect id="数据治理_bgsvg-a" width="1242" height="298"/>
    <linearGradient id="数据治理_bgsvg-c" x1="63.418%" x2="90.6%" y1="42.189%" y2="125.778%">
      <stop offset="0%" stop-color="#FF76E1"/>
      <stop offset="100%" stop-color="#C644FF"/>
    </linearGradient>
  </defs>
  <g fill="none" fill-rule="evenodd">
    <mask id="数据治理_bgsvg-b" fill="#fff">
      <use xlink:href="#数据治理_bgsvg-a"/>
    </mask>
    <use fill="#FFF" xlink:href="#数据治理_bgsvg-a"/>
    <path fill="#6CFFFF" d="M102.250772,-83.3977754 C113.282396,41.4325173 71.38284,106.105335 -23.4478959,110.620678 C-165.694,117.393692 -63.0354666,278.237282 12.6450573,187.492842 C88.3255812,96.748403 107.211049,150.24146 221.164518,164.171656 C297.133497,173.458453 297.133497,90.935309 221.164518,-83.3977754 L102.250772,-83.3977754 Z" mask="url(#数据治理_bgsvg-b)" transform="rotate(-26 91.797 65.888)"/>
    <g mask="url(#数据治理_bgsvg-b)">
      <g transform="translate(-156 -21)">
        <path fill="#FFE77B" d="M192.932003,0.549978514 C180.835579,100.161564 138.936023,164.834382 67.2333349,194.568432 C-40.3206976,239.169506 2.18980455,301.625424 56.4467021,314.556794 C110.7036,327.488164 252.049405,309.219681 311.845749,248.119409 C311.845749,204.978874 311.845749,122.45573 311.845749,0.549978514 L192.932003,0.549978514 Z" transform="matrix(-1 0 0 1 312.439 0)"/>
        <path fill="#6CEDAF" d="M117.27217,193.303932 C136.702624,184.884694 153.892879,173.839231 168.842938,160.167543 C176.608874,166.41287 185.404865,172.22824 195.230911,177.613655 C320.111768,246.057787 157.333701,345.620509 129.09224,230.883789 C125.401832,215.89075 121.503401,203.536516 117.27217,193.303932 Z" transform="matrix(-1 0 0 1 359.056 0)"/>
      </g>
    </g>
    <circle cx="1088" cy="104" r="186" fill="url(#数据治理_bgsvg-c)" mask="url(#数据治理_bgsvg-b)"/>
    <circle cx="927.5" cy="201.5" r="57.5" fill="#52249C" mask="url(#数据治理_bgsvg-b)" opacity=".5" style="mix-blend-mode:hard-light"/>
  </g>
</svg>
